SplineFontDB: 3.0
FontName: LindenHill-Italic
FullName: Linden Hill Italic
FamilyName: Linden Hill
Weight: Book
Copyright: Copyright (c) 2010, Barry Schwartz (chemoelectric@chemoelectric.org)\n
Version: 1.201
ItalicAngle: -5.6
UnderlinePosition: -405
UnderlineWidth: 200
Ascent: 2970
Descent: 1126
sfntRevision: 0x00013375
LayerCount: 2
Layer: 0 1 "Back"  1
Layer: 1 1 "Fore"  0
XUID: [1021 288 713564382 13312698]
FSType: 0
OS2Version: 4
OS2_WeightWidthSlopeOnly: 0
OS2_UseTypoMetrics: 1
CreationTime: 1249677682
ModificationTime: 1318621145
PfmFamily: 17
TTFWeight: 400
TTFWidth: 5
LineGap: 0
VLineGap: 0
Panose: 2 0 5 3 0 0 0 0 0 0
OS2TypoAscent: 3633
OS2TypoAOffset: 0
OS2TypoDescent: -1888
OS2TypoDOffset: 0
OS2TypoLinegap: 0
OS2WinAscent: 3633
OS2WinAOffset: 0
OS2WinDescent: 1888
OS2WinDOffset: 0
HheadAscent: 3633
HheadAOffset: 0
HheadDescent: -1888
HheadDOffset: 0
OS2SubXSize: 2662
OS2SubYSize: 2867
OS2SubXOff: 39
OS2SubYOff: 573
OS2SupXSize: 2662
OS2SupYSize: 2867
OS2SupXOff: -137
OS2SupYOff: 1966
OS2StrikeYSize: 204
OS2StrikeYPos: 1060
OS2Vendor: 'PfEd'
OS2CodePages: 00000093.00000000
OS2UnicodeRanges: 8000006f.00000042.00000000.00000000
Lookup: 3 0 0 "'aalt' Access All Alternates lookup 0"  {"'aalt' Access All Alternates lookup 0 subtable"  } ['aalt' ('DFLT' <'dflt' > ) ]
Lookup: 3 0 0 "'aalt' Access All Alternates in Latin lookup 1"  {"'aalt' Access All Alternates in Latin lookup 1 subtable"  } ['aalt' ('latn' <'AZE ' 'CAT ' 'CRT ' 'MOL ' 'ROM ' 'TRK ' 'dflt' > ) ]
Lookup: 1 0 0 "'locl' Localized Forms in Latin lookup 2"  {"'locl' Localized Forms in Latin lookup 2 subtable"  } ['locl' ('latn' <'CAT ' > ) ]
Lookup: 1 0 0 "'locl' Localized Forms in Latin lookup 3"  {"'locl' Localized Forms in Latin lookup 3 subtable"  } ['locl' ('latn' <'MOL ' 'ROM ' > ) ]
Lookup: 1 0 0 "'locl' Localized Forms in Latin lookup 4"  {"'locl' Localized Forms in Latin lookup 4 subtable"  } ['locl' ('latn' <'AZE ' 'CRT ' 'TRK ' > ) ]

StartChar: .notdef
Encoding: 65536 -1 0
Width: 2048
Flags: HW
LayerCount: 2
Fore
SplineSet
213 0 m 1,0,-1
 213 2904 l 1,1,-1
 1835 2904 l 1,2,-1
 1835 0 l 1,3,-1
 213 0 l 1,0,-1
733 2404 m 1,4,-1
 1057 2441 l 1,5,6
 1148 2441 1148 2441 1213 2385 c 128,-1,7
 1278 2329 1278 2329 1278 2242 c 128,-1,8
 1278 2155 1278 2155 1242.5 2071.5 c 128,-1,9
 1207 1988 1207 1988 1150 1912.5 c 128,-1,10
 1093 1837 1093 1837 1023.5 1758.5 c 128,-1,11
 954 1680 954 1680 885 1602.5 c 128,-1,12
 816 1525 816 1525 759 1449.5 c 0,13,14
 631 1279.95614035 631 1279.95614035 631 1135 c 0,15,16
 631 910.380952381 631 910.380952381 750.5 779.5 c 0,17,18
 811.217391304 713 811.217391304 713 858.108695652 713 c 128,-1,19
 905 713 905 713 905 758 c 0,20,21
 905 782.533333333 905 782.533333333 877 814.266666667 c 0,22,23
 823 875.466666667 823 875.466666667 823 974.233333333 c 128,-1,24
 823 1073 823 1073 861.5 1149 c 128,-1,25
 900 1225 900 1225 962 1299.5 c 128,-1,26
 1024 1374 1024 1374 1099 1452.5 c 128,-1,27
 1174 1531 1174 1531 1248.5 1607 c 128,-1,28
 1323 1683 1323 1683 1385 1752 c 0,29,30
 1524 1906.69354839 1524 1906.69354839 1524 1998.34677419 c 128,-1,31
 1524 2090 1524 2090 1494 2180 c 128,-1,32
 1464 2270 1464 2270 1415 2343 c 128,-1,33
 1366 2416 1366 2416 1304 2480 c 128,-1,34
 1242 2544 1242 2544 1177.5 2587 c 0,35,36
 1039.5 2679 1039.5 2679 964.25 2679 c 128,-1,37
 889 2679 889 2679 837 2651.5 c 128,-1,38
 785 2624 785 2624 753 2585 c 0,39,40
 684 2500.90625 684 2500.90625 684 2461.453125 c 128,-1,41
 684 2422 684 2422 694.5 2413 c 128,-1,42
 705 2404 705 2404 733 2404 c 1,4,-1
754 425 m 128,-1,44
 692 363 692 363 692 318 c 128,-1,45
 692 273 692 273 744 202 c 128,-1,46
 796 131 796 131 840.5 131 c 128,-1,47
 885 131 885 131 946.5 200 c 128,-1,48
 1008 269 1008 269 1008 310 c 128,-1,49
 1008 351 1008 351 955 419 c 128,-1,50
 902 487 902 487 859 487 c 128,-1,43
 816 487 816 487 754 425 c 128,-1,44
EndSplineSet
EndChar

StartChar: exclam
Encoding: 33 33 4
Width: 1167
GlyphClass: 2
Flags: HW
LayerCount: 2
Fore
SplineSet
466 39 m 128,-1,1
 410 115 410 115 410 163 c 128,-1,2
 410 211 410 211 478.5 279.5 c 128,-1,3
 547 348 547 348 593.5 348 c 128,-1,4
 640 348 640 348 699 276.5 c 128,-1,5
 758 205 758 205 758 160 c 128,-1,6
 758 115 758 115 687.5 39 c 128,-1,7
 617 -37 617 -37 569.5 -37 c 128,-1,0
 522 -37 522 -37 466 39 c 128,-1,1
553 766 m 0,8,9
 553 786 553 786 567.5 1077 c 0,10,11
 610 1929.93103448 610 1929.93103448 610 2421 c 0,12,13
 610 2478 610 2478 650 2506.5 c 0,14,15
 697.817589577 2540.57003257 697.817589577 2540.57003257 784.408794788 2572.78501629 c 128,-1,16
 871 2605 871 2605 893 2605 c 0,17,18
 930 2605 930 2605 930 2567.5 c 128,-1,19
 930 2530 930 2530 923.5 2476 c 128,-1,20
 917 2422 917 2422 898.5 2295.5 c 128,-1,21
 880 2169 880 2169 856 2010 c 0,22,23
 709.473684211 1039.26315789 709.473684211 1039.26315789 693.236842105 893.131578947 c 128,-1,24
 677 747 677 747 673.5 725.5 c 128,-1,25
 670 704 670 704 666 692.5 c 128,-1,26
 662 681 662 681 655 670.5 c 0,27,28
 642 651 642 651 614 651 c 0,29,30
 553 651 553 651 553 766 c 0,8,9
EndSplineSet
Position2: "'cpsp' Capital Spacing in Latin lookup 0 subtable" dx=33 dy=0 dh=66 dv=0
EndChar

StartChar: numbersign
Encoding: 35 35 6
Width: 1748
GlyphClass: 2
Flags: HW
LayerCount: 2
Fore
SplineSet
98 1053 m 1,0,-1
 98 1192 l 1,1,-1
 500 1192 l 1,2,-1
 586 1499 l 1,3,-1
 102 1499 l 1,4,-1
 102 1638 l 1,5,-1
 627 1638 l 1,6,-1
 950 2814 l 1,7,-1
 1118 2814 l 1,8,-1
 791 1638 l 1,9,-1
 1130 1638 l 1,10,-1
 1458 2814 l 1,11,-1
 1622 2814 l 1,12,-1
 1294 1638 l 1,13,-1
 1651 1638 l 1,14,-1
 1651 1499 l 1,15,-1
 1257 1499 l 1,16,-1
 1171 1192 l 1,17,-1
 1647 1192 l 1,18,-1
 1647 1053 l 1,19,-1
 1130 1053 l 1,20,-1
 778 -201 l 1,21,-1
 614 -201 l 1,22,-1
 967 1053 l 1,23,-1
 627 1053 l 1,24,-1
 283 -201 l 1,25,-1
 115 -201 l 1,26,-1
 463 1053 l 1,27,-1
 98 1053 l 1,0,-1
668 1192 m 1,28,-1
 1004 1192 l 1,29,-1
 1090 1499 l 1,30,-1
 754 1499 l 1,31,-1
 668 1192 l 1,28,-1
EndSplineSet
EndChar

StartChar: percent
Encoding: 37 37 8
Width: 3198
GlyphClass: 2
Flags: HW
LayerCount: 2
Fore
SplineSet
250 -164 m 2,0,1
 180 -164 180 -164 180 -140 c 128,-1,2
 180 -116 180 -116 217 -74 c 1,3,-1
 2679 2552 l 1,4,5
 2301 2363 2301 2363 1802 2363 c 0,6,7
 1720 2363 1720 2363 1507 2388 c 1,8,9
 1585 2264 1585 2264 1585 2093 c 128,-1,10
 1585 1922 1585 1922 1512.5 1765.5 c 128,-1,11
 1440 1609 1440 1609 1323.5 1498 c 128,-1,12
 1207 1387 1207 1387 1054 1320 c 128,-1,13
 901 1253 901 1253 763.5 1253 c 128,-1,14
 626 1253 626 1253 532.5 1292 c 128,-1,15
 439 1331 439 1331 382 1398 c 0,16,17
 266 1534.35087719 266 1534.35087719 266 1704.6754386 c 128,-1,18
 266 1875 266 1875 322 2007.5 c 128,-1,19
 378 2140 378 2140 469.5 2239 c 128,-1,20
 561 2338 561 2338 674 2412.5 c 0,21,22
 903.791946309 2564 903.791946309 2564 1130 2564 c 0,23,24
 1224.8 2564 1224.8 2564 1313.9 2541.5 c 0,25,26
 1482.2 2499 1482.2 2499 1743.1 2499 c 128,-1,27
 2004 2499 2004 2499 2221.5 2535 c 128,-1,28
 2439 2571 2439 2571 2579 2613.5 c 128,-1,29
 2719 2656 2719 2656 2836 2692 c 128,-1,30
 2953 2728 2953 2728 2986 2728 c 128,-1,31
 3019 2728 3019 2728 3019 2707 c 0,32,33
 3019 2675 3019 2675 2945 2593 c 1,34,-1
 377 -164 l 1,35,-1
 250 -164 l 2,0,1
492.5 1817.5 m 128,-1,37
 442 1710 442 1710 442 1624.5 c 128,-1,38
 442 1539 442 1539 494.5 1480 c 128,-1,39
 547 1421 547 1421 652.5 1421 c 128,-1,40
 758 1421 758 1421 870 1477 c 128,-1,41
 982 1533 982 1533 1072.5 1622.5 c 128,-1,42
 1163 1712 1163 1712 1236 1817.5 c 0,43,44
 1389 2038.61643836 1389 2038.61643836 1389 2220 c 0,45,46
 1389 2299 1389 2299 1332 2349.5 c 128,-1,47
 1275 2400 1275 2400 1191.5 2400 c 128,-1,48
 1108 2400 1108 2400 1005.5 2348 c 128,-1,49
 903 2296 903 2296 806 2210.5 c 128,-1,50
 709 2125 709 2125 626 2025 c 128,-1,36
 543 1925 543 1925 492.5 1817.5 c 128,-1,37
1595 255 m 0,51,52
 1565 341 1565 341 1565 461 c 128,-1,53
 1565 581 1565 581 1621 714 c 128,-1,54
 1677 847 1677 847 1768 946 c 128,-1,55
 1859 1045 1859 1045 1972.5 1119.5 c 0,56,57
 2201.7852349 1270 2201.7852349 1270 2429 1270 c 0,58,59
 2624.55752212 1270 2624.55752212 1270 2750 1157.5 c 0,60,61
 2884 1037.32539683 2884 1037.32539683 2884 791 c 0,62,63
 2884 624 2884 624 2812.5 467.5 c 128,-1,64
 2741 311 2741 311 2624.5 200 c 0,65,66
 2367.36036036 -45 2367.36036036 -45 2048 -45 c 0,67,68
 1699.65116279 -45 1699.65116279 -45 1595 255 c 0,51,52
1777.5 490.5 m 128,-1,70
 1741 403 1741 403 1741 324 c 128,-1,71
 1741 245 1741 245 1795.5 184 c 128,-1,72
 1850 123 1850 123 1955.5 123 c 128,-1,73
 2061 123 2061 123 2173 179.5 c 128,-1,74
 2285 236 2285 236 2375.5 326 c 128,-1,75
 2466 416 2466 416 2538.5 522.5 c 0,76,77
 2691 746.517241379 2691 746.517241379 2691 926 c 0,78,79
 2691 1005 2691 1005 2632 1055.5 c 128,-1,80
 2573 1106 2573 1106 2496 1106 c 128,-1,81
 2419 1106 2419 1106 2335.5 1068.5 c 128,-1,82
 2252 1031 2252 1031 2170.5 970 c 128,-1,83
 2089 909 2089 909 2010.5 828 c 128,-1,84
 1932 747 1932 747 1873 662.5 c 128,-1,69
 1814 578 1814 578 1777.5 490.5 c 128,-1,70
EndSplineSet
EndChar

StartChar: ampersand
Encoding: 38 38 9
Width: 3534
GlyphClass: 2
Flags: HW
LayerCount: 2
Fore
SplineSet
3097 2064 m 0,0,1
 3097 2138 3097 2138 3227.5 2138 c 128,-1,2
 3358 2138 3358 2138 3415.5 2067 c 128,-1,3
 3473 1996 3473 1996 3473 1868 c 0,4,5
 3473 1643.36363636 3473 1643.36363636 3421.5 1526.18181818 c 0,6,7
 3310.66912335 1274 3310.66912335 1274 2892 1274 c 2,8,-1
 2863 1274 l 2,9,10
 2776.90909091 1274 2776.90909091 1274 2765 1143 c 1,11,12
 2692 543 2692 543 2340.5 241 c 128,-1,13
 1989 -61 1989 -61 1397 -61 c 0,14,15
 391.003891051 -61 391.003891051 -61 222 510.5 c 0,16,17
 184 639 184 639 184 780 c 128,-1,18
 184 921 184 921 211 1029 c 128,-1,19
 238 1137 238 1137 283.5 1217.5 c 128,-1,20
 329 1298 329 1298 388 1367 c 128,-1,21
 447 1436 447 1436 512.5 1483.5 c 128,-1,22
 578 1531 578 1531 643 1569 c 128,-1,23
 708 1607 708 1607 767 1629.5 c 0,24,25
 874.875739645 1670.63905325 874.875739645 1670.63905325 971 1692 c 1,26,27
 881.4 1717.6 881.4 1717.6 811.2 1787.8 c 128,-1,28
 741 1858 741 1858 714 1899 c 0,29,30
 651 1994.66666667 651 1994.66666667 651 2103.33333333 c 128,-1,31
 651 2212 651 2212 686.5 2307 c 128,-1,32
 722 2402 722 2402 799 2491.5 c 128,-1,33
 876 2581 876 2581 984 2650 c 0,34,35
 1221.91304348 2802 1221.91304348 2802 1589 2802 c 0,36,37
 1871.91891892 2802 1871.91891892 2802 2065.5 2689.5 c 0,38,39
 2273 2568.91099476 2273 2568.91099476 2273 2339 c 0,40,41
 2273 2139.34782609 2273 2139.34782609 2118 2045 c 0,42,43
 2029.28571429 1991 2029.28571429 1991 1926.64285714 1991 c 128,-1,44
 1824 1991 1824 1991 1737.5 2034 c 128,-1,45
 1651 2077 1651 2077 1651 2122.5 c 128,-1,46
 1651 2168 1651 2168 1674 2175.5 c 128,-1,47
 1697 2183 1697 2183 1727 2152.5 c 128,-1,48
 1757 2122 1757 2122 1830 2122 c 128,-1,49
 1903 2122 1903 2122 1957 2188.5 c 128,-1,50
 2011 2255 2011 2255 2011 2331 c 128,-1,51
 2011 2407 2011 2407 1985 2463 c 128,-1,52
 1959 2519 1959 2519 1907 2567.5 c 0,53,54
 1791.74226804 2675 1791.74226804 2675 1552 2675 c 0,55,56
 1262.51094891 2675 1262.51094891 2675 1094.5 2427.5 c 0,57,58
 1004 2294.1827957 1004 2294.1827957 1004 2169.59139785 c 128,-1,59
 1004 2045 1004 2045 1036.5 1960.5 c 128,-1,60
 1069 1876 1069 1876 1125.5 1828.5 c 0,61,62
 1234.25306236 1737.0704343 1234.25306236 1737.0704343 1385.12653118 1735.03521715 c 128,-1,63
 1536 1733 1536 1733 1536 1683 c 0,64,65
 1536 1622.40740741 1536 1622.40740741 1385.5 1616.7037037 c 128,-1,66
 1235 1611 1235 1611 1086 1554 c 128,-1,67
 937 1497 937 1497 843.5 1414 c 128,-1,68
 750 1331 750 1331 686 1225.5 c 0,69,70
 569 1032.6328125 569 1032.6328125 569 827 c 0,71,72
 569 576.855670103 569 576.855670103 744.5 390.5 c 0,73,74
 965.339805825 156 965.339805825 156 1495 156 c 0,75,76
 2295.38207547 156 2295.38207547 156 2497.5 777 c 0,77,78
 2560 969.028985507 2560 969.028985507 2560 1196 c 0,79,80
 2560 1252 2560 1252 2546.5 1274.5 c 0,81,82
 2517.4 1323 2517.4 1323 2228 1323 c 0,83,84
 2162 1323 2162 1323 2068.5 1311 c 128,-1,85
 1975 1299 1975 1299 1895 1213 c 128,-1,86
 1815 1127 1815 1127 1815 1045.5 c 128,-1,87
 1815 964 1815 964 1857.5 912 c 128,-1,88
 1900 860 1900 860 1950 860 c 128,-1,89
 2000 860 2000 860 2035.5 872.5 c 128,-1,90
 2071 885 2071 885 2078.5 886.5 c 128,-1,91
 2086 888 2086 888 2095.5 879 c 128,-1,92
 2105 870 2105 870 2105 852 c 0,93,94
 2105 821 2105 821 2054.5 795.5 c 128,-1,95
 2004 770 2004 770 1962 770 c 0,96,97
 1815 770 1815 770 1733 866 c 128,-1,98
 1651 962 1651 962 1651 1079.5 c 128,-1,99
 1651 1197 1651 1197 1688 1287 c 128,-1,100
 1725 1377 1725 1377 1792 1449.5 c 0,101,102
 1940.32413793 1610 1940.32413793 1610 2195 1610 c 0,103,104
 2299 1610 2299 1610 2523.5 1593.5 c 128,-1,105
 2748 1577 2748 1577 2918 1577 c 128,-1,106
 3088 1577 3088 1577 3205 1668.5 c 128,-1,107
 3322 1760 3322 1760 3322 1888 c 0,108,109
 3322 1962 3322 1962 3289.5 1997 c 128,-1,110
 3257 2032 3257 2032 3207 2032 c 1,111,-1
 3142 2023 l 1,112,113
 3097 2023 3097 2023 3097 2064 c 0,0,1
EndSplineSet
Position2: "'cpsp' Capital Spacing in Latin lookup 0 subtable" dx=33 dy=0 dh=66 dv=0
EndChar

StartChar: parenleft
Encoding: 40 40 11
Width: 1282
GlyphClass: 2
Flags: HW
LayerCount: 2
Fore
SplineSet
184 981.5 m 0,0,1
 184 1205 184 1205 237.5 1452.5 c 128,-1,2
 291 1700 291 1700 376 1882 c 128,-1,3
 461 2064 461 2064 564.5 2222.5 c 128,-1,4
 668 2381 668 2381 771 2486 c 0,5,6
 986.786900369 2705.97693727 986.786900369 2705.97693727 1098 2776 c 1,7,-1
 1151 2810 l 1,8,-1
 1217 2732 l 1,9,10
 1170.46534653 2697.0990099 1170.46534653 2697.0990099 1079.73267327 2600.04950495 c 128,-1,11
 989 2503 989 2503 917.5 2406.5 c 128,-1,12
 846 2310 846 2310 758.5 2152.5 c 128,-1,13
 671 1995 671 1995 608 1826 c 0,14,15
 459 1426.3015873 459 1426.3015873 459 954 c 0,16,17
 459 449.984251969 459 449.984251969 601.5 64 c 0,18,19
 737.999816392 -305.731786134 737.999816392 -305.731786134 893.5 -509 c 0,20,21
 1053.82334711 -718.573002755 1053.82334711 -718.573002755 1136 -786 c 2,22,-1
 1176 -819 l 1,23,-1
 1102 -905 l 1,24,25
 938.421052632 -782.315789474 938.421052632 -782.315789474 720 -506 c 0,26,27
 184 172.072289157 184 172.072289157 184 981.5 c 0,0,1
EndSplineSet
EndChar

StartChar: parenright
Encoding: 41 41 12
Width: 1282
GlyphClass: 2
Flags: HW
LayerCount: 2
Fore
SplineSet
70 2732 m 1,0,-1
 135 2810 l 1,1,2
 318.155031732 2703.15956482 318.155031732 2703.15956482 537.5 2460 c 0,3,4
 956.913277544 1995.05042375 956.913277544 1995.05042375 1068 1346.5 c 0,5,6
 1102 1148 1102 1148 1102 928.5 c 128,-1,7
 1102 709 1102 709 1051.5 483.5 c 128,-1,8
 1001 258 1001 258 920 81 c 128,-1,9
 839 -96 839 -96 741 -257.5 c 128,-1,10
 643 -419 643 -419 545 -534 c 0,11,12
 336.728987993 -778.399656947 336.728987993 -778.399656947 234 -863 c 1,13,-1
 184 -905 l 1,14,-1
 115 -819 l 1,15,16
 336.673724735 -646.587102984 336.673724735 -646.587102984 531 -291.5 c 0,17,18
 827 249.372727273 827 249.372727273 827 954 c 0,19,20
 827 1473.13157895 827 1473.13157895 631 1942.5 c 0,21,22
 541.963076923 2155.72 541.963076923 2155.72 432.481538462 2313.86 c 128,-1,23
 323 2472 323 2472 266 2535.5 c 0,24,25
 151.569269521 2662.97984887 151.569269521 2662.97984887 70 2732 c 1,0,-1
EndSplineSet
EndChar

StartChar: asterisk
Encoding: 42 42 13
Width: 1863
GlyphClass: 2
Flags: HW
LayerCount: 2
Fore
SplineSet
1059 1690.5 m 128,-1,1
 1018 1729 1018 1729 1000.5 1729 c 128,-1,2
 983 1729 983 1729 983 1679 c 128,-1,3
 983 1629 983 1629 1038.5 1449 c 128,-1,4
 1094 1269 1094 1269 1094 1208 c 128,-1,5
 1094 1147 1094 1147 1043.5 1098 c 128,-1,6
 993 1049 993 1049 926.5 1049 c 128,-1,7
 860 1049 860 1049 805 1097 c 128,-1,8
 750 1145 750 1145 750 1201.5 c 128,-1,9
 750 1258 750 1258 809 1473 c 128,-1,10
 868 1688 868 1688 868 1712.5 c 128,-1,11
 868 1737 868 1737 856.5 1737 c 128,-1,12
 845 1737 845 1737 802 1699 c 128,-1,13
 759 1661 759 1661 701.5 1606.5 c 128,-1,14
 644 1552 644 1552 581 1498 c 0,15,16
 429.333333333 1368 429.333333333 1368 344.166666667 1368 c 128,-1,17
 259 1368 259 1368 219.5 1418 c 128,-1,18
 180 1468 180 1468 180 1524 c 128,-1,19
 180 1580 180 1580 244 1629.5 c 128,-1,20
 308 1679 308 1679 398.5 1709.5 c 128,-1,21
 489 1740 489 1740 580 1763.5 c 0,22,23
 799 1820.05494505 799 1820.05494505 799 1847.52747253 c 128,-1,24
 799 1875 799 1875 735.5 1894.5 c 128,-1,25
 672 1914 672 1914 582 1930 c 128,-1,26
 492 1946 492 1946 401.5 1970 c 0,27,28
 184 2027.67955801 184 2027.67955801 184 2171 c 0,29,30
 184 2283.64583333 184 2283.64583333 305 2326.5 c 0,31,32
 329 2335 329 2335 360 2335 c 128,-1,33
 391 2335 391 2335 473 2278.5 c 128,-1,34
 555 2222 555 2222 627.5 2154.5 c 0,35,36
 821.37037037 1974 821.37037037 1974 868 1974 c 0,37,38
 885 1974 885 1974 885 2021.5 c 128,-1,39
 885 2069 885 2069 821.5 2270 c 128,-1,40
 758 2471 758 2471 758 2530.5 c 128,-1,41
 758 2590 758 2590 812 2644.5 c 128,-1,42
 866 2699 866 2699 918.5 2699 c 128,-1,43
 971 2699 971 2699 1001 2688 c 128,-1,44
 1031 2677 1031 2677 1058.5 2653 c 0,45,46
 1118 2601.07272727 1118 2601.07272727 1118 2474 c 0,47,48
 1118 2429 1118 2429 1058.5 2230.5 c 128,-1,49
 999 2032 999 2032 999 1995 c 128,-1,50
 999 1958 999 1958 1021 1958 c 128,-1,51
 1043 1958 1043 1958 1088 1995 c 128,-1,52
 1133 2032 1133 2032 1186 2085 c 128,-1,53
 1239 2138 1239 2138 1296 2191 c 0,54,55
 1432.58490566 2318 1432.58490566 2318 1513.29245283 2318 c 128,-1,56
 1594 2318 1594 2318 1638.5 2280.5 c 128,-1,57
 1683 2243 1683 2243 1683 2186 c 128,-1,58
 1683 2129 1683 2129 1649.5 2083.5 c 128,-1,59
 1616 2038 1616 2038 1562 2010 c 128,-1,60
 1508 1982 1508 1982 1443 1960.5 c 128,-1,61
 1378 1939 1378 1939 1313 1925.5 c 128,-1,62
 1248 1912 1248 1912 1194 1901 c 0,63,64
 1073 1876.35185185 1073 1876.35185185 1073 1851.17592593 c 128,-1,65
 1073 1826 1073 1826 1115.5 1807 c 128,-1,66
 1158 1788 1158 1788 1222 1773.5 c 128,-1,67
 1286 1759 1286 1759 1360 1736 c 128,-1,68
 1434 1713 1434 1713 1498 1686 c 128,-1,69
 1562 1659 1562 1659 1604.5 1611.5 c 128,-1,70
 1647 1564 1647 1564 1647 1503 c 128,-1,71
 1647 1442 1647 1442 1613 1399 c 128,-1,72
 1579 1356 1579 1356 1522 1356 c 128,-1,73
 1465 1356 1465 1356 1398 1394.5 c 128,-1,74
 1331 1433 1331 1433 1270.5 1487.5 c 128,-1,75
 1210 1542 1210 1542 1155 1597 c 128,-1,0
 1100 1652 1100 1652 1059 1690.5 c 128,-1,1
EndSplineSet
EndChar

StartChar: plus
Encoding: 43 43 14
Width: 3125
GlyphClass: 2
Flags: HW
LayerCount: 2
Fore
SplineSet
328 844 m 1,0,-1
 328 1081 l 1,1,2
 1234 1081 1234 1081 1405 1069 c 2,3,-1
 1462 1065 l 1,4,5
 1442 1121 1442 1121 1442 2200 c 1,6,-1
 1683 2200 l 1,7,8
 1683 1161 1683 1161 1663 1065 c 1,9,10
 1788 1081 1788 1081 2798 1081 c 1,11,-1
 2798 844 l 1,12,13
 1899 844 1899 844 1722 856 c 2,14,-1
 1663 860 l 1,15,16
 1683 736 1683 736 1683 -274 c 1,17,-1
 1442 -274 l 1,18,19
 1442 625 1442 625 1457 802 c 2,20,-1
 1462 860 l 1,21,22
 1346 844 1346 844 328 844 c 1,0,-1
EndSplineSet
EndChar

StartChar: comma
Encoding: 44 44 15
Width: 917
GlyphClass: 2
Flags: HW
LayerCount: 2
Fore
SplineSet
143 -541 m 0,0,1
 143 -509.571428571 143 -509.571428571 196 -479.285714286 c 128,-1,2
 249 -449 249 -449 286.5 -419 c 128,-1,3
 324 -389 324 -389 355.5 -353.5 c 0,4,5
 430 -269.53968254 430 -269.53968254 430 -131 c 0,6,7
 430 -39 430 -39 397.5 -6.5 c 128,-1,8
 365 26 365 26 342 42 c 128,-1,9
 319 58 319 58 299.5 68 c 0,10,11
 254 91.3333333333 254 91.3333333333 254 122.166666667 c 128,-1,12
 254 153 254 153 294.5 200.5 c 128,-1,13
 335 248 335 248 380 281.5 c 128,-1,14
 425 315 425 315 438 315 c 128,-1,15
 451 315 451 315 471 310.5 c 128,-1,16
 491 306 491 306 528 286.5 c 128,-1,17
 565 267 565 267 595 235.5 c 0,18,19
 672 154.65 672 154.65 672 11.825 c 128,-1,20
 672 -131 672 -131 617 -265 c 128,-1,21
 562 -399 562 -399 489.5 -468.5 c 128,-1,22
 417 -538 417 -538 332.5 -568 c 128,-1,23
 248 -598 248 -598 195.5 -598 c 128,-1,24
 143 -598 143 -598 143 -541 c 0,0,1
EndSplineSet
EndChar

StartChar: hyphen
Encoding: 45 45 16
Width: 1290
GlyphClass: 2
Flags: HW
LayerCount: 2
Fore
SplineSet
139 987 m 1,0,-1
 139 1233 l 1,1,-1
 1151 1532 l 1,2,-1
 1151 1282 l 1,3,-1
 139 987 l 1,0,-1
EndSplineSet
EndChar

StartChar: period
Encoding: 46 46 17
Width: 917
GlyphClass: 2
Flags: HW
LayerCount: 2
Fore
SplineSet
326.5 37 m 128,-1,1
 254 115 254 115 254 163 c 128,-1,2
 254 211 254 211 334 281.5 c 128,-1,3
 414 352 414 352 460.5 352 c 128,-1,4
 507 352 507 352 575 271 c 128,-1,5
 643 190 643 190 643 143.5 c 128,-1,6
 643 97 643 97 564.5 28 c 128,-1,7
 486 -41 486 -41 442.5 -41 c 128,-1,0
 399 -41 399 -41 326.5 37 c 128,-1,1
EndSplineSet
EndChar

StartChar: slash
Encoding: 47 47 18
Width: 1810
GlyphClass: 2
Flags: HW
LayerCount: 2
Fore
SplineSet
70 -946 m 1,0,-1
 1466 2892 l 1,1,-1
 1659 2892 l 1,2,-1
 262 -946 l 1,3,-1
 70 -946 l 1,0,-1
EndSplineSet
Substitution2: "'numr' Numerators in Latin lookup 5 subtable" fraction
AlternateSubs2: "'aalt' Access All Alternates in Latin lookup 1 subtable" fraction
AlternateSubs2: "'aalt' Access All Alternates lookup 0 subtable" fraction
EndChar

StartChar: colon
Encoding: 58 58 29
Width: 1044
GlyphClass: 2
Flags: HW
LayerCount: 2
Fore
SplineSet
363.5 39 m 128,-1,1
 307 115 307 115 307 163 c 128,-1,2
 307 211 307 211 375.5 279.5 c 128,-1,3
 444 348 444 348 490.5 348 c 128,-1,4
 537 348 537 348 596 276.5 c 128,-1,5
 655 205 655 205 655 160 c 128,-1,6
 655 115 655 115 585 39 c 128,-1,7
 515 -37 515 -37 467.5 -37 c 128,-1,0
 420 -37 420 -37 363.5 39 c 128,-1,1
474 1313 m 128,-1,9
 418 1389 418 1389 418 1437 c 128,-1,10
 418 1485 418 1485 486.5 1553.5 c 128,-1,11
 555 1622 555 1622 601.5 1622 c 128,-1,12
 648 1622 648 1622 705 1550.5 c 128,-1,13
 762 1479 762 1479 762 1434 c 128,-1,14
 762 1389 762 1389 693.5 1313 c 128,-1,15
 625 1237 625 1237 577.5 1237 c 128,-1,8
 530 1237 530 1237 474 1313 c 128,-1,9
EndSplineSet
EndChar

StartChar: semicolon
Encoding: 59 59 30
Width: 1044
GlyphClass: 2
Flags: HW
LayerCount: 2
Fore
SplineSet
246 -631 m 128,-1,1
 180 -631 180 -631 180 -565 c 0,2,3
 180 -542.958333333 180 -542.958333333 241.5 -475.479166667 c 128,-1,4
 303 -408 303 -408 339 -360.5 c 0,5,6
 426 -245.708333333 426 -245.708333333 426 -111 c 0,7,8
 426 -19.0769230769 426 -19.0769230769 364 15.5 c 0,9,10
 338 30 338 30 312 40.5 c 0,11,12
 250 65.5384615385 250 65.5384615385 250 111.269230769 c 128,-1,13
 250 157 250 157 275 203.5 c 128,-1,14
 300 250 300 250 334.5 281.5 c 0,15,16
 411.714285714 352 411.714285714 352 467.357142857 352 c 128,-1,17
 523 352 523 352 562.5 267.5 c 128,-1,18
 602 183 602 183 602 66.5 c 128,-1,19
 602 -50 602 -50 574.5 -155.5 c 128,-1,20
 547 -261 547 -261 504.5 -344 c 128,-1,21
 462 -427 462 -427 413.5 -493 c 0,22,0
 312.090909091 -631 312.090909091 -631 246 -631 c 128,-1,1
474 1313 m 128,-1,24
 418 1389 418 1389 418 1437 c 128,-1,25
 418 1485 418 1485 486.5 1553.5 c 128,-1,26
 555 1622 555 1622 601.5 1622 c 128,-1,27
 648 1622 648 1622 705 1550.5 c 128,-1,28
 762 1479 762 1479 762 1434 c 128,-1,29
 762 1389 762 1389 693.5 1313 c 128,-1,30
 625 1237 625 1237 577.5 1237 c 128,-1,23
 530 1237 530 1237 474 1313 c 128,-1,24
EndSplineSet
EndChar

StartChar: less
Encoding: 60 60 31
Width: 3117
GlyphClass: 2
Flags: HW
LayerCount: 2
Fore
SplineSet
242 954 m 1,0,-1
 242 1044 l 1,1,-1
 2875 2306 l 1,2,-1
 2875 2032 l 1,3,-1
 668 999 l 1,4,-1
 2875 -33 l 1,5,-1
 2875 -307 l 1,6,-1
 242 954 l 1,0,-1
EndSplineSet
EndChar

StartChar: equal
Encoding: 61 61 32
Width: 3211
GlyphClass: 2
Flags: HW
LayerCount: 2
Fore
SplineSet
369 500 m 1,0,-1
 369 741 l 1,1,-1
 2843 741 l 1,2,-1
 2843 500 l 1,3,-1
 369 500 l 1,0,-1
369 1184 m 1,4,-1
 369 1425 l 1,5,-1
 2843 1425 l 1,6,-1
 2843 1184 l 1,7,-1
 369 1184 l 1,4,-1
EndSplineSet
EndChar

StartChar: greater
Encoding: 62 62 33
Width: 3117
GlyphClass: 2
Flags: HW
LayerCount: 2
Fore
SplineSet
242 -33 m 1,0,-1
 2449 999 l 1,1,-1
 242 2032 l 1,2,-1
 242 2306 l 1,3,-1
 2875 1044 l 1,4,-1
 2875 954 l 1,5,-1
 242 -307 l 1,6,-1
 242 -33 l 1,0,-1
EndSplineSet
EndChar

StartChar: question
Encoding: 63 63 34
Width: 1490
GlyphClass: 2
Flags: HW
LayerCount: 2
Fore
SplineSet
725 643 m 0,0,1
 725 598 725 598 672 598 c 0,2,3
 585.117647059 598 585.117647059 598 491 758 c 0,4,5
 422 875.3 422 875.3 422 1005.15 c 128,-1,6
 422 1135 422 1135 461 1224.5 c 128,-1,7
 500 1314 500 1314 562.5 1395.5 c 128,-1,8
 625 1477 625 1477 700.5 1561.5 c 128,-1,9
 776 1646 776 1646 851.5 1730.5 c 128,-1,10
 927 1815 927 1815 989.5 1897.5 c 0,11,12
 1130 2082.96 1130 2082.96 1130 2216.48 c 128,-1,13
 1130 2350 1130 2350 1057 2412 c 128,-1,14
 984 2474 984 2474 885 2474 c 0,15,16
 858 2474 858 2474 729.5 2453.5 c 128,-1,17
 601 2433 601 2433 542 2433 c 128,-1,18
 483 2433 483 2433 483 2482 c 0,19,20
 483 2542.57142857 483 2542.57142857 538 2607.78571429 c 0,21,22
 642.759036145 2732 642.759036145 2732 770 2732 c 0,23,24
 872.723404255 2732 872.723404255 2732 981.361702128 2658 c 128,-1,25
 1090 2584 1090 2584 1157 2514.5 c 128,-1,26
 1224 2445 1224 2445 1276.5 2365.5 c 0,27,28
 1393 2189.08571429 1393 2189.08571429 1393 1991 c 0,29,30
 1393 1891.73684211 1393 1891.73684211 1242.5 1722 c 0,31,32
 1176 1647 1176 1647 1095 1564.5 c 128,-1,33
 1014 1482 1014 1482 933 1396 c 128,-1,34
 852 1310 852 1310 785.5 1227.5 c 0,35,36
 635 1040.78947368 635 1040.78947368 635 901 c 0,37,38
 635 790.352941176 635 790.352941176 666 745.676470588 c 0,39,40
 725 660.647058824 725 660.647058824 725 643 c 0,0,1
548 39 m 128,-1,42
 492 115 492 115 492 163 c 128,-1,43
 492 211 492 211 560.5 279.5 c 128,-1,44
 629 348 629 348 675.5 348 c 128,-1,45
 722 348 722 348 779 276.5 c 128,-1,46
 836 205 836 205 836 160 c 128,-1,47
 836 115 836 115 767.5 39 c 128,-1,48
 699 -37 699 -37 651.5 -37 c 128,-1,41
 604 -37 604 -37 548 39 c 128,-1,42
EndSplineSet
Position2: "'cpsp' Capital Spacing in Latin lookup 0 subtable" dx=33 dy=0 dh=66 dv=0
EndChar

StartChar: at
Encoding: 64 64 35
Width: 3317
GlyphClass: 2
Flags: HW
LayerCount: 2
Fore
SplineSet
225 693 m 0,0,1
 225 877 225 877 259 1028.5 c 128,-1,2
 293 1180 293 1180 361 1325 c 128,-1,3
 429 1470 429 1470 525 1601.5 c 128,-1,4
 621 1733 621 1733 750 1843.5 c 128,-1,5
 879 1954 879 1954 1029.5 2035.5 c 0,6,7
 1348.04294479 2208 1348.04294479 2208 1745 2208 c 0,8,9
 2323.12048193 2208 2323.12048193 2208 2641 1936 c 0,10,11
 2970 1654.48453608 2970 1654.48453608 2970 1171 c 0,12,13
 2970 651.285714286 2970 651.285714286 2648 291.5 c 0,14,15
 2456.50197599 77.5302690865 2456.50197599 77.5302690865 2195.5 -5 c 0,16,17
 2069 -45 2069 -45 1997.5 -45 c 128,-1,18
 1926 -45 1926 -45 1906.5 -39 c 128,-1,19
 1887 -33 1887 -33 1862 -13 c 128,-1,20
 1837 7 1837 7 1817 37.5 c 0,21,22
 1769 110.7 1769 110.7 1769 223.85 c 128,-1,23
 1769 337 1769 337 1790 610 c 1,24,25
 1656 353 1656 353 1549.5 222.5 c 128,-1,26
 1443 92 1443 92 1337.5 23.5 c 128,-1,27
 1232 -45 1232 -45 1192.5 -45 c 128,-1,28
 1153 -45 1153 -45 1127.5 -35 c 128,-1,29
 1102 -25 1102 -25 1074 5.5 c 128,-1,30
 1046 36 1046 36 1026 84 c 0,31,32
 979 196.8 979 196.8 979 366.9 c 128,-1,33
 979 537 979 537 992.5 635 c 128,-1,34
 1006 733 1006 733 1042 828.5 c 0,35,36
 1095.37234975 970.084983354 1095.37234975 970.084983354 1179.68617487 1106.54249168 c 128,-1,37
 1264 1243 1264 1243 1323.5 1314 c 128,-1,38
 1383 1385 1383 1385 1455 1458.5 c 0,39,40
 1630.83673469 1638 1630.83673469 1638 1724 1638 c 0,41,42
 1827.02702703 1638 1827.02702703 1638 1901 1477 c 0,43,44
 1919.84337349 1435.98795181 1919.84337349 1435.98795181 1933 1389 c 1,45,-1
 1974 1618 l 2,46,47
 1986 1688 1986 1688 2068 1688 c 2,48,-1
 2109 1688 l 2,49,50
 2156 1688 2156 1688 2169.5 1679.5 c 128,-1,51
 2183 1671 2183 1671 2183 1650 c 128,-1,52
 2183 1629 2183 1629 2147.5 1400 c 0,53,54
 2040 706.549295775 2040 706.549295775 2040 527.774647887 c 128,-1,55
 2040 349 2040 349 2083 295.5 c 128,-1,56
 2126 242 2126 242 2213 242 c 128,-1,57
 2300 242 2300 242 2363.5 264.5 c 128,-1,58
 2427 287 2427 287 2493 331.5 c 128,-1,59
 2559 376 2559 376 2617.5 451 c 128,-1,60
 2676 526 2676 526 2722 622.5 c 0,61,62
 2822 832.282608696 2822 832.282608696 2822 1147 c 0,63,64
 2822 1558.04878049 2822 1558.04878049 2578 1808 c 0,65,66
 2307.5952381 2085 2307.5952381 2085 1757 2085 c 0,67,68
 1219.39336493 2085 1219.39336493 2085 877.5 1736.5 c 0,69,70
 592.749503441 1446.24707839 592.749503441 1446.24707839 517.5 1003.5 c 0,71,72
 496 877 496 877 496 714 c 128,-1,73
 496 551 496 551 537.5 372 c 128,-1,74
 579 193 579 193 669.5 39 c 128,-1,75
 760 -115 760 -115 892.5 -226 c 0,76,77
 1175.40540541 -463 1175.40540541 -463 1647 -463 c 0,78,79
 1995 -463 1995 -463 2296 -336.5 c 128,-1,80
 2597 -210 2597 -210 2798 16 c 1,81,-1
 2847 -29 l 1,82,83
 2676 -296 2676 -296 2332 -457 c 128,-1,84
 1988 -618 1988 -618 1569 -618 c 0,85,86
 783.660818713 -618 783.660818713 -618 432 -56 c 0,87,88
 225 274.813084112 225 274.813084112 225 693 c 0,0,1
1220 795 m 128,-1,90
 1188 659 1188 659 1188 534 c 128,-1,91
 1188 409 1188 409 1237.5 325.5 c 128,-1,92
 1287 242 1287 242 1341.5 242 c 128,-1,93
 1396 242 1396 242 1490.5 356 c 128,-1,94
 1585 470 1585 470 1670 622.5 c 128,-1,95
 1755 775 1755 775 1817.5 937 c 128,-1,96
 1880 1099 1880 1099 1880 1173.5 c 128,-1,97
 1880 1248 1880 1248 1834.5 1312 c 128,-1,98
 1789 1376 1789 1376 1730.5 1415 c 128,-1,99
 1672 1454 1672 1454 1630 1454 c 128,-1,100
 1588 1454 1588 1454 1529.5 1400.5 c 128,-1,101
 1471 1347 1471 1347 1412.5 1253 c 128,-1,102
 1354 1159 1354 1159 1303 1045 c 128,-1,89
 1252 931 1252 931 1220 795 c 128,-1,90
EndSplineSet
EndChar

StartChar: A
Encoding: 65 65 36
Width: 2682
GlyphClass: 2
Flags: HW
LayerCount: 2
Fore
SplineSet
82 0 m 1,0,-1
 82 131 l 1,1,-1
 147 131 l 2,2,3
 232.813953488 131 232.813953488 131 270.406976744 157.5 c 0,4,5
 329.269736842 198.993421053 329.269736842 198.993421053 397 348 c 1,6,-1
 1548 2798 l 1,7,-1
 1622 2798 l 1,8,-1
 2200 471 l 2,9,10
 2260.6 228.6 2260.6 228.6 2283.8 193.8 c 128,-1,11
 2307 159 2307 159 2332 146 c 0,12,13
 2360.84615385 131 2360.84615385 131 2441 131 c 2,14,-1
 2560 131 l 1,15,-1
 2560 0 l 1,16,-1
 1606 0 l 1,17,-1
 1606 131 l 1,18,-1
 1724 131 l 2,19,20
 1849 131 1849 131 1891 144 c 128,-1,21
 1933 157 1933 157 1933 197.5 c 128,-1,22
 1933 238 1933 238 1921 287 c 2,23,-1
 1741 1053 l 1,24,-1
 926 1053 l 1,25,-1
 606 360 l 1,26,27
 549 232 549 232 549 201 c 0,28,29
 549 157 549 157 600 144 c 128,-1,30
 651 131 651 131 807 131 c 2,31,-1
 885 131 l 1,32,-1
 877 0 l 1,33,-1
 82 0 l 1,0,-1
991 1212 m 1,34,-1
 1704 1212 l 1,35,-1
 1446 2245 l 1,36,-1
 991 1212 l 1,34,-1
EndSplineSet
Substitution2: "'swsh' Swash in Latin lookup 13 subtable" A.001
AlternateSubs2: "'aalt' Access All Alternates in Latin lookup 1 subtable" A.001
AlternateSubs2: "'aalt' Access All Alternates lookup 0 subtable" A.001
Position2: "'cpsp' Capital Spacing in Latin lookup 0 subtable" dx=33 dy=0 dh=66 dv=0
EndChar

StartChar: B
Encoding: 66 66 37
Width: 2277
GlyphClass: 2
Flags: HW
LayerCount: 2
Fore
SplineSet
61 0 m 1,0,-1
 66 131 l 1,1,-1
 197 131 l 2,2,3
 304 131 304 131 331.5 150 c 128,-1,4
 359 169 359 169 365 254 c 0,5,6
 447 1426 447 1426 485.5 1974.5 c 128,-1,7
 524 2523 524 2523 524 2551.5 c 128,-1,8
 524 2580 524 2580 488 2590.5 c 128,-1,9
 452 2601 452 2601 324 2601 c 2,10,-1
 143 2601 l 1,11,-1
 143 2732 l 1,12,-1
 1196 2732 l 2,13,14
 1794.80327869 2732 1794.80327869 2732 1963 2352 c 0,15,16
 2011 2243.55555556 2011 2243.55555556 2011 2140.27777778 c 128,-1,17
 2011 2037 2011 2037 1991 1960.5 c 128,-1,18
 1971 1884 1971 1884 1936.5 1829 c 128,-1,19
 1902 1774 1902 1774 1858 1728.5 c 128,-1,20
 1814 1683 1814 1683 1765 1654 c 128,-1,21
 1716 1625 1716 1625 1667 1602.5 c 128,-1,22
 1618 1580 1618 1580 1574 1568.5 c 0,23,24
 1492.1971831 1547.11971831 1492.1971831 1547.11971831 1421 1540 c 1,25,26
 1620.02661597 1517.88593156 1620.02661597 1517.88593156 1813 1388 c 0,27,28
 2093 1199.53846154 2093 1199.53846154 2093 868 c 0,29,30
 2093 567.893617021 2093 567.893617021 1888 328 c 1,31,32
 1651.49050906 48.488783434 1651.49050906 48.488783434 1180.5 11.5 c 0,33,34
 1034.06666667 -4.4408920985e-15 1034.06666667 -4.4408920985e-15 823 0 c 2,35,-1
 61 0 l 1,0,-1
655 258 m 2,36,37
 655 194 655 194 689 162.5 c 128,-1,38
 723 131 723 131 838.5 131 c 128,-1,39
 954 131 954 131 1073.5 151.5 c 128,-1,40
 1193 172 1193 172 1279.5 205.5 c 128,-1,41
 1366 239 1366 239 1437 287.5 c 128,-1,42
 1508 336 1508 336 1554 386.5 c 128,-1,43
 1600 437 1600 437 1634.5 496.5 c 128,-1,44
 1669 556 1669 556 1687 606 c 128,-1,45
 1705 656 1705 656 1716 710.5 c 0,46,47
 1733 794.727272727 1733 794.727272727 1733 911.863636364 c 128,-1,48
 1733 1029 1733 1029 1665.5 1147.5 c 128,-1,49
 1598 1266 1598 1266 1463.5 1343 c 0,50,51
 1184.01948052 1503 1184.01948052 1503 737 1503 c 1,52,-1
 655 283 l 1,53,-1
 655 258 l 2,36,37
745 1606 m 1,54,55
 851 1606 851 1606 1049 1593 c 1,56,-1
 1098 1593 l 2,57,58
 1336.45454545 1593 1336.45454545 1593 1508 1722.5 c 0,59,60
 1679 1851.58823529 1679 1851.58823529 1679 2073 c 0,61,62
 1679 2630 1679 2630 946 2630 c 0,63,64
 817.292682927 2630 817.292682927 2630 811 2544 c 2,65,-1
 745 1606 l 1,54,55
EndSplineSet
Substitution2: "'swsh' Swash in Latin lookup 13 subtable" B.001
AlternateSubs2: "'aalt' Access All Alternates in Latin lookup 1 subtable" B.001
AlternateSubs2: "'aalt' Access All Alternates lookup 0 subtable" B.001
Position2: "'cpsp' Capital Spacing in Latin lookup 0 subtable" dx=33 dy=0 dh=66 dv=0
EndChar

StartChar: C
Encoding: 67 67 38
Width: 2805
GlyphClass: 2
Flags: HW
LayerCount: 2
Fore
SplineSet
184 1149 m 0,0,1
 184 1319 184 1319 206.5 1463 c 128,-1,2
 229 1607 229 1607 273.5 1748.5 c 128,-1,3
 318 1890 318 1890 387 2021 c 128,-1,4
 456 2152 456 2152 545 2268.5 c 128,-1,5
 634 2385 634 2385 750.5 2481 c 128,-1,6
 867 2577 867 2577 1001.5 2646.5 c 0,7,8
 1285.01438849 2793 1285.01438849 2793 1647 2793 c 0,9,10
 1878 2793 1878 2793 2080 2733.5 c 128,-1,11
 2282 2674 2282 2674 2400.5 2575 c 128,-1,12
 2519 2476 2519 2476 2519 2363 c 0,13,14
 2519 2318.76470588 2519 2318.76470588 2492.5 2242.38235294 c 0,15,16
 2440.67346939 2093 2440.67346939 2093 2367 2093 c 0,17,18
 2301.69230769 2093 2301.69230769 2093 2271 2226 c 0,19,20
 2249.71428571 2318.23809524 2249.71428571 2318.23809524 2236.35714286 2365.11904762 c 128,-1,21
 2223 2412 2223 2412 2179.5 2460.5 c 128,-1,22
 2136 2509 2136 2509 2065 2555.5 c 0,23,24
 1902.38709677 2662 1902.38709677 2662 1642 2662 c 0,25,26
 1367.56774194 2662 1367.56774194 2662 1105 2500.5 c 0,27,28
 850.27628681 2343.82470022 850.27628681 2343.82470022 683 2037.5 c 0,29,30
 512 1724.35625 512 1724.35625 512 1307 c 0,31,32
 512 1038 512 1038 587.5 809.5 c 128,-1,33
 663 581 663 581 792.5 426.5 c 0,34,35
 1067.84466019 98 1067.84466019 98 1466 98 c 0,36,37
 1753.34146341 98 1753.34146341 98 2007 258 c 0,38,39
 2145 346 2145 346 2184.5 395 c 128,-1,40
 2224 444 2224 444 2263.5 532.5 c 128,-1,41
 2303 621 2303 621 2306 627 c 1,42,-1
 2396 627 l 1,43,44
 2372 495 2372 495 2322 262 c 0,45,46
 2313 224 2313 224 2286.5 199.5 c 128,-1,47
 2260 175 2260 175 2151.5 115 c 0,48,49
 1862.16666667 -45 1862.16666667 -45 1442 -45 c 0,50,51
 690.658146965 -45 690.658146965 -45 369.5 470.5 c 0,52,53
 184 768.251282051 184 768.251282051 184 1149 c 0,0,1
EndSplineSet
Substitution2: "'swsh' Swash in Latin lookup 13 subtable" C.001
AlternateSubs2: "'aalt' Access All Alternates in Latin lookup 1 subtable" C.001
AlternateSubs2: "'aalt' Access All Alternates lookup 0 subtable" C.001
Position2: "'cpsp' Capital Spacing in Latin lookup 0 subtable" dx=33 dy=0 dh=66 dv=0
EndChar

StartChar: D
Encoding: 68 68 39
Width: 2985
GlyphClass: 2
Flags: HW
LayerCount: 2
Fore
SplineSet
90 0 m 1,0,-1
 98 131 l 1,1,-1
 172 131 l 2,2,3
 277 131 277 131 301.5 149.5 c 128,-1,4
 326 168 326 168 332 254 c 0,5,6
 439 1616 439 1616 474 2050 c 0,7,8
 512 2521.2 512 2521.2 512 2551.1 c 128,-1,9
 512 2581 512 2581 482 2591 c 128,-1,10
 452 2601 452 2601 328 2601 c 2,11,-1
 156 2601 l 1,12,-1
 164 2732 l 1,13,-1
 1253 2732 l 2,14,15
 1826 2732 1826 2732 2105 2623.5 c 0,16,17
 2258 2564 2258 2564 2362.5 2477 c 128,-1,18
 2467 2390 2467 2390 2564 2253 c 0,19,20
 2781 1944 2781 1944 2781 1528 c 0,21,22
 2781 1238 2781 1238 2668.5 954 c 0,23,24
 2497.55734457 522.464763176 2497.55734457 522.464763176 2121.5 261 c 0,25,26
 1746.11111111 -7.1054273576e-15 1746.11111111 -7.1054273576e-15 1151 0 c 2,27,-1
 90 0 l 1,0,-1
646.5 488.5 m 128,-1,29
 635 320 635 320 635 282 c 128,-1,30
 635 244 635 244 637 225.5 c 128,-1,31
 639 207 639 207 647 191.5 c 128,-1,32
 655 176 655 176 663 166.5 c 128,-1,33
 671 157 671 157 691 150 c 128,-1,34
 711 143 711 143 728 139.5 c 128,-1,35
 745 136 745 136 780.5 134 c 0,36,37
 833.75 131 833.75 131 930 131 c 2,38,-1
 1196 131 l 2,39,40
 1781.49107143 131 1781.49107143 131 2113.5 501 c 0,41,42
 2454 880.462686567 2454 880.462686567 2454 1470 c 0,43,44
 2454 1995.39664804 2454 1995.39664804 2149.5 2305 c 0,45,46
 1858.37912088 2601 1858.37912088 2601 1331 2601 c 2,47,-1
 922 2601 l 2,48,49
 854 2601 854 2601 834 2591.5 c 128,-1,50
 814 2582 814 2582 807.5 2502 c 128,-1,51
 801 2422 801 2422 770.5 2052.5 c 128,-1,52
 740 1683 740 1683 721.5 1458.5 c 128,-1,53
 703 1234 703 1234 680.5 945.5 c 128,-1,28
 658 657 658 657 646.5 488.5 c 128,-1,29
EndSplineSet
Substitution2: "'swsh' Swash in Latin lookup 13 subtable" D.001
AlternateSubs2: "'aalt' Access All Alternates in Latin lookup 1 subtable" D.001
AlternateSubs2: "'aalt' Access All Alternates lookup 0 subtable" D.001
Position2: "'cpsp' Capital Spacing in Latin lookup 0 subtable" dx=33 dy=0 dh=66 dv=0
EndChar

StartChar: E
Encoding: 69 69 40
Width: 2240
GlyphClass: 2
Flags: HW
LayerCount: 2
Fore
SplineSet
66 0 m 1,0,-1
 74 131 l 1,1,-1
 168 131 l 2,2,3
 272.851851852 131 272.851851852 131 298.925925926 147 c 0,4,5
 334.539295393 168.853658537 334.539295393 168.853658537 344 254 c 1,6,7
 489 1871 489 1871 521 2199 c 128,-1,8
 553 2527 553 2527 553 2554 c 128,-1,9
 553 2581 553 2581 528 2591 c 128,-1,10
 503 2601 503 2601 426 2601 c 2,11,-1
 201 2601 l 1,12,-1
 201 2732 l 1,13,-1
 2036 2732 l 1,14,-1
 2036 2236 l 1,15,-1
 1946 2232 l 1,16,-1
 1942 2445 l 2,17,18
 1940.15675206 2516.88666956 1940.15675206 2516.88666956 1903.57837603 2539.44333478 c 128,-1,19
 1867 2562 1867 2562 1814.5 2569.5 c 128,-1,20
 1762 2577 1762 2577 1663 2583.5 c 0,21,22
 1524.86919431 2592.56919431 1524.86919431 2592.56919431 1257.43459716 2596.28459716 c 128,-1,23
 990 2600 990 2600 932 2600.5 c 128,-1,24
 874 2601 874 2601 854 2591.5 c 128,-1,25
 834 2582 834 2582 831 2544 c 2,26,-1
 750 1630 l 1,27,-1
 1487 1630 l 2,28,29
 1573 1630 1573 1630 1595 1647 c 128,-1,30
 1617 1664 1617 1664 1626 1737 c 1,31,-1
 1647 1937 l 1,32,-1
 1737 1933 l 1,33,-1
 1671 1094 l 1,34,-1
 1573 1098 l 1,35,36
 1593 1374 1593 1374 1593 1402.5 c 0,37,38
 1593 1470 1593 1470 1466 1470 c 2,39,-1
 733 1470 l 1,40,-1
 639 381 l 1,41,42
 631 275 631 275 631 242.5 c 128,-1,43
 631 210 631 210 649.5 199 c 128,-1,44
 668 188 668 188 729 188 c 2,45,-1
 791 188 l 2,46,47
 1681.38461538 188 1681.38461538 188 1788 237.5 c 0,48,49
 1854.03149606 268.157480315 1854.03149606 268.157480315 1925 623 c 1,50,-1
 2028 602 l 1,51,-1
 1888 0 l 1,52,-1
 66 0 l 1,0,-1
EndSplineSet
Substitution2: "'swsh' Swash in Latin lookup 13 subtable" E.001
AlternateSubs2: "'aalt' Access All Alternates in Latin lookup 1 subtable" E.001
AlternateSubs2: "'aalt' Access All Alternates lookup 0 subtable" E.001
Position2: "'cpsp' Capital Spacing in Latin lookup 0 subtable" dx=33 dy=0 dh=66 dv=0
EndChar

StartChar: F
Encoding: 70 70 41
Width: 2224
GlyphClass: 2
Flags: HW
LayerCount: 2
Fore
SplineSet
664 229 m 0,0,1
 664 131 664 131 762 131 c 2,2,-1
 1032 131 l 1,3,-1
 1024 0 l 1,4,-1
 78 0 l 1,5,-1
 86 131 l 1,6,-1
 201 131 l 2,7,8
 308 131 308 131 335.5 150 c 128,-1,9
 363 169 363 169 369 254 c 1,10,11
 433 1025 433 1025 486.5 1655 c 0,12,13
 557 2485.18691589 557 2485.18691589 557 2533.09345794 c 128,-1,14
 557 2581 557 2581 532 2591 c 128,-1,15
 507 2601 507 2601 430 2601 c 2,16,-1
 205 2601 l 1,17,-1
 205 2732 l 1,18,-1
 2101 2732 l 1,19,-1
 2101 2212 l 1,20,-1
 1978 2208 l 1,21,-1
 1978 2445 l 2,22,23
 1978 2508 1978 2508 1939.5 2539 c 128,-1,24
 1901 2570 1901 2570 1745.5 2580 c 128,-1,25
 1590 2590 1590 2590 1237 2595.5 c 128,-1,26
 884 2601 884 2601 863.5 2592.5 c 128,-1,27
 843 2584 843 2584 840 2544 c 2,28,-1
 766 1630 l 1,29,-1
 1520 1630 l 2,30,31
 1598 1630 1598 1630 1613 1640 c 128,-1,32
 1628 1650 1628 1650 1634 1666.5 c 128,-1,33
 1640.05 1683.1375 1640.05 1683.1375 1647 1737 c 1,34,-1
 1667 1937 l 1,35,-1
 1769 1933 l 1,36,-1
 1704 1069 l 1,37,-1
 1597 1069 l 1,38,39
 1618 1359 1618 1359 1618 1395.5 c 0,40,41
 1618 1470 1618 1470 1499 1470 c 2,42,-1
 754 1470 l 1,43,-1
 672 381 l 2,44,45
 664 275 664 275 664 229 c 0,0,1
EndSplineSet
Position2: "'cpsp' Capital Spacing in Latin lookup 0 subtable" dx=33 dy=0 dh=66 dv=0
EndChar

StartChar: G
Encoding: 71 71 42
Width: 2936
GlyphClass: 2
Flags: HW
LayerCount: 2
Fore
SplineSet
229 849.5 m 128,-1,1
 184 1037 184 1037 184 1236 c 128,-1,2
 184 1435 184 1435 228.5 1622 c 128,-1,3
 273 1809 273 1809 358 1982.5 c 128,-1,4
 443 2156 443 2156 574.5 2304.5 c 128,-1,5
 706 2453 706 2453 870.5 2563 c 0,6,7
 1221.93181818 2798 1221.93181818 2798 1704 2798 c 0,8,9
 1817 2798 1817 2798 2014.5 2755.5 c 128,-1,10
 2212 2713 2212 2713 2309 2658.5 c 128,-1,11
 2406 2604 2406 2604 2436.5 2583.5 c 128,-1,12
 2467 2563 2467 2563 2484 2536.5 c 0,13,14
 2507 2500.64705882 2507 2500.64705882 2507 2417 c 2,15,-1
 2507 2376 l 2,16,17
 2507 2243 2507 2243 2491 2035 c 2,18,-1
 2486 1970 l 1,19,-1
 2404 1966 l 1,20,21
 2389.61852861 2152.95912807 2389.61852861 2152.95912807 2339.30926431 2247.47956403 c 128,-1,22
 2289 2342 2289 2342 2243.5 2400 c 0,23,24
 2140.25110745 2531.61397291 2140.25110745 2531.61397291 1950.62555373 2596.80698646 c 128,-1,25
 1761 2662 1761 2662 1604 2662 c 128,-1,26
 1447 2662 1447 2662 1292 2607.5 c 128,-1,27
 1137 2553 1137 2553 1017.5 2458.5 c 128,-1,28
 898 2364 898 2364 801 2238 c 128,-1,29
 704 2112 704 2112 641.5 1967.5 c 0,30,31
 512 1668.096 512 1668.096 512 1414.548 c 128,-1,32
 512 1161 512 1161 546.5 983.5 c 128,-1,33
 581 806 581 806 639.5 677.5 c 128,-1,34
 698 549 698 549 779 446 c 128,-1,35
 860 343 860 343 948.5 278 c 128,-1,36
 1037 213 1037 213 1136.5 169.5 c 0,37,38
 1318.34482759 90 1318.34482759 90 1545.17241379 90 c 128,-1,39
 1772 90 1772 90 1941.5 214.5 c 128,-1,40
 2111 339 2111 339 2130 557 c 1,41,-1
 2175 1143 l 1,42,-1
 1667 1143 l 1,43,-1
 1675 1274 l 1,44,-1
 2691 1274 l 1,45,-1
 2683 1143 l 1,46,-1
 2454 1143 l 1,47,-1
 2363 -4 l 1,48,-1
 2290 0 l 1,49,50
 2263.45231846 155.967629046 2263.45231846 155.967629046 2207 165 c 0,51,52
 2182 169 2182 169 2143.5 142.5 c 128,-1,53
 2105 116 2105 116 2067 93.5 c 128,-1,54
 2029 71 2029 71 1957 37 c 128,-1,55
 1885 3 1885 3 1823.5 -14 c 0,56,57
 1667.94117647 -57 1667.94117647 -57 1438.47058824 -57 c 128,-1,58
 1209 -57 1209 -57 989.5 14 c 128,-1,59
 770 85 770 85 622 206.5 c 128,-1,60
 474 328 474 328 374 495 c 128,-1,0
 274 662 274 662 229 849.5 c 128,-1,1
EndSplineSet
Substitution2: "'swsh' Swash in Latin lookup 13 subtable" G.001
AlternateSubs2: "'aalt' Access All Alternates in Latin lookup 1 subtable" G.001
AlternateSubs2: "'aalt' Access All Alternates lookup 0 subtable" G.001
Position2: "'cpsp' Capital Spacing in Latin lookup 0 subtable" dx=33 dy=0 dh=66 dv=0
EndChar

StartChar: H
Encoding: 72 72 43
Width: 2887
GlyphClass: 2
Flags: HW
LayerCount: 2
Fore
SplineSet
2154 1606 m 1,0,-1
 2220 2494 l 1,1,2
 2220 2567.17647059 2220 2567.17647059 2200.5 2582.08823529 c 0,3,4
 2175.76923077 2601 2175.76923077 2601 2073 2601 c 2,5,-1
 1901 2601 l 1,6,-1
 1901 2732 l 1,7,-1
 2806 2732 l 1,8,-1
 2802 2601 l 1,9,10
 2740.25 2601 2740.25 2601 2700.625 2601 c 128,-1,11
 2661 2601 2661 2601 2633 2599.5 c 128,-1,12
 2605 2598 2605 2598 2595 2597 c 128,-1,13
 2585 2596 2585 2596 2567.5 2591 c 128,-1,14
 2550 2586 2550 2586 2545 2582 c 128,-1,15
 2540 2578 2540 2578 2530.5 2568 c 128,-1,16
 2521 2558 2521 2558 2519 2549 c 128,-1,17
 2517 2540 2517 2540 2512.5 2523 c 0,18,19
 2507.36942675 2503.61783439 2507.36942675 2503.61783439 2503 2449 c 2,20,-1
 2351 336 l 2,21,22
 2347 291 2347 291 2347 252.5 c 128,-1,23
 2347 214 2347 214 2347.5 202.5 c 128,-1,24
 2348 191 2348 191 2352 181 c 128,-1,25
 2356 171 2356 171 2358 164.5 c 128,-1,26
 2360 158 2360 158 2369 152.5 c 128,-1,27
 2378 147 2378 147 2383 143.5 c 128,-1,28
 2388 140 2388 140 2403 137.5 c 0,29,30
 2442 131 2442 131 2475.5 131 c 2,31,-1
 2540 131 l 1,32,-1
 2687 131 l 1,33,-1
 2687 0 l 1,34,-1
 1704 0 l 1,35,-1
 1712 131 l 1,36,-1
 1880 131 l 2,37,38
 1999 131 1999 131 2017 149 c 128,-1,39
 2035 167 2035 167 2043 192.5 c 0,40,41
 2054.63523957 229.587326121 2054.63523957 229.587326121 2060 319 c 1,42,-1
 2142 1446 l 1,43,-1
 741 1446 l 1,44,-1
 668 373 l 2,45,46
 666 337 666 337 662.5 301 c 128,-1,47
 659 265 659 265 659 243.5 c 128,-1,48
 659 222 659 222 662 204.5 c 128,-1,49
 665 187 665 187 670 174.5 c 128,-1,50
 675 162 675 162 687.5 154 c 128,-1,51
 700 146 700 146 711.5 141 c 128,-1,52
 723 136 723 136 746.5 134 c 0,53,54
 781.75 131 781.75 131 848 131 c 2,55,-1
 1024 131 l 1,56,-1
 1024 0 l 1,57,-1
 82 0 l 1,58,-1
 90 131 l 1,59,-1
 225 131 l 2,60,61
 321.352941176 131 321.352941176 131 336.176470588 149 c 128,-1,62
 351 167 351 167 358 193 c 0,63,64
 367.709677419 229.064516129 367.709677419 229.064516129 373 319 c 1,65,-1
 532 2494 l 1,66,67
 532 2567.17647059 532 2567.17647059 512.5 2582.08823529 c 0,68,69
 487.769230769 2601 487.769230769 2601 385 2601 c 2,70,-1
 197 2601 l 1,71,-1
 201 2732 l 1,72,-1
 1135 2732 l 1,73,-1
 1130 2601 l 1,74,75
 1056.25 2601 1056.25 2601 1010.625 2601 c 128,-1,76
 965 2601 965 2601 938 2599.5 c 128,-1,77
 911 2598 911 2598 901.5 2597 c 128,-1,78
 892 2596 892 2596 874.5 2591 c 128,-1,79
 857 2586 857 2586 853 2582.5 c 128,-1,80
 849 2579 849 2579 839.5 2568 c 128,-1,81
 830 2557 830 2557 829 2549 c 128,-1,82
 828 2541 828 2541 823.5 2523 c 128,-1,83
 819 2505 819 2505 818 2490.5 c 128,-1,84
 817 2476 817 2476 815 2449 c 2,85,-1
 754 1606 l 1,86,-1
 2154 1606 l 1,0,-1
EndSplineSet
Position2: "'cpsp' Capital Spacing in Latin lookup 0 subtable" dx=33 dy=0 dh=66 dv=0
EndChar

StartChar: I
Encoding: 73 73 44
Width: 1249
GlyphClass: 2
Flags: HW
LayerCount: 2
Fore
SplineSet
86 0 m 1,0,-1
 90 131 l 1,1,-1
 180 131 l 2,2,3
 307 131 307 131 326 150 c 128,-1,4
 345 169 345 169 355 192.5 c 0,5,6
 369.248704663 225.984455959 369.248704663 225.984455959 377 319 c 1,7,-1
 586 2441 l 2,8,9
 590 2474 590 2474 590 2525 c 128,-1,10
 590 2576 590 2576 563 2588.5 c 128,-1,11
 536 2601 536 2601 442 2601 c 2,12,-1
 250 2601 l 1,13,-1
 254 2732 l 1,14,-1
 1171 2732 l 1,15,-1
 1163 2601 l 1,16,17
 1109 2601 1109 2601 1073 2601 c 128,-1,18
 1037 2601 1037 2601 1009 2599.5 c 128,-1,19
 981 2598 981 2598 970.5 2597 c 128,-1,20
 960 2596 960 2596 942 2591.5 c 128,-1,21
 924 2587 924 2587 919 2582.5 c 128,-1,22
 914 2578 914 2578 903.5 2568 c 128,-1,23
 893 2558 893 2558 890.5 2549 c 128,-1,24
 888 2540 888 2540 883 2523 c 128,-1,25
 878 2506 878 2506 876.5 2490 c 128,-1,26
 875 2474 875 2474 872 2449 c 2,27,-1
 664 336 l 2,28,29
 655 235 655 235 655 219.5 c 128,-1,30
 655 204 655 204 657 189 c 128,-1,31
 659 174 659 174 669 162 c 128,-1,32
 679 150 679 150 690.5 144.5 c 128,-1,33
 702 139 702 139 731 135.5 c 0,34,35
 768.285714286 131 768.285714286 131 872 131 c 2,36,-1
 1044 131 l 1,37,-1
 1040 0 l 1,38,-1
 86 0 l 1,0,-1
EndSplineSet
Position2: "'cpsp' Capital Spacing in Latin lookup 0 subtable" dx=33 dy=0 dh=66 dv=0
EndChar

StartChar: J
Encoding: 74 74 45
Width: 1331
GlyphClass: 2
Flags: HW
LayerCount: 2
Fore
SplineSet
-328.5 -999.5 m 128,-1,1
 -426 -922 -426 -922 -426 -803.5 c 128,-1,2
 -426 -685 -426 -685 -366.5 -617 c 128,-1,3
 -307 -549 -307 -549 -238 -549 c 0,4,5
 -198.2 -549 -198.2 -549 -182.6 -562 c 128,-1,6
 -167 -575 -167 -575 -161.5 -579 c 128,-1,7
 -156 -583 -156 -583 -148.5 -595 c 128,-1,8
 -141 -607 -141 -607 -137.5 -612 c 128,-1,9
 -134 -617 -134 -617 -127.5 -632 c 128,-1,10
 -121 -647 -121 -647 -119 -651.5 c 128,-1,11
 -117 -656 -117 -656 -110.5 -674 c 128,-1,12
 -104 -692 -104 -692 -81.5 -743.5 c 0,13,14
 -21.427184466 -881 -21.427184466 -881 90 -881 c 0,15,16
 204.75 -881 204.75 -881 279 -782 c 0,17,18
 308 -744 308 -744 321.5 -692 c 128,-1,19
 335 -640 335 -640 382 -327 c 128,-1,20
 429 -14 429 -14 459 336 c 1,21,-1
 659 2441 l 1,22,23
 664 2482 664 2482 664 2529 c 128,-1,24
 664 2576 664 2576 637 2588.5 c 128,-1,25
 610 2601 610 2601 516 2601 c 2,26,-1
 213 2601 l 1,27,-1
 213 2732 l 1,28,-1
 1245 2732 l 1,29,-1
 1245 2601 l 1,30,-1
 1106 2601 l 2,31,32
 1004.82352941 2601 1004.82352941 2601 988.411764706 2585.5 c 128,-1,33
 972 2570 972 2570 964 2551.5 c 0,34,35
 951.879275654 2523.47082495 951.879275654 2523.47082495 946 2449 c 1,36,-1
 680 -332 l 2,37,38
 658.920480364 -556.346316131 658.920480364 -556.346316131 618.960240182 -627.673158066 c 128,-1,39
 579 -699 579 -699 535.5 -755.5 c 128,-1,40
 492 -812 492 -812 428 -872 c 128,-1,41
 364 -932 364 -932 293 -976 c 0,42,43
 130.022727273 -1077 130.022727273 -1077 -50.4886363636 -1077 c 128,-1,0
 -231 -1077 -231 -1077 -328.5 -999.5 c 128,-1,1
EndSplineSet
Position2: "'cpsp' Capital Spacing in Latin lookup 0 subtable" dx=33 dy=0 dh=66 dv=0
EndChar

StartChar: K
Encoding: 75 75 46
Width: 2998
GlyphClass: 2
Flags: HW
LayerCount: 2
Fore
SplineSet
90 0 m 1,0,-1
 90 131 l 1,1,-1
 180 131 l 2,2,3
 307.80952381 131 307.80952381 131 325.904761905 150 c 128,-1,4
 344 169 344 169 353.5 192.5 c 0,5,6
 367.214007782 226.424124514 367.214007782 226.424124514 373 319 c 1,7,-1
 545 2441 l 1,8,9
 549 2474 549 2474 549 2525 c 128,-1,10
 549 2576 549 2576 522 2588.5 c 128,-1,11
 495 2601 495 2601 401 2601 c 2,12,-1
 250 2601 l 1,13,-1
 250 2732 l 1,14,-1
 1135 2732 l 1,15,-1
 1130 2601 l 1,16,17
 1072 2601 1072 2601 1034 2601 c 128,-1,18
 996 2601 996 2601 967.5 2599.5 c 128,-1,19
 939 2598 939 2598 928.5 2597 c 128,-1,20
 918 2596 918 2596 899.5 2591.5 c 128,-1,21
 881 2587 881 2587 876 2582.5 c 128,-1,22
 871 2578 871 2578 860.5 2568.5 c 128,-1,23
 850 2559 850 2559 848 2549 c 128,-1,24
 846 2539 846 2539 841 2523 c 0,25,26
 835.516129032 2505.4516129 835.516129032 2505.4516129 831 2449 c 2,27,-1
 737 1286 l 1,28,-1
 2175 2433 l 2,29,30
 2200.81481481 2454.25925926 2200.81481481 2454.25925926 2230.90740741 2477.12962963 c 128,-1,31
 2261 2500 2261 2500 2276 2512 c 128,-1,32
 2291 2524 2291 2524 2298.5 2531.5 c 128,-1,33
 2306 2539 2306 2539 2313.5 2547 c 0,34,35
 2327 2561.4 2327 2561.4 2327 2572 c 0,36,37
 2327 2601 2327 2601 2212 2601 c 2,38,-1
 2085 2601 l 1,39,-1
 2085 2732 l 1,40,-1
 2978 2732 l 1,41,-1
 2970 2601 l 1,42,-1
 2798 2601 l 2,43,44
 2704.66666667 2601 2704.66666667 2601 2653.33333333 2576.5 c 128,-1,45
 2602 2552 2602 2552 2557 2521 c 0,46,47
 2462.12048193 2455.63855422 2462.12048193 2455.63855422 2306 2335 c 2,48,-1
 1278 1540 l 1,49,50
 2301 131 2301 131 2576 131 c 2,51,-1
 2802 131 l 1,52,-1
 2793 0 l 1,53,-1
 2089 0 l 1,54,55
 1639 531 1639 531 1053 1372 c 1,56,-1
 725 1122 l 1,57,-1
 659 336 l 2,58,59
 655 291 655 291 655 247.5 c 128,-1,60
 655 204 655 204 657 189 c 128,-1,61
 659 174 659 174 669 162 c 128,-1,62
 679 150 679 150 690.5 144.5 c 128,-1,63
 702 139 702 139 731 135.5 c 0,64,65
 768.285714286 131 768.285714286 131 872 131 c 2,66,-1
 1044 131 l 1,67,-1
 1044 0 l 1,68,-1
 90 0 l 1,0,-1
EndSplineSet
Position2: "'cpsp' Capital Spacing in Latin lookup 0 subtable" dx=33 dy=0 dh=66 dv=0
EndChar

StartChar: L
Encoding: 76 76 47
Width: 2183
GlyphClass: 2
Flags: HW
LayerCount: 2
Fore
SplineSet
2060 582 m 1,0,-1
 1896 0 l 1,1,-1
 82 0 l 1,2,-1
 86 131 l 1,3,-1
 205 131 l 2,4,5
 312 131 312 131 339.5 150 c 128,-1,6
 367 169 367 169 373 254 c 0,7,8
 532 2504 532 2504 532 2537 c 0,9,10
 532 2601 532 2601 373 2601 c 2,11,-1
 172 2601 l 1,12,-1
 180 2732 l 1,13,-1
 1143 2732 l 1,14,-1
 1143 2601 l 1,15,-1
 954 2601 l 2,16,17
 856.14893617 2601 856.14893617 2601 838.574468085 2571.5 c 0,18,19
 817.867132867 2536.74125874 817.867132867 2536.74125874 814.933566434 2484.87062937 c 128,-1,20
 812 2433 812 2433 738 1351.5 c 128,-1,21
 664 270 664 270 664 234.5 c 0,22,23
 664 160 664 160 848 160 c 128,-1,24
 1032 160 1032 160 1385 189.5 c 128,-1,25
 1738 219 1738 219 1785.5 235 c 128,-1,26
 1833 251 1833 251 1853 294 c 128,-1,27
 1873 337 1873 337 1908 455 c 128,-1,28
 1943 573 1943 573 1954 610 c 1,29,-1
 2060 582 l 1,0,-1
EndSplineSet
Substitution2: "'locl' Localized Forms in Latin lookup 2 subtable" L.CAT
AlternateSubs2: "'aalt' Access All Alternates in Latin lookup 1 subtable" L.CAT
Position2: "'cpsp' Capital Spacing in Latin lookup 0 subtable" dx=33 dy=0 dh=66 dv=0
EndChar

StartChar: M
Encoding: 77 77 48
Width: 3379
GlyphClass: 2
Flags: HW
LayerCount: 2
Fore
SplineSet
2999 2305 m 1,0,-1
 2998 2290 l 1,1,2
 2879 308 2879 308 2879 269 c 128,-1,3
 2879 230 2879 230 2886.5 202.5 c 128,-1,4
 2894 175 2894 175 2903 161 c 128,-1,5
 2912 147 2912 147 2932 140 c 0,6,7
 2957.71428571 131 2957.71428571 131 3006 131 c 2,8,-1
 3199 131 l 1,9,-1
 3199 0 l 1,10,-1
 2245 0 l 1,11,-1
 2253 131 l 1,12,-1
 2421 131 l 2,13,14
 2528 131 2528 131 2555.5 150 c 128,-1,15
 2583 169 2583 169 2589 254 c 2,16,-1
 2707 2236 l 1,17,-1
 1626 49 l 2,18,19
 1620 37 1620 37 1611.5 19.5 c 128,-1,20
 1603 2 1603 2 1598.5 -7 c 128,-1,21
 1594 -16 1594 -16 1587.5 -28.5 c 128,-1,22
 1581 -41 1581 -41 1576.5 -47 c 128,-1,23
 1572 -53 1572 -53 1566.5 -59 c 0,24,25
 1536.50366032 -91.7232796486 1536.50366032 -91.7232796486 1518.25183016 -62.3616398243 c 0,26,27
 1487.83908046 -13.4367816092 1487.83908046 -13.4367816092 1470 49 c 1,28,-1
 709 2208 l 1,29,30
 557 238 557 238 557 201.5 c 128,-1,31
 557 165 557 165 581.5 148 c 128,-1,32
 606 131 606 131 680 131 c 2,33,-1
 897 131 l 1,34,-1
 897 0 l 1,35,-1
 123 0 l 1,36,-1
 131 131 l 1,37,-1
 221 131 l 2,38,39
 344.055555556 131 344.055555556 131 362.527777778 148.5 c 128,-1,40
 381 166 381 166 390 189.5 c 0,41,42
 400.384615385 216.615384615 400.384615385 216.615384615 410 307 c 1,43,-1
 606 2449 l 1,44,-1
 569 2548 l 2,45,46
 557 2580 557 2580 534 2590.5 c 128,-1,47
 511 2601 511 2601 459 2601 c 2,48,-1
 131 2601 l 1,49,-1
 139 2732 l 1,50,-1
 836 2732 l 1,51,-1
 1647 410 l 1,52,-1
 2806 2732 l 1,53,-1
 3338 2732 l 1,54,-1
 3338 2601 l 1,55,-1
 3170 2601 l 2,56,57
 3085.5 2601 3085.5 2601 3056.75 2586 c 128,-1,58
 3028 2571 3028 2571 3022.5 2538.5 c 0,59,60
 2999 2399.63636364 2999 2399.63636364 2999 2305 c 1,0,-1
EndSplineSet
Substitution2: "'ss01' Style Set 1 in Latin lookup 15 subtable" M.001
AlternateSubs2: "'swsh' Swash in Latin lookup 14 subtable" M.002 M.001
AlternateSubs2: "'aalt' Access All Alternates in Latin lookup 1 subtable" M.001 M.002
AlternateSubs2: "'aalt' Access All Alternates lookup 0 subtable" M.001 M.002
Position2: "'cpsp' Capital Spacing in Latin lookup 0 subtable" dx=33 dy=0 dh=66 dv=0
EndChar

StartChar: N
Encoding: 78 78 49
Width: 3063
GlyphClass: 2
Flags: HW
LayerCount: 2
Fore
SplineSet
717 2277 m 1,0,1
 565 465.324324324 565 465.324324324 565 209 c 0,2,3
 565 134.96 565 134.96 651.5 131.5 c 0,4,5
 664 131 664 131 688 131 c 2,6,-1
 913 131 l 1,7,-1
 909 0 l 1,8,-1
 131 0 l 1,9,-1
 139 131 l 1,10,-1
 229 131 l 2,11,12
 353 131 353 131 370.5 148.5 c 128,-1,13
 388 166 388 166 396.5 189 c 0,14,15
 408.549167927 221.603630862 408.549167927 221.603630862 414 307 c 1,16,-1
 594 2413 l 1,17,18
 572 2439 572 2439 540.5 2477.5 c 128,-1,19
 509 2516 509 2516 497 2530.5 c 128,-1,20
 485 2545 485 2545 462.5 2563 c 128,-1,21
 440 2581 440 2581 429 2585.5 c 128,-1,22
 418 2590 418 2590 386.5 2595.5 c 128,-1,23
 355 2601 355 2601 329 2601 c 2,24,-1
 123 2601 l 1,25,-1
 131 2732 l 1,26,-1
 762 2732 l 1,27,-1
 2396 426 l 1,28,-1
 2540 1901 l 2,29,30
 2549 1986 2549 1986 2567 2146 c 0,31,32
 2601 2448.22222222 2601 2448.22222222 2601 2507.11111111 c 128,-1,33
 2601 2566 2601 2566 2574.5 2583.5 c 128,-1,34
 2548 2601 2548 2601 2462 2601 c 2,35,-1
 2261 2601 l 1,36,-1
 2265 2732 l 1,37,-1
 3023 2732 l 1,38,-1
 3015 2601 l 1,39,-1
 2912 2601 l 2,40,41
 2794.7826087 2601 2794.7826087 2601 2778.89130435 2579.5 c 128,-1,42
 2763 2558 2763 2558 2758 2549 c 128,-1,43
 2753 2540 2753 2540 2749 2520 c 0,44,45
 2727.96 2414.8 2727.96 2414.8 2691 1999 c 1,46,-1
 2490 29 l 1,47,48
 2482.46678636 -55.7486535009 2482.46678636 -55.7486535009 2469.23339318 -62.8743267505 c 128,-1,49
 2456 -70 2456 -70 2437 -70 c 128,-1,50
 2418 -70 2418 -70 2403.5 -59 c 128,-1,51
 2389 -48 2389 -48 2351 4 c 2,52,-1
 717 2277 l 1,0,1
EndSplineSet
Substitution2: "'ss01' Style Set 1 in Latin lookup 15 subtable" N.001
Substitution2: "'swsh' Swash in Latin lookup 13 subtable" N.001
AlternateSubs2: "'aalt' Access All Alternates in Latin lookup 1 subtable" N.001
AlternateSubs2: "'aalt' Access All Alternates lookup 0 subtable" N.001
Position2: "'cpsp' Capital Spacing in Latin lookup 0 subtable" dx=33 dy=0 dh=66 dv=0
EndChar

StartChar: O
Encoding: 79 79 50
Width: 2981
GlyphClass: 2
Flags: HW
LayerCount: 2
Fore
SplineSet
184 1219 m 0,0,1
 184 1437 184 1437 230.5 1642.5 c 128,-1,2
 277 1848 277 1848 363 2023.5 c 128,-1,3
 449 2199 449 2199 576 2345 c 128,-1,4
 703 2491 703 2491 858.5 2594 c 0,5,6
 1184.59708738 2810 1184.59708738 2810 1606 2810 c 0,7,8
 2090.74725275 2810 2090.74725275 2810 2402 2518 c 0,9,10
 2777 2166.19587629 2777 2166.19587629 2777 1540 c 0,11,12
 2777 1025.35955056 2777 1025.35955056 2501 585 c 0,13,14
 2319.65512159 295.663227708 2319.65512159 295.663227708 2021 117.5 c 0,15,16
 1713.39884393 -66 1713.39884393 -66 1315 -66 c 0,17,18
 655.389891697 -66 655.389891697 -66 346 490.5 c 0,19,20
 184 781.88961039 184 781.88961039 184 1219 c 0,0,1
520 1292 m 0,21,22
 520 1062 520 1062 568.5 859.5 c 128,-1,23
 617 657 617 657 700.5 515 c 128,-1,24
 784 373 784 373 897 274 c 0,25,26
 1116.15151515 82 1116.15151515 82 1405 82 c 0,27,28
 1659.87898089 82 1659.87898089 82 1897.5 243.5 c 0,29,30
 2132.28440367 403.072083879 2132.28440367 403.072083879 2284.5 722 c 0,31,32
 2441 1049.9047619 2441 1049.9047619 2441 1507 c 0,33,34
 2441 2174.74222222 2441 2174.74222222 2065.5 2493.5 c 0,35,36
 1846.97905759 2679 1846.97905759 2679 1561 2679 c 0,37,38
 1304.63157895 2679 1304.63157895 2679 1065.5 2523 c 0,39,40
 830.221526269 2369.5136137 830.221526269 2369.5136137 677 2061 c 0,41,42
 520 1744.87837838 520 1744.87837838 520 1292 c 0,21,22
EndSplineSet
Position2: "'cpsp' Capital Spacing in Latin lookup 0 subtable" dx=33 dy=0 dh=66 dv=0
EndChar

StartChar: P
Encoding: 80 80 51
Width: 2318
GlyphClass: 2
Flags: HW
LayerCount: 2
Fore
SplineSet
635 365 m 1,0,-1
 627 233 l 1,1,2
 627 179 627 179 646 155 c 128,-1,3
 665 131 665 131 713 131 c 2,4,-1
 1036 131 l 1,5,-1
 1028 0 l 1,6,-1
 82 0 l 1,7,-1
 82 131 l 1,8,-1
 172 131 l 2,9,10
 279 131 279 131 306.5 150 c 128,-1,11
 334 169 334 169 340 254 c 1,12,13
 447 1472 447 1472 494 1998 c 128,-1,14
 541 2524 541 2524 541 2552.5 c 128,-1,15
 541 2581 541 2581 504.5 2591 c 128,-1,16
 468 2601 468 2601 340 2601 c 2,17,-1
 221 2601 l 1,18,-1
 225 2732 l 1,19,-1
 1217 2732 l 2,20,21
 1698 2732 1698 2732 1946.5 2553 c 128,-1,22
 2195 2374 2195 2374 2195 2032 c 0,23,24
 2195 1555.64338235 2195 1555.64338235 1738 1288.5 c 0,25,26
 1460.01257862 1126 1460.01257862 1126 1110 1126 c 0,27,28
 921 1126 921 1126 759 1156 c 1,29,-1
 705 1167 l 1,30,-1
 635 365 l 1,0,-1
721 1278 m 1,31,32
 811 1257 811 1257 973.5 1257 c 128,-1,33
 1136 1257 1136 1257 1261 1286.5 c 128,-1,34
 1386 1316 1386 1316 1472.5 1364.5 c 128,-1,35
 1559 1413 1559 1413 1626.5 1478.5 c 128,-1,36
 1694 1544 1694 1544 1733.5 1610.5 c 128,-1,37
 1773 1677 1773 1677 1799 1749 c 0,38,39
 1843 1870.84615385 1843 1870.84615385 1843 1972.92307692 c 128,-1,40
 1843 2075 1843 2075 1823 2154 c 128,-1,41
 1803 2233 1803 2233 1770 2291.5 c 128,-1,42
 1737 2350 1737 2350 1687 2397 c 128,-1,43
 1637 2444 1637 2444 1584.5 2476 c 128,-1,44
 1532 2508 1532 2508 1464.5 2531.5 c 128,-1,45
 1397 2555 1397 2555 1337 2568 c 128,-1,46
 1277 2581 1277 2581 1205.5 2589 c 0,47,48
 1098.25 2601 1098.25 2601 988.625 2601 c 128,-1,49
 879 2601 879 2601 854 2586.5 c 128,-1,50
 829 2572 829 2572 823 2507 c 2,51,-1
 721 1278 l 1,31,32
EndSplineSet
Substitution2: "'swsh' Swash in Latin lookup 13 subtable" P.001
AlternateSubs2: "'aalt' Access All Alternates in Latin lookup 1 subtable" P.001
AlternateSubs2: "'aalt' Access All Alternates lookup 0 subtable" P.001
Position2: "'cpsp' Capital Spacing in Latin lookup 0 subtable" dx=33 dy=0 dh=66 dv=0
EndChar

StartChar: Q
Encoding: 81 81 52
Width: 2916
GlyphClass: 2
Flags: HW
LayerCount: 2
Fore
SplineSet
3129 -563 m 0,0,1
 3129 -610 3129 -610 3079.5 -677.5 c 128,-1,2
 3030 -745 3030 -745 2907.5 -802.5 c 128,-1,3
 2785 -860 2785 -860 2630.5 -860 c 128,-1,4
 2476 -860 2476 -860 2254 -785 c 128,-1,5
 2032 -710 2032 -710 1835 -587 c 0,6,7
 1453.45402299 -348.775862069 1453.45402299 -348.775862069 1136 -129 c 2,8,-1
 1032 -57 l 1,9,10
 877 -86 877 -86 743.5 -86 c 128,-1,11
 610 -86 610 -86 503 -73.5 c 128,-1,12
 396 -61 396 -61 300 -38 c 0,13,14
 82 14.2291666667 82 14.2291666667 82 115 c 0,15,16
 82 144 82 144 102.5 168.5 c 128,-1,17
 123 193 123 193 145 193 c 128,-1,18
 167 193 167 193 194.5 179.5 c 128,-1,19
 222 166 222 166 264 146.5 c 128,-1,20
 306 127 306 127 362.5 107.5 c 0,21,22
 497.230769231 61 497.230769231 61 723.115384615 61 c 128,-1,23
 949 61 949 61 1160.5 109 c 128,-1,24
 1372 157 1372 157 1538 242.5 c 128,-1,25
 1704 328 1704 328 1843 445 c 128,-1,26
 1982 562 1982 562 2080 700 c 128,-1,27
 2178 838 2178 838 2246.5 991 c 0,28,29
 2380 1289.18248175 2380 1289.18248175 2380 1614 c 0,30,31
 2380 2096.55 2380 2096.55 2111 2379 c 0,32,33
 1905.00673401 2595.29292929 1905.00673401 2595.29292929 1603.5 2648.5 c 0,34,35
 1527 2662 1527 2662 1414 2662 c 128,-1,36
 1301 2662 1301 2662 1154 2599 c 128,-1,37
 1007 2536 1007 2536 896 2426.5 c 128,-1,38
 785 2317 785 2317 718 2157 c 128,-1,39
 651 1997 651 1997 651 1856.5 c 128,-1,40
 651 1716 651 1716 670 1623.5 c 128,-1,41
 689 1531 689 1531 733.5 1444 c 128,-1,42
 778 1357 778 1357 843 1292.5 c 0,43,44
 985.596899225 1151 985.596899225 1151 1229 1151 c 0,45,46
 1372.15384615 1151 1372.15384615 1151 1442.5 1213 c 0,47,48
 1472 1239 1472 1239 1493 1265 c 0,49,50
 1543.07692308 1327 1543.07692308 1327 1565 1327 c 0,51,52
 1610 1327 1610 1327 1610 1280.5 c 128,-1,53
 1610 1234 1610 1234 1570.5 1180 c 128,-1,54
 1531 1126 1531 1126 1465 1077.5 c 0,55,56
 1309.18556701 963 1309.18556701 963 1129.09278351 963 c 128,-1,57
 949 963 949 963 818.5 1011 c 128,-1,58
 688 1059 688 1059 581.5 1147 c 128,-1,59
 475 1235 475 1235 409.5 1375 c 128,-1,60
 344 1515 344 1515 344 1653.5 c 128,-1,61
 344 1792 344 1792 367.5 1904 c 128,-1,62
 391 2016 391 2016 440.5 2127 c 128,-1,63
 490 2238 490 2238 560.5 2338.5 c 128,-1,64
 631 2439 631 2439 730 2525 c 128,-1,65
 829 2611 829 2611 946 2674.5 c 0,66,67
 1195.66141732 2810 1195.66141732 2810 1524 2810 c 0,68,69
 1922.96350365 2810 1922.96350365 2810 2238 2602.5 c 0,70,71
 2578.24995228 2378.39306027 2578.24995228 2378.39306027 2677 1958 c 0,72,73
 2712 1809 2712 1809 2712 1623 c 128,-1,74
 2712 1437 2712 1437 2668 1250 c 128,-1,75
 2624 1063 2624 1063 2550 920 c 128,-1,76
 2476 777 2476 777 2380 651 c 128,-1,77
 2284 525 2284 525 2177.5 434.5 c 128,-1,78
 2071 344 2071 344 1964.5 269 c 128,-1,79
 1858 194 1858 194 1762 147 c 0,80,81
 1556.4195122 46.3512195122 1556.4195122 46.3512195122 1474 22 c 1,82,-1
 1430 8 l 1,83,84
 1888.02120141 -289.713780919 1888.02120141 -289.713780919 2348 -482 c 0,85,86
 2635.05882353 -602 2635.05882353 -602 2806 -602 c 0,87,88
 2935.875 -602 2935.875 -602 2976.4375 -572.5 c 0,89,90
 3129 -461.545454545 3129 -461.545454545 3129 -563 c 0,0,1
EndSplineSet
Position2: "'cpsp' Capital Spacing in Latin lookup 0 subtable" dx=33 dy=0 dh=66 dv=0
EndChar

StartChar: R
Encoding: 82 82 53
Width: 2613
GlyphClass: 2
Flags: HW
LayerCount: 2
Fore
SplineSet
655 205 m 1,0,1
 655 131 655 131 745 131 c 2,2,-1
 1090 131 l 1,3,-1
 1081 0 l 1,4,-1
 78 0 l 1,5,-1
 82 131 l 1,6,-1
 201 131 l 2,7,8
 308 131 308 131 335.5 150 c 128,-1,9
 363 169 363 169 369 254 c 0,10,11
 451 1426 451 1426 489.5 1974.5 c 128,-1,12
 528 2523 528 2523 528 2535.5 c 128,-1,13
 528 2548 528 2548 525.5 2559 c 128,-1,14
 523 2570 523 2570 513 2578.5 c 128,-1,15
 503 2587 503 2587 491 2591 c 128,-1,16
 479 2595 479 2595 451.5 2597.5 c 0,17,18
 413 2601 413 2601 315 2601 c 2,19,-1
 193 2601 l 1,20,-1
 193 2732 l 1,21,-1
 1200 2732 l 2,22,23
 1878.10810811 2732 1878.10810811 2732 2077 2286 c 0,24,25
 2138 2149.21212121 2138 2149.21212121 2138 2045.60606061 c 128,-1,26
 2138 1942 2138 1942 2131.5 1891.5 c 128,-1,27
 2125 1841 2125 1841 2104.5 1778.5 c 128,-1,28
 2084 1716 2084 1716 2051.5 1660.5 c 128,-1,29
 2019 1605 2019 1605 1962.5 1547.5 c 128,-1,30
 1906 1490 1906 1490 1831.5 1444.5 c 0,31,32
 1662.76970771 1341.44995571 1662.76970771 1341.44995571 1409 1303 c 1,33,-1
 2130 303 l 2,34,35
 2225.2821071 171.576404005 2225.2821071 171.576404005 2283.14105355 151.288202003 c 128,-1,36
 2341 131 2341 131 2388 131 c 2,37,-1
 2572 131 l 1,38,-1
 2564 0 l 1,39,-1
 1892 0 l 1,40,41
 1708.18273969 230.709418556 1708.18273969 230.709418556 1564.59136984 479.854709278 c 128,-1,42
 1421 729 1421 729 1295.5 952 c 128,-1,43
 1170 1175 1170 1175 1110 1278 c 1,44,-1
 1053 1278 l 2,45,46
 900.5 1278 900.5 1278 774 1300 c 1,47,-1
 729 1307 l 1,48,-1
 659 283 l 1,49,-1
 655 205 l 1,0,1
737 1409 m 1,50,51
 848 1393 848 1393 1025.5 1393 c 0,52,53
 1412.875 1393 1412.875 1393 1585 1528 c 0,54,55
 1682 1604 1682 1604 1738 1725 c 128,-1,56
 1794 1846 1794 1846 1794 1975 c 128,-1,57
 1794 2104 1794 2104 1738.5 2217 c 128,-1,58
 1683 2330 1683 2330 1579 2416 c 0,59,60
 1355.27906977 2601 1355.27906977 2601 950 2601 c 0,61,62
 877 2601 877 2601 847.5 2591 c 128,-1,63
 818 2581 818 2581 815 2544 c 2,64,-1
 737 1409 l 1,50,51
EndSplineSet
Substitution2: "'swsh' Swash in Latin lookup 13 subtable" R.001
AlternateSubs2: "'aalt' Access All Alternates in Latin lookup 1 subtable" R.001
AlternateSubs2: "'aalt' Access All Alternates lookup 0 subtable" R.001
Position2: "'cpsp' Capital Spacing in Latin lookup 0 subtable" dx=33 dy=0 dh=66 dv=0
EndChar

StartChar: S
Encoding: 83 83 54
Width: 1916
GlyphClass: 2
Flags: HW
LayerCount: 2
Fore
SplineSet
156 -164 m 1,0,1
 106.812576313 342.154456654 106.812576313 342.154456654 41 717 c 1,2,-1
 156 737 l 1,3,-1
 197 459 l 2,4,5
 212 357 212 357 264.5 293 c 128,-1,6
 317 229 317 229 469.5 163.5 c 128,-1,7
 622 98 622 98 775 98 c 128,-1,8
 928 98 928 98 1031.5 142 c 128,-1,9
 1135 186 1135 186 1202.5 261 c 0,10,11
 1343 417.111111111 1343 417.111111111 1343 639 c 0,12,13
 1343 911.698630137 1343 911.698630137 1026.5 1167.5 c 0,14,15
 914.614379085 1257.92810458 914.614379085 1257.92810458 844 1319 c 2,16,-1
 643 1491 l 1,17,18
 400.840941954 1696.46829168 400.840941954 1696.46829168 319 1953.5 c 0,19,20
 287 2054 287 2054 287 2165.5 c 128,-1,21
 287 2277 287 2277 343.5 2393 c 128,-1,22
 400 2509 400 2509 498 2596.5 c 0,23,24
 713.6 2789 713.6 2789 1036 2789 c 0,25,26
 1202 2789 1202 2789 1345 2746 c 128,-1,27
 1488 2703 1488 2703 1509 2703 c 0,28,29
 1556 2703 1556 2703 1556 2785 c 2,30,-1
 1556 2814 l 1,31,-1
 1667 2814 l 1,32,-1
 1712 2175 l 1,33,-1
 1597 2167 l 1,34,-1
 1581 2388 l 1,35,36
 1442.92841649 2541.41287057 1442.92841649 2541.41287057 1211 2607.5 c 0,37,38
 1118 2634 1118 2634 1006.5 2634 c 128,-1,39
 895 2634 895 2634 794.5 2591.5 c 128,-1,40
 694 2549 694 2549 633.5 2459.5 c 128,-1,41
 573 2370 573 2370 573 2285.5 c 128,-1,42
 573 2201 573 2201 580.5 2158.5 c 128,-1,43
 588 2116 588 2116 598.5 2080.5 c 128,-1,44
 609 2045 609 2045 631.5 2005.5 c 128,-1,45
 654 1966 654 1966 671.5 1937.5 c 128,-1,46
 689 1909 689 1909 723 1870.5 c 128,-1,47
 757 1832 757 1832 778.5 1809 c 128,-1,48
 800 1786 800 1786 843.5 1747 c 128,-1,49
 887 1708 887 1708 909.5 1688 c 128,-1,50
 932 1668 932 1668 981.5 1626 c 128,-1,51
 1031 1584 1031 1584 1053 1565 c 2,52,-1
 1196 1442 l 1,53,54
 1226.62264151 1421.58490566 1226.62264151 1421.58490566 1304.81132075 1350.79245283 c 128,-1,55
 1383 1280 1383 1280 1442.5 1210.5 c 128,-1,56
 1502 1141 1502 1141 1539.5 1076.5 c 0,57,58
 1634 913.96 1634 913.96 1634 737 c 0,59,60
 1634 500.737864078 1634 500.737864078 1477.5 286.5 c 0,61,62
 1235.34042553 -45 1235.34042553 -45 770 -45 c 0,63,64
 593.391304348 -45 593.391304348 -45 516.695652174 -24 c 0,65,66
 370.608695652 16 370.608695652 16 327.304347826 16 c 128,-1,67
 284 16 284 16 273 6.5 c 128,-1,68
 262 -3 262 -3 262 -33 c 1,69,-1
 270 -160 l 1,70,-1
 156 -164 l 1,0,1
EndSplineSet
Position2: "'cpsp' Capital Spacing in Latin lookup 0 subtable" dx=33 dy=0 dh=66 dv=0
EndChar

StartChar: T
Encoding: 84 84 55
Width: 2527
GlyphClass: 2
Flags: HW
LayerCount: 2
Fore
SplineSet
1143 2417 m 1,0,-1
 1147 2486 l 1,1,2
 1147 2525 1147 2525 1109 2538.5 c 128,-1,3
 1071 2552 1071 2552 971 2552 c 2,4,-1
 459 2552 l 2,5,6
 311.314814815 2552 311.314814815 2552 270.5 2476 c 0,7,8
 237.087505442 2413.78363082 237.087505442 2413.78363082 213.043752721 2247.89181541 c 128,-1,9
 189 2082 189 2082 188 2077 c 1,10,-1
 41 2081 l 1,11,12
 111 2499 111 2499 143 2732 c 1,13,-1
 2507 2732 l 1,14,15
 2423.90265487 2158.62831858 2423.90265487 2158.62831858 2417 2085 c 1,16,-1
 2269 2089 l 1,17,18
 2310 2371 2310 2371 2310 2418 c 128,-1,19
 2310 2465 2310 2465 2306.5 2484 c 128,-1,20
 2303 2503 2303 2503 2292.5 2516 c 128,-1,21
 2282 2529 2282 2529 2271 2536 c 128,-1,22
 2260 2543 2260 2543 2235 2546.5 c 0,23,24
 2195.71428571 2552 2195.71428571 2552 2126 2552 c 2,25,-1
 1655 2552 l 2,26,27
 1494 2552 1494 2552 1465 2537.5 c 128,-1,28
 1436 2523 1436 2523 1430 2437 c 2,29,-1
 1286 324 l 1,30,-1
 1282 246 l 1,31,32
 1282 167.384615385 1282 167.384615385 1292.5 157.692307692 c 128,-1,33
 1303 148 1303 148 1316 141 c 0,34,35
 1334.57142857 131 1334.57142857 131 1397 131 c 2,36,-1
 1667 131 l 1,37,-1
 1659 0 l 1,38,-1
 606 0 l 1,39,-1
 606 131 l 1,40,-1
 823 131 l 2,41,42
 930 131 930 131 957.5 150 c 128,-1,43
 985 169 985 169 991 254 c 2,44,-1
 1143 2417 l 1,0,-1
EndSplineSet
Substitution2: "'ss01' Style Set 1 in Latin lookup 15 subtable" T.001
AlternateSubs2: "'swsh' Swash in Latin lookup 14 subtable" T.002 T.001
AlternateSubs2: "'aalt' Access All Alternates in Latin lookup 1 subtable" T.001 T.002
AlternateSubs2: "'aalt' Access All Alternates lookup 0 subtable" T.001 T.002
Position2: "'cpsp' Capital Spacing in Latin lookup 0 subtable" dx=33 dy=0 dh=66 dv=0
EndChar

StartChar: U
Encoding: 85 85 56
Width: 2863
GlyphClass: 2
Flags: HW
LayerCount: 2
Fore
SplineSet
2036 -78 m 0,0,1
 1974 -78 1974 -78 1974 12 c 0,2,3
 1974 28 1974 28 1975.5 60.5 c 0,4,5
 1984.42105263 253.789473684 1984.42105263 253.789473684 1991 438 c 1,6,7
 1964 360 1964 360 1888 251.5 c 0,8,9
 1648.79262673 -90 1648.79262673 -90 1139 -90 c 0,10,11
 650.273684211 -90 650.273684211 -90 484 89.5 c 0,12,13
 396.892412231 183.536600432 396.892412231 183.536600432 373.446206116 287.268300216 c 0,14,15
 336 452.939393939 336 452.939393939 336 601.96969697 c 128,-1,16
 336 751 336 751 401.5 1584.5 c 128,-1,17
 467 2418 467 2418 467 2475.5 c 128,-1,18
 467 2533 467 2533 457.5 2559.5 c 128,-1,19
 448 2586 448 2586 426 2593.5 c 128,-1,20
 404 2601 404 2601 348 2601 c 2,21,-1
 123 2601 l 1,22,-1
 127 2732 l 1,23,-1
 1114 2732 l 1,24,-1
 1106 2601 l 1,25,-1
 913 2601 l 2,26,27
 800.411764706 2601 800.411764706 2601 783 2545.5 c 0,28,29
 775 2520 775 2520 770 2474 c 1,30,31
 639 831 639 831 639 695 c 128,-1,32
 639 559 639 559 652 485.5 c 128,-1,33
 665 412 665 412 701.5 337.5 c 128,-1,34
 738 263 738 263 795.5 210 c 0,35,36
 925.688679245 90 925.688679245 90 1171 90 c 0,37,38
 1642 90 1642 90 1872 459 c 0,39,40
 1959.85690093 599.979678239 1959.85690093 599.979678239 1982.92845047 721.489839119 c 128,-1,41
 2006 843 2006 843 2013 894.5 c 0,42,43
 2028 1004.85714286 2028 1004.85714286 2028 1081 c 1,44,-1
 2130 2400 l 1,45,46
 2134 2433 2134 2433 2134 2500 c 128,-1,47
 2134 2567 2134 2567 2104.5 2584 c 128,-1,48
 2075 2601 2075 2601 1974 2601 c 2,49,-1
 1765 2601 l 1,50,-1
 1769 2732 l 1,51,-1
 2740 2732 l 1,52,-1
 2740 2601 l 1,53,-1
 2560 2601 l 2,54,55
 2467.69230769 2601 2467.69230769 2601 2449 2547 c 0,56,57
 2440 2521 2440 2521 2417.5 2199.5 c 128,-1,58
 2395 1878 2395 1878 2360 1418 c 128,-1,59
 2325 958 2325 958 2310.5 792.5 c 0,60,61
 2281 455.793103448 2281 455.793103448 2281 350.396551724 c 128,-1,62
 2281 245 2281 245 2297.5 219 c 128,-1,63
 2314 193 2314 193 2353 193 c 128,-1,64
 2392 193 2392 193 2601 307 c 1,65,-1
 2646 205 l 1,66,67
 2470.30901288 104.605150215 2470.30901288 104.605150215 2276.65450644 13.3025751073 c 128,-1,68
 2083 -78 2083 -78 2036 -78 c 0,0,1
EndSplineSet
Position2: "'cpsp' Capital Spacing in Latin lookup 0 subtable" dx=33 dy=0 dh=66 dv=0
EndChar

StartChar: V
Encoding: 86 86 57
Width: 2592
GlyphClass: 2
Flags: HW
LayerCount: 2
Fore
SplineSet
41 2601 m 1,0,-1
 45 2732 l 1,1,-1
 999 2732 l 1,2,-1
 999 2601 l 1,3,-1
 811 2601 l 2,4,5
 744 2601 744 2601 720 2591 c 128,-1,6
 696 2581 696 2581 696 2554.5 c 128,-1,7
 696 2528 696 2528 725 2408 c 1,8,-1
 1217 467 l 1,9,-1
 2056 2458 l 1,10,11
 2068 2483 2068 2483 2068 2528.5 c 128,-1,12
 2068 2574 2068 2574 2025 2587.5 c 128,-1,13
 1982 2601 1982 2601 1876 2601 c 2,14,-1
 1741 2601 l 1,15,-1
 1741 2732 l 1,16,-1
 2552 2732 l 1,17,-1
 2544 2601 l 1,18,-1
 2454 2601 l 2,19,20
 2352.81818182 2601 2352.81818182 2601 2307 2538 c 0,21,22
 2266.72413793 2482.62068966 2266.72413793 2482.62068966 2240.36206897 2420.31034483 c 128,-1,23
 2214 2358 2214 2358 2190.5 2304.5 c 128,-1,24
 2167 2251 2167 2251 2150 2212 c 2,25,-1
 1139 -61 l 1,26,-1
 1049 -61 l 1,27,-1
 406 2335 l 2,28,29
 390 2393 390 2393 382.5 2422.5 c 128,-1,30
 375 2452 375 2452 363 2486.5 c 128,-1,31
 351 2521 351 2521 345.5 2535 c 128,-1,32
 340 2549 340 2549 326.5 2566 c 128,-1,33
 313 2583 313 2583 305.5 2586.5 c 128,-1,34
 298 2590 298 2590 278.5 2595.5 c 128,-1,35
 259 2601 259 2601 244.5 2601 c 2,36,-1
 41 2601 l 1,0,-1
EndSplineSet
Position2: "'cpsp' Capital Spacing in Latin lookup 0 subtable" dx=33 dy=0 dh=66 dv=0
EndChar

StartChar: W
Encoding: 87 87 58
Width: 4087
GlyphClass: 2
Flags: HW
LayerCount: 2
Fore
SplineSet
3555 2540 m 0,0,1
 3555 2601 3555 2601 3445 2601 c 2,2,-1
 3203 2601 l 1,3,-1
 3203 2732 l 1,4,-1
 4047 2732 l 1,5,-1
 4039 2601 l 1,6,-1
 3928 2601 l 2,7,8
 3828 2601 3828 2601 3796 2566.5 c 128,-1,9
 3764 2532 3764 2532 3705.5 2397 c 128,-1,10
 3647 2262 3647 2262 3625 2212 c 2,11,-1
 2630 -61 l 1,12,-1
 2540 -61 l 1,13,-1
 2015 1954 l 1,14,-1
 1130 -61 l 1,15,-1
 1040 -61 l 1,16,-1
 397 2335 l 2,17,18
 381 2394 381 2394 373.5 2422.5 c 128,-1,19
 366 2451 366 2451 354 2486.5 c 128,-1,20
 342 2522 342 2522 336.5 2535 c 128,-1,21
 331 2548 331 2548 317.5 2565.5 c 128,-1,22
 304 2583 304 2583 296.5 2586.5 c 128,-1,23
 289 2590 289 2590 270 2595.5 c 128,-1,24
 251 2601 251 2601 236.5 2601 c 2,25,-1
 41 2601 l 1,26,-1
 45 2732 l 1,27,-1
 1008 2732 l 1,28,-1
 999 2601 l 1,29,-1
 791 2601 l 2,30,31
 724 2601 724 2601 700 2591 c 128,-1,32
 676 2581 676 2581 676 2554.5 c 128,-1,33
 676 2528 676 2528 705 2408 c 1,34,-1
 1208 467 l 1,35,-1
 1946 2212 l 1,36,-1
 1917 2339 l 2,37,38
 1873.64435146 2532.12970711 1873.64435146 2532.12970711 1830 2568.5 c 0,39,40
 1794.15789474 2598.36842105 1794.15789474 2598.36842105 1762.57894737 2599.68421053 c 128,-1,41
 1731 2601 1731 2601 1704 2601 c 2,42,-1
 1544 2601 l 1,43,-1
 1548 2732 l 1,44,-1
 2523 2732 l 1,45,-1
 2515 2601 l 1,46,-1
 2302 2601 l 2,47,48
 2235 2601 2235 2601 2211 2591 c 128,-1,49
 2187 2581 2187 2581 2187 2554.5 c 128,-1,50
 2187 2528 2187 2528 2216 2408 c 1,51,-1
 2707 467 l 1,52,-1
 3523 2425 l 1,53,54
 3555 2507.28571429 3555 2507.28571429 3555 2540 c 0,0,1
EndSplineSet
Position2: "'cpsp' Capital Spacing in Latin lookup 0 subtable" dx=33 dy=0 dh=66 dv=0
EndChar

StartChar: X
Encoding: 88 88 59
Width: 2928
GlyphClass: 2
Flags: HW
LayerCount: 2
Fore
SplineSet
113 19 m 0,0,1
 61 79 61 79 61 156.5 c 128,-1,2
 61 234 61 234 103 289 c 128,-1,3
 145 344 145 344 189 344 c 128,-1,4
 233 344 233 344 239.5 330.5 c 128,-1,5
 246 317 246 317 246.5 297.5 c 128,-1,6
 247 278 247 278 250.5 259 c 0,7,8
 258.973684211 213 258.973684211 213 340.486842105 213 c 128,-1,9
 422 213 422 213 523.5 275.5 c 128,-1,10
 625 338 625 338 722 437.5 c 128,-1,11
 819 537 819 537 917 657.5 c 128,-1,12
 1015 778 1015 778 1097 898.5 c 0,13,14
 1270.67292225 1153.71447721 1270.67292225 1153.71447721 1344 1280 c 1,15,-1
 1380 1343 l 1,16,17
 1356 1395 1356 1395 1312.5 1491.5 c 128,-1,18
 1269 1588 1269 1588 1236 1659.5 c 128,-1,19
 1203 1731 1203 1731 1156 1830.5 c 128,-1,20
 1109 1930 1109 1930 1069.5 2005 c 128,-1,21
 1030 2080 1030 2080 982 2164 c 128,-1,22
 934 2248 934 2248 890.5 2307.5 c 128,-1,23
 847 2367 847 2367 801 2417.5 c 0,24,25
 708.544554455 2519 708.544554455 2519 628.272277228 2519 c 128,-1,26
 548 2519 548 2519 483 2440 c 128,-1,27
 418 2361 418 2361 418 2227.5 c 128,-1,28
 418 2094 418 2094 483 1966 c 0,29,30
 499 1935 499 1935 492.5 1909.5 c 128,-1,31
 486 1884 486 1884 456 1884 c 128,-1,32
 426 1884 426 1884 406 1921 c 1,33,34
 307 2089 307 2089 307 2252 c 128,-1,35
 307 2415 307 2415 357.5 2527.5 c 128,-1,36
 408 2640 408 2640 499.5 2706.5 c 128,-1,37
 591 2773 591 2773 713.5 2773 c 128,-1,38
 836 2773 836 2773 970.5 2671 c 128,-1,39
 1105 2569 1105 2569 1240.5 2328 c 128,-1,40
 1376 2087 1376 2087 1581 1642 c 1,41,42
 1845.5625 2077.75 1845.5625 2077.75 1983 2261 c 0,43,44
 2369 2777 2369 2777 2683 2777 c 0,45,46
 2773 2777 2773 2777 2820 2734 c 128,-1,47
 2867 2691 2867 2691 2867 2634 c 128,-1,48
 2867 2577 2867 2577 2829 2538 c 128,-1,49
 2791 2499 2791 2499 2749 2499 c 128,-1,50
 2707 2499 2707 2499 2696.5 2512.5 c 128,-1,51
 2686 2526 2686 2526 2680.5 2542 c 0,52,53
 2665.71875 2585 2665.71875 2585 2606.359375 2585 c 128,-1,54
 2547 2585 2547 2585 2461 2524 c 128,-1,55
 2375 2463 2375 2463 2287 2365.5 c 128,-1,56
 2199 2268 2199 2268 2107 2150 c 128,-1,57
 2015 2032 2015 2032 1935 1914 c 0,58,59
 1762.97468354 1660.26265823 1762.97468354 1660.26265823 1692 1540 c 1,60,-1
 1655 1479 l 1,61,62
 2047 653 2047 653 2187 385 c 1,63,64
 2281 209 2281 209 2380 209 c 0,65,66
 2446 209 2446 209 2507.5 289.5 c 0,67,68
 2572.63709677 374.760752688 2572.63709677 374.760752688 2585.31854839 431.380376344 c 128,-1,69
 2598 488 2598 488 2599 490.5 c 128,-1,70
 2600 493 2600 493 2603 504.5 c 128,-1,71
 2606 516 2606 516 2608 519.5 c 128,-1,72
 2610 523 2610 523 2614.5 532 c 128,-1,73
 2619 541 2619 541 2623.5 544.5 c 128,-1,74
 2628 548 2628 548 2634.5 552.5 c 0,75,76
 2646.77777778 561 2646.77777778 561 2666 561 c 0,77,78
 2720 561 2720 561 2717.5 454 c 128,-1,79
 2715 347 2715 347 2675.5 254.5 c 128,-1,80
 2636 162 2636 162 2583 110.5 c 128,-1,81
 2530 59 2530 59 2466 24.5 c 0,82,83
 2218.27498138 -109.039267851 2218.27498138 -109.039267851 2041 61 c 0,84,85
 1945 154 1945 154 1850.5 341 c 128,-1,86
 1756 528 1756 528 1633.5 792.5 c 128,-1,87
 1511 1057 1511 1057 1458 1171 c 1,88,89
 943.249417249 205.842657343 943.249417249 205.842657343 482 9.5 c 0,90,91
 218.458703521 -102.683119447 218.458703521 -102.683119447 113 19 c 0,0,1
EndSplineSet
Position2: "'cpsp' Capital Spacing in Latin lookup 0 subtable" dx=33 dy=0 dh=66 dv=0
EndChar

StartChar: Y
Encoding: 89 89 60
Width: 2383
GlyphClass: 2
Flags: HW
LayerCount: 2
Fore
SplineSet
1167 319 m 1,0,-1
 1163 217 l 1,1,2
 1163 160.69047619 1163 160.69047619 1193.5 148.345238095 c 0,3,4
 1236.35294118 131 1236.35294118 131 1303 131 c 2,5,-1
 1511 131 l 1,6,-1
 1507 0 l 1,7,-1
 442 0 l 1,8,-1
 451 131 l 1,9,-1
 635 131 l 2,10,11
 761 131 761 131 798 162.5 c 128,-1,12
 835 194 835 194 844 311 c 2,13,-1
 913 1303 l 1,14,-1
 340 2462 l 2,15,16
 295 2553 295 2553 261 2577 c 128,-1,17
 227 2601 227 2601 147 2601 c 2,18,-1
 41 2601 l 1,19,-1
 45 2732 l 1,20,-1
 946 2732 l 1,21,-1
 934 2601 l 1,22,-1
 815 2601 l 2,23,24
 739 2601 739 2601 707.5 2589.5 c 128,-1,25
 676 2578 676 2578 676 2534 c 128,-1,26
 676 2490 676 2490 732 2372.5 c 128,-1,27
 788 2255 788 2255 789.5 2251.5 c 128,-1,28
 791 2248 791 2248 794 2242.5 c 128,-1,29
 797 2237 797 2237 799 2232 c 2,30,-1
 1163 1487 l 1,31,-1
 1737 2421 l 2,32,33
 1790 2506 1790 2506 1790 2544 c 128,-1,34
 1790 2582 1790 2582 1757 2591.5 c 128,-1,35
 1724 2601 1724 2601 1647 2601 c 2,36,-1
 1544 2601 l 1,37,-1
 1544 2732 l 1,38,-1
 2343 2732 l 1,39,-1
 2339 2601 l 1,40,-1
 2212 2601 l 2,41,42
 2133.90163934 2601 2133.90163934 2601 2085.95081967 2563.5 c 0,43,44
 2015.6922697 2508.55421092 2015.6922697 2508.55421092 1872 2294 c 1,45,-1
 1233 1319 l 1,46,-1
 1167 319 l 1,0,-1
EndSplineSet
Position2: "'cpsp' Capital Spacing in Latin lookup 0 subtable" dx=33 dy=0 dh=66 dv=0
EndChar

StartChar: Z
Encoding: 90 90 61
Width: 2629
GlyphClass: 2
Flags: HW
LayerCount: 2
Fore
SplineSet
2540 2851 m 0,0,1
 2589 2851 2589 2851 2589 2802 c 0,2,3
 2589 2768.89473684 2589 2768.89473684 2540 2707 c 1,4,-1
 1585 1606 l 1,5,-1
 1925 1606 l 1,6,-1
 1917 1475 l 1,7,-1
 1470 1475 l 1,8,-1
 483 332 l 1,9,10
 668 356 668 356 786 356 c 128,-1,11
 904 356 904 356 1353 307 c 128,-1,12
 1802 258 1802 258 1932 258 c 128,-1,13
 2062 258 2062 258 2149.5 290 c 128,-1,14
 2237 322 2237 322 2291.5 371.5 c 128,-1,15
 2346 421 2346 421 2383 484 c 0,16,17
 2449 596.378378378 2449 596.378378378 2449 721 c 0,18,19
 2449 755 2449 755 2441 795 c 1,20,-1
 2511 815 l 1,21,22
 2548 725 2548 725 2548 651 c 128,-1,23
 2548 577 2548 577 2541.5 517 c 128,-1,24
 2535 457 2535 457 2517 385 c 128,-1,25
 2499 313 2499 313 2470.5 251 c 128,-1,26
 2442 189 2442 189 2393 129.5 c 128,-1,27
 2344 70 2344 70 2280.5 27.5 c 0,28,29
 2140.8 -66 2140.8 -66 1959.4 -66 c 128,-1,30
 1778 -66 1778 -66 1515.5 -28 c 128,-1,31
 1253 10 1253 10 1000 48 c 128,-1,32
 747 86 747 86 632.5 86 c 128,-1,33
 518 86 518 86 460.5 84 c 128,-1,34
 403 82 403 82 348 75.5 c 128,-1,35
 293 69 293 69 262 53 c 0,36,37
 198.296703297 20.1208791209 198.296703297 20.1208791209 147.148351648 -42.9395604396 c 128,-1,38
 96 -106 96 -106 48 -106 c 128,-1,39
 0 -106 0 -106 0 -29 c 0,40,41
 0 15 0 15 188 233 c 1,42,-1
 1286 1475 l 1,43,-1
 950 1475 l 1,44,-1
 963 1606 l 1,45,-1
 1401 1606 l 1,46,-1
 2154 2458 l 1,47,48
 1970 2437 1970 2437 1795 2437 c 128,-1,49
 1620 2437 1620 2437 1462.5 2456 c 128,-1,50
 1305 2475 1305 2475 1192 2498.5 c 0,51,52
 896.276595745 2560 896.276595745 2560 758.638297872 2560 c 128,-1,53
 621 2560 621 2560 539.5 2526 c 128,-1,54
 458 2492 458 2492 409 2438 c 0,55,56
 307 2325.59183673 307 2325.59183673 307 2226.79591837 c 128,-1,57
 307 2128 307 2128 356 2070 c 0,58,59
 454 1954 454 1954 614 1954 c 0,60,61
 701 1954 701 1954 726.5 1988 c 128,-1,62
 752 2022 752 2022 762 2041.5 c 0,63,64
 786.358974359 2089 786.358974359 2089 808.179487179 2089 c 128,-1,65
 830 2089 830 2089 845 2066.5 c 128,-1,66
 860 2044 860 2044 860 2011 c 0,67,68
 860 1879 860 1879 772.5 1804 c 128,-1,69
 685 1729 685 1729 561 1729 c 0,70,71
 389.806451613 1729 389.806451613 1729 277 1863.5 c 0,72,73
 188 1969.61538462 188 1969.61538462 188 2150 c 0,74,75
 188 2459.38095238 188 2459.38095238 412.5 2662.5 c 0,76,77
 575.526315789 2810 575.526315789 2810 836 2810 c 0,78,79
 1024.85714286 2810 1024.85714286 2810 1243.42857143 2765 c 0,80,81
 1661.14285714 2679 1661.14285714 2679 1978.07142857 2679 c 128,-1,82
 2295 2679 2295 2679 2354.5 2716.5 c 128,-1,83
 2414 2754 2414 2754 2449.5 2788 c 0,84,85
 2515.27941176 2851 2515.27941176 2851 2540 2851 c 0,0,1
EndSplineSet
Position2: "'cpsp' Capital Spacing in Latin lookup 0 subtable" dx=33 dy=0 dh=66 dv=0
EndChar

StartChar: bracketleft
Encoding: 91 91 62
Width: 1335
GlyphClass: 2
Flags: HW
LayerCount: 2
Fore
SplineSet
360 -946 m 1,0,-1
 360 2892 l 1,1,-1
 1266 2892 l 1,2,-1
 1266 2769 l 1,3,-1
 614 2769 l 1,4,-1
 614 -827 l 1,5,-1
 1266 -827 l 1,6,-1
 1266 -946 l 1,7,-1
 360 -946 l 1,0,-1
EndSplineSet
EndChar

StartChar: backslash
Encoding: 92 92 63
Width: 1810
GlyphClass: 2
Flags: HW
LayerCount: 2
Fore
SplineSet
152 2892 m 1,0,-1
 344 2892 l 1,1,-1
 1741 -946 l 1,2,-1
 1548 -946 l 1,3,-1
 152 2892 l 1,0,-1
EndSplineSet
EndChar

StartChar: bracketright
Encoding: 93 93 64
Width: 1335
GlyphClass: 2
Flags: HW
LayerCount: 2
Fore
SplineSet
70 -827 m 1,0,-1
 721 -827 l 1,1,-1
 721 2769 l 1,2,-1
 70 2769 l 1,3,-1
 70 2892 l 1,4,-1
 975 2892 l 1,5,-1
 975 -946 l 1,6,-1
 70 -946 l 1,7,-1
 70 -827 l 1,0,-1
EndSplineSet
EndChar

StartChar: asciicircum
Encoding: 94 94 65
Width: 1662
GlyphClass: 2
Flags: HW
LayerCount: 2
Fore
SplineSet
164 1356 m 1,0,-1
 807 2666 l 1,1,-1
 856 2666 l 1,2,-1
 1499 1356 l 1,3,-1
 1241 1356 l 1,4,-1
 831 2224 l 1,5,-1
 422 1356 l 1,6,-1
 164 1356 l 1,0,-1
EndSplineSet
EndChar

StartChar: underscore
Encoding: 95 95 66
Width: 925
GlyphClass: 2
Flags: HW
LayerCount: 2
Fore
SplineSet
82 -242 m 1,0,-1
 844 -242 l 1,1,-1
 844 -418 l 1,2,-1
 82 -418 l 1,3,-1
 82 -242 l 1,0,-1
EndSplineSet
EndChar

StartChar: a
Encoding: 97 97 68
Width: 1519
GlyphClass: 2
Flags: HW
LayerCount: 2
Fore
SplineSet
983 -45 m 0,0,1
 893 -45 893 -45 893 250 c 0,2,3
 893 350 893 350 913 610 c 1,4,5
 779 353 779 353 672.5 222.5 c 128,-1,6
 566 92 566 92 460.5 23.5 c 128,-1,7
 355 -45 355 -45 315.5 -45 c 128,-1,8
 276 -45 276 -45 250.5 -35 c 128,-1,9
 225 -25 225 -25 197 5.5 c 128,-1,10
 169 36 169 36 149 84 c 0,11,12
 102 196.8 102 196.8 102 366.9 c 128,-1,13
 102 537 102 537 115.5 635 c 128,-1,14
 129 733 129 733 165 828.5 c 0,15,16
 325.748730964 1254.93066131 325.748730964 1254.93066131 680 1548.5 c 0,17,18
 788 1638 788 1638 838.5 1638 c 128,-1,19
 889 1638 889 1638 925.5 1612.5 c 128,-1,20
 962 1587 962 1587 985 1550.5 c 0,21,22
 1033.19561815 1474.01564945 1033.19561815 1474.01564945 1057 1389 c 1,23,-1
 1098 1618 l 2,24,25
 1110 1688 1110 1688 1192 1688 c 2,26,-1
 1233 1688 l 2,27,28
 1280 1688 1280 1688 1293.5 1679.5 c 128,-1,29
 1307 1671 1307 1671 1307 1650 c 128,-1,30
 1307 1629 1307 1629 1271 1400 c 0,31,32
 1163 713 1163 713 1163 504 c 128,-1,33
 1163 295 1163 295 1212 295 c 0,34,35
 1240.55172414 295 1240.55172414 295 1267.27586207 326 c 128,-1,36
 1294 357 1294 357 1304 368.5 c 128,-1,37
 1314 380 1314 380 1332 401 c 128,-1,38
 1350 422 1350 422 1364 438 c 1,39,-1
 1438 381 l 1,40,41
 1245.39240506 108.139240506 1245.39240506 108.139240506 1094 1 c 0,42,43
 1029 -45 1029 -45 983 -45 c 0,0,1
343 795 m 128,-1,45
 311 659 311 659 311 534 c 128,-1,46
 311 409 311 409 361 325.5 c 128,-1,47
 411 242 411 242 465.5 242 c 128,-1,48
 520 242 520 242 614.5 356 c 128,-1,49
 709 470 709 470 794 622.5 c 128,-1,50
 879 775 879 775 941.5 937 c 128,-1,51
 1004 1099 1004 1099 1004 1173.5 c 128,-1,52
 1004 1248 1004 1248 958.5 1312 c 128,-1,53
 913 1376 913 1376 854.5 1415 c 128,-1,54
 796 1454 796 1454 754 1454 c 128,-1,55
 712 1454 712 1454 653.5 1400.5 c 128,-1,56
 595 1347 595 1347 536 1253 c 128,-1,57
 477 1159 477 1159 426 1045 c 128,-1,44
 375 931 375 931 343 795 c 128,-1,45
EndSplineSet
EndChar

StartChar: b
Encoding: 98 98 69
Width: 1388
GlyphClass: 2
Flags: HW
LayerCount: 2
Fore
SplineSet
328 2597 m 0,0,1
 328 2732 328 2732 270 2732 c 0,2,3
 248 2732 248 2732 180 2712 c 1,4,-1
 45 2675 l 1,5,-1
 20 2761 l 1,6,7
 112 2785 112 2785 223.5 2816 c 128,-1,8
 335 2847 335 2847 389.5 2862 c 0,9,10
 527.566666667 2900 527.566666667 2900 565.783333333 2900 c 128,-1,11
 604 2900 604 2900 615.5 2885.5 c 128,-1,12
 627 2871 627 2871 627 2851 c 128,-1,13
 627 2831 627 2831 451 1106 c 1,14,15
 719.757961783 1493.89808917 719.757961783 1493.89808917 976.5 1602 c 0,16,17
 1043 1630 1043 1630 1079 1630 c 128,-1,18
 1115 1630 1115 1630 1138.5 1621.5 c 128,-1,19
 1162 1613 1162 1613 1193.5 1585.5 c 128,-1,20
 1225 1558 1225 1558 1249 1514 c 0,21,22
 1307 1407.66666667 1307 1407.66666667 1307 1204 c 0,23,24
 1307 1044.71929825 1307 1044.71929825 1253.5 843.859649123 c 0,25,26
 1158.42368094 486.906451248 1158.42368094 486.906451248 1032 319 c 0,27,28
 961 226 961 226 828.5 105 c 128,-1,29
 696 -16 696 -16 643 -16 c 0,30,31
 575.5 -16 575.5 -16 521.25 15 c 128,-1,32
 467 46 467 46 452.5 54.5 c 128,-1,33
 438 63 438 63 409 82 c 128,-1,34
 380 101 380 101 367.5 110 c 128,-1,35
 355 119 355 119 322.5 141.5 c 128,-1,36
 290 164 290 164 263.5 183.5 c 0,37,38
 209 223.603773585 209 223.603773585 209 258.801886792 c 128,-1,39
 209 294 209 294 222 467 c 0,40,41
 328 1877.61538462 328 1877.61538462 328 2597 c 0,0,1
549 1094 m 1,42,43
 430 877.921052632 430 877.921052632 430 604.5 c 0,44,45
 430 410.151898734 430 410.151898734 523.5 306 c 0,46,47
 604.299196189 215.995832093 604.299196189 215.995832093 659.649598095 189.997916046 c 128,-1,48
 715 164 715 164 745.5 164 c 128,-1,49
 776 164 776 164 842.5 241 c 128,-1,50
 909 318 909 318 969 433.5 c 0,51,52
 1114 712.625 1114 712.625 1114 936.8125 c 128,-1,53
 1114 1161 1114 1161 1044.5 1291 c 128,-1,54
 975 1421 975 1421 899.5 1421 c 128,-1,55
 824 1421 824 1421 724.5 1328.5 c 128,-1,56
 625 1236 625 1236 549 1094 c 1,42,43
EndSplineSet
EndChar

StartChar: c
Encoding: 99 99 70
Width: 1134
GlyphClass: 2
Flags: HW
LayerCount: 2
Fore
SplineSet
1073 1507 m 0,0,1
 1073 1352 1073 1352 979 1352 c 0,2,3
 935.714285714 1352 935.714285714 1352 862.357142857 1391 c 0,4,5
 721.285714286 1466 721.285714286 1466 606 1466 c 0,6,7
 535 1466 535 1466 461.5 1345 c 128,-1,8
 388 1224 388 1224 341.5 1043.5 c 128,-1,9
 295 863 295 863 295 734 c 128,-1,10
 295 605 295 605 310.5 527.5 c 128,-1,11
 326 450 326 450 351 398 c 128,-1,12
 376 346 376 346 408 309 c 128,-1,13
 440 272 440 272 471.5 255 c 128,-1,14
 503 238 503 238 532 238 c 128,-1,15
 561 238 561 238 592 245 c 128,-1,16
 623 252 623 252 651 262.5 c 128,-1,17
 679 273 679 273 710 290.5 c 128,-1,18
 741 308 741 308 765.5 324 c 128,-1,19
 790 340 790 340 818.5 362.5 c 128,-1,20
 847 385 847 385 866.5 401 c 128,-1,21
 886 417 886 417 909.5 439.5 c 128,-1,22
 933 462 933 462 944.5 473 c 128,-1,23
 956 484 956 484 973 501.5 c 128,-1,24
 990 519 990 519 991 520 c 1,25,-1
 1049 471 l 1,26,27
 781.667287978 103.417520969 781.667287978 103.417520969 518.5 -4.5 c 0,28,29
 449 -33 449 -33 410 -33 c 128,-1,30
 371 -33 371 -33 354.5 -30 c 128,-1,31
 338 -27 338 -27 327 -23.5 c 128,-1,32
 316 -20 316 -20 303.5 -13 c 0,33,34
 82 111.04 82 111.04 82 451 c 0,35,36
 82 766.215384615 82 766.215384615 209 1114 c 0,37,38
 343.8 1484.7 343.8 1484.7 630 1596 c 0,39,40
 738 1638 738 1638 855 1638 c 128,-1,41
 972 1638 972 1638 1022.5 1597 c 128,-1,42
 1073 1556 1073 1556 1073 1507 c 0,0,1
EndSplineSet
EndChar

StartChar: d
Encoding: 100 100 71
Width: 1531
GlyphClass: 2
Flags: HW
LayerCount: 2
Fore
SplineSet
1171.5 595.5 m 128,-1,1
 1163 491 1163 491 1163 397 c 128,-1,2
 1163 303 1163 303 1200 303 c 0,3,4
 1269.57575758 303 1269.57575758 303 1383 500 c 1,5,-1
 1421 565 l 1,6,-1
 1491 528 l 1,7,8
 1491 491.014084507 1491 491.014084507 1421 386.507042254 c 0,9,10
 1298.71428571 203.939637827 1298.71428571 203.939637827 1162.35714286 81.4698189135 c 128,-1,11
 1026 -41 1026 -41 967 -41 c 0,12,13
 922 -41 922 -41 922 53 c 0,14,15
 922 279.5 922 279.5 968 613 c 1,16,-1
 983 729 l 1,17,18
 917.690787643 537.1541887 917.690787643 537.1541887 713.5 277 c 0,19,20
 467.046511628 -37 467.046511628 -37 311 -37 c 0,21,22
 202.803571429 -37 202.803571429 -37 136.5 121 c 0,23,24
 82 250.872340426 82 250.872340426 82 475.436170213 c 128,-1,25
 82 700 82 700 158 915 c 128,-1,26
 234 1130 234 1130 348 1278.5 c 0,27,28
 614.767676768 1626 614.767676768 1626 782 1626 c 0,29,30
 836 1626 836 1626 879 1587.5 c 128,-1,31
 922 1549 922 1549 942.5 1504.5 c 128,-1,32
 963 1460 963 1460 982.5 1406.5 c 128,-1,33
 1002 1353 1002 1353 1008 1343 c 1,34,-1
 1065 2556 l 1,35,-1
 1065 2634 l 2,36,37
 1065 2744 1065 2744 1026.5 2744 c 128,-1,38
 988 2744 988 2744 741 2699 c 1,39,-1
 725 2793 l 1,40,41
 824 2814 824 2814 1041.5 2853 c 128,-1,42
 1259 2892 1259 2892 1282 2892 c 0,43,44
 1360 2892 1360 2892 1360 2826 c 1,45,-1
 1229 1212 l 2,46,47
 1217 1074 1217 1074 1198.5 887 c 128,-1,0
 1180 700 1180 700 1171.5 595.5 c 128,-1,1
287 721 m 0,48,49
 287 266 287 266 492 266 c 0,50,51
 547 266 547 266 627 342 c 128,-1,52
 707 418 707 418 780.5 531.5 c 128,-1,53
 854 645 854 645 906 794 c 128,-1,54
 958 943 958 943 958 1073 c 2,55,-1
 958 1139 l 2,56,57
 958 1362.45 958 1362.45 786 1463.5 c 0,58,59
 746 1487 746 1487 709.5 1487 c 128,-1,60
 673 1487 673 1487 622.5 1450 c 128,-1,61
 572 1413 572 1413 530.5 1357 c 0,62,63
 448.815766924 1246.77549272 448.815766924 1246.77549272 401.907883462 1146.88774636 c 128,-1,64
 355 1047 355 1047 321 917.5 c 128,-1,65
 287 788 287 788 287 721 c 0,48,49
EndSplineSet
EndChar

StartChar: e
Encoding: 101 101 72
Width: 1146
GlyphClass: 2
Flags: HW
LayerCount: 2
Fore
SplineSet
105 240.5 m 128,-1,1
 82 318 82 318 82 471 c 128,-1,2
 82 624 82 624 129 839.5 c 128,-1,3
 176 1055 176 1055 225 1162.5 c 128,-1,4
 274 1270 274 1270 295 1307 c 128,-1,5
 316 1344 316 1344 340.5 1373.5 c 128,-1,6
 365 1403 365 1403 382 1422.5 c 128,-1,7
 399 1442 399 1442 429.5 1464 c 128,-1,8
 460 1486 460 1486 474 1495.5 c 128,-1,9
 488 1505 488 1505 524.5 1526.5 c 128,-1,10
 561 1548 561 1548 596.5 1570 c 0,11,12
 693.318181818 1630 693.318181818 1630 759.659090909 1630 c 128,-1,13
 826 1630 826 1630 890.5 1598.5 c 128,-1,14
 955 1567 955 1567 1008 1522 c 128,-1,15
 1061 1477 1061 1477 1061 1453 c 128,-1,16
 1061 1429 1061 1429 991 1344.5 c 128,-1,17
 921 1260 921 1260 816.5 1150 c 0,18,19
 557.552821997 877.424023155 557.552821997 877.424023155 311 692 c 1,20,21
 311 359.734939759 311 359.734939759 476.5 272 c 0,22,23
 518 250 518 250 569 250 c 0,24,25
 754 250 754 250 1016 496 c 0,26,27
 1021 502 1021 502 1024 504 c 1,28,-1
 1085 410 l 1,29,30
 798.390728477 139.313465784 798.390728477 139.313465784 556 30 c 0,31,32
 454 -16 454 -16 403 -16 c 128,-1,33
 352 -16 352 -16 316.5 -4 c 128,-1,34
 281 8 281 8 238.5 39.5 c 128,-1,35
 196 71 196 71 162 117 c 128,-1,0
 128 163 128 163 105 240.5 c 128,-1,1
307 782 m 1,36,37
 308 783 308 783 364.5 836.5 c 128,-1,38
 421 890 421 890 486 953.5 c 128,-1,39
 551 1017 551 1017 620.5 1087.5 c 0,40,41
 782 1251.32374101 782 1251.32374101 782 1282 c 0,42,43
 782 1369 782 1369 728 1411.5 c 128,-1,44
 674 1454 674 1454 622 1454 c 128,-1,45
 570 1454 570 1454 517 1410 c 128,-1,46
 464 1366 464 1366 416.5 1288 c 0,47,48
 307 1108.18947368 307 1108.18947368 307 815 c 2,49,-1
 307 782 l 1,36,37
EndSplineSet
EndChar

StartChar: f
Encoding: 102 102 73
Width: 1069
GlyphClass: 2
Flags: HW
LayerCount: 2
Fore
SplineSet
-228 -1000.5 m 128,-1,1
 -311 -944 -311 -944 -311 -857 c 128,-1,2
 -311 -770 -311 -770 -276.5 -714.5 c 128,-1,3
 -242 -659 -242 -659 -202 -659 c 128,-1,4
 -162 -659 -162 -659 -144 -666.5 c 128,-1,5
 -126 -674 -126 -674 -111 -692 c 128,-1,6
 -96 -710 -96 -710 -88 -722.5 c 128,-1,7
 -80 -735 -80 -735 -65.5 -764 c 0,8,9
 9 -913 9 -913 110 -913 c 128,-1,10
 211 -913 211 -913 247.5 -707.5 c 128,-1,11
 284 -502 284 -502 309.5 -128 c 128,-1,12
 335 246 335 246 354.5 549 c 128,-1,13
 374 852 374 852 430 1475 c 1,14,-1
 143 1475 l 1,15,-1
 143 1606 l 1,16,-1
 434 1606 l 1,17,18
 440 1664 440 1664 447.5 1754.5 c 128,-1,19
 455 1845 455 1845 460 1904 c 128,-1,20
 465 1963 465 1963 475 2045 c 128,-1,21
 485 2127 485 2127 496.5 2185 c 128,-1,22
 508 2243 508 2243 527.5 2313.5 c 128,-1,23
 547 2384 547 2384 571.5 2437.5 c 0,24,25
 628.103448276 2561.10344828 628.103448276 2561.10344828 727.051724138 2660.05172414 c 0,26,27
 942 2875 942 2875 1176 2875 c 0,28,29
 1300 2875 1300 2875 1362.5 2810.5 c 128,-1,30
 1425 2746 1425 2746 1425 2672 c 128,-1,31
 1425 2598 1425 2598 1396 2554.5 c 128,-1,32
 1367 2511 1367 2511 1327.5 2511 c 128,-1,33
 1288 2511 1288 2511 1257.5 2531 c 128,-1,34
 1227 2551 1227 2551 1202 2580 c 128,-1,35
 1177 2609 1177 2609 1152 2638 c 0,36,37
 1092.51724138 2707 1092.51724138 2707 1044 2707 c 0,38,39
 887 2707 887 2707 807 2480 c 0,40,41
 748 2314 748 2314 726.5 2094 c 128,-1,42
 705 1874 705 1874 695 1766 c 128,-1,43
 685 1658 685 1658 680 1606 c 1,44,-1
 987 1606 l 1,45,-1
 979 1475 l 1,46,-1
 672 1475 l 1,47,48
 664 1364 664 1364 624 735.5 c 128,-1,49
 584 107 584 107 572 -35 c 128,-1,50
 560 -177 560 -177 541 -321.5 c 128,-1,51
 522 -466 522 -466 499 -560.5 c 128,-1,52
 476 -655 476 -655 442.5 -745 c 128,-1,53
 409 -835 409 -835 366 -887.5 c 128,-1,54
 323 -940 323 -940 265 -982 c 0,55,56
 161.428571429 -1057 161.428571429 -1057 8.21428571429 -1057 c 128,-1,0
 -145 -1057 -145 -1057 -228 -1000.5 c 128,-1,1
EndSplineSet
EndChar

StartChar: g
Encoding: 103 103 74
Width: 1589
GlyphClass: 2
Flags: HW
LayerCount: 2
Fore
SplineSet
479 385 m 1,0,1
 303 284.428571429 303 284.428571429 303 180 c 0,2,3
 303 147.333333333 303 147.333333333 331 128.666666667 c 128,-1,4
 359 110 359 110 379.5 98.5 c 128,-1,5
 400 87 400 87 435 75 c 128,-1,6
 470 63 470 63 498.5 53.5 c 128,-1,7
 527 44 527 44 573 33 c 128,-1,8
 619 22 619 22 651 14.5 c 128,-1,9
 683 7 683 7 736 -4 c 0,10,11
 824.333333333 -22.3333333333 824.333333333 -22.3333333333 945.666666667 -44.1666666667 c 0,12,13
 1438 -132.759615385 1438 -132.759615385 1438 -463 c 0,14,15
 1438 -642 1438 -642 1311 -784 c 128,-1,16
 1184 -926 1184 -926 975.5 -1001.5 c 128,-1,17
 767 -1077 767 -1077 573 -1077 c 128,-1,18
 379 -1077 379 -1077 264 -1047.5 c 128,-1,19
 149 -1018 149 -1018 76.5 -972 c 128,-1,20
 4 -926 4 -926 -45.5 -866.5 c 0,21,22
 -135 -758.919191919 -135 -758.919191919 -135 -663.45959596 c 128,-1,23
 -135 -568 -135 -568 -115.5 -513 c 128,-1,24
 -96 -458 -96 -458 -65 -423 c 128,-1,25
 -34 -388 -34 -388 3.5 -362 c 128,-1,26
 41 -336 41 -336 78.5 -323 c 0,27,28
 162.539379475 -293.866348449 162.539379475 -293.866348449 217 -291 c 1,29,-1
 242 -377 l 1,30,31
 150.016 -392.330666667 150.016 -392.330666667 106.5 -482 c 0,32,33
 90 -516 90 -516 90 -568 c 128,-1,34
 90 -620 90 -620 124.5 -685.5 c 128,-1,35
 159 -751 159 -751 221.5 -807 c 0,36,37
 363.241071429 -934 363.241071429 -934 598 -934 c 0,38,39
 746 -934 746 -934 880.5 -880 c 128,-1,40
 1015 -826 1015 -826 1095.5 -738 c 128,-1,41
 1176 -650 1176 -650 1176 -564 c 128,-1,42
 1176 -478 1176 -478 1103.5 -430 c 128,-1,43
 1031 -382 1031 -382 953.5 -362.5 c 128,-1,44
 876 -343 876 -343 809 -325.5 c 128,-1,45
 742 -308 742 -308 693 -294.5 c 128,-1,46
 644 -281 644 -281 555.5 -253.5 c 128,-1,47
 467 -226 467 -226 415 -204 c 128,-1,48
 363 -182 363 -182 296.5 -147 c 128,-1,49
 230 -112 230 -112 194 -78 c 0,50,51
 106 5.11111111111 106 5.11111111111 106 98 c 0,52,53
 106 237.327272727 106 237.327272727 299.5 367.5 c 0,54,55
 327 386 327 386 377 418 c 1,56,57
 275 465 275 465 219.5 574 c 128,-1,58
 164 683 164 683 164 800.5 c 128,-1,59
 164 918 164 918 196.5 1039 c 128,-1,60
 229 1160 229 1160 291 1271 c 128,-1,61
 353 1382 353 1382 434 1471 c 0,62,63
 612.382022472 1667 612.382022472 1667 836 1667 c 0,64,65
 950.926829268 1667 950.926829268 1667 1029.46341463 1632 c 128,-1,66
 1108 1597 1108 1597 1152.5 1577 c 0,67,68
 1261.525 1528 1261.525 1528 1364 1528 c 0,69,70
 1407 1528 1407 1528 1446 1577 c 1,71,-1
 1475 1610 l 1,72,-1
 1556 1569 l 1,73,74
 1537 1524 1537 1524 1495.5 1424.5 c 128,-1,75
 1454 1325 1454 1325 1434.5 1299.5 c 128,-1,76
 1415 1274 1415 1274 1382 1274 c 0,77,78
 1332 1274 1332 1274 1204 1298 c 1,79,80
 1212 1224 1212 1224 1212 1157 c 128,-1,81
 1212 1090 1212 1090 1188 983 c 128,-1,82
 1164 876 1164 876 1113 767.5 c 128,-1,83
 1062 659 1062 659 991 571.5 c 0,84,85
 829.931428571 373 829.931428571 373 594 373 c 0,86,87
 540 373 540 373 479 385 c 1,0,1
480 1208 m 128,-1,89
 430 1069 430 1069 430 954 c 128,-1,90
 430 839 430 839 457 755 c 128,-1,91
 484 671 484 671 524 618 c 0,92,93
 610.037735849 504 610.037735849 504 686.518867925 504 c 128,-1,94
 763 504 763 504 829.5 603.5 c 0,95,96
 971 815.218045113 971 815.218045113 971 1143 c 0,97,98
 971 1293 971 1293 902 1408.5 c 128,-1,99
 833 1524 833 1524 757.5 1524 c 128,-1,100
 682 1524 682 1524 606 1435.5 c 128,-1,88
 530 1347 530 1347 480 1208 c 128,-1,89
EndSplineSet
Substitution2: "'swsh' Swash in Latin lookup 13 subtable" g.001
AlternateSubs2: "'aalt' Access All Alternates in Latin lookup 1 subtable" g.001
AlternateSubs2: "'aalt' Access All Alternates lookup 0 subtable" g.001
EndChar

StartChar: h
Encoding: 104 104 75
Width: 1753
GlyphClass: 2
Flags: HW
LayerCount: 2
Fore
SplineSet
414 2666 m 2,0,1
 414 2740 414 2740 381 2740 c 0,2,3
 339 2740 339 2740 119 2679 c 1,4,-1
 102 2773 l 1,5,6
 228 2808 228 2808 414.5 2850 c 128,-1,7
 601 2892 601 2892 646.5 2892 c 128,-1,8
 692 2892 692 2892 692 2856 c 128,-1,9
 692 2820 692 2820 656 2439 c 0,10,11
 536.58807947 1175.22384106 536.58807947 1175.22384106 508 778 c 1,12,13
 842.493379107 1349.42618931 842.493379107 1349.42618931 1093 1543.5 c 0,14,15
 1184 1614 1184 1614 1249 1614 c 0,16,17
 1401 1614 1401 1614 1401 1188 c 0,18,19
 1401 1025 1401 1025 1358 748.5 c 128,-1,20
 1315 472 1315 472 1315 389.5 c 128,-1,21
 1315 307 1315 307 1342.5 307 c 0,22,23
 1398.18681319 307 1398.18681319 307 1565 537 c 1,24,-1
 1630 631 l 1,25,-1
 1692 586 l 1,26,27
 1577.45454545 381.454545455 1577.45454545 381.454545455 1400.22727273 205.727272727 c 128,-1,28
 1223 30 1223 30 1182.5 0.5 c 128,-1,29
 1142 -29 1142 -29 1102 -29 c 0,30,31
 1049 -29 1049 -29 1049 49.5 c 128,-1,32
 1049 128 1049 128 1098 589 c 128,-1,33
 1147 1050 1147 1050 1147 1194.5 c 128,-1,34
 1147 1339 1147 1339 1088.5 1339 c 128,-1,35
 1030 1339 1030 1339 906.5 1208 c 128,-1,36
 783 1077 783 1077 665 888.5 c 128,-1,37
 547 700 547 700 514 551 c 128,-1,38
 481 402 481 402 475 238 c 2,39,-1
 471 119 l 1,40,41
 471 53 471 53 446 26.5 c 128,-1,42
 421 0 421 0 335.5 0 c 128,-1,43
 250 0 250 0 250 61 c 0,44,45
 250 122.25 250 122.25 273.5 433.625 c 128,-1,46
 297 745 297 745 312.5 1001 c 128,-1,47
 328 1257 328 1257 349.5 1586 c 128,-1,48
 371 1915 371 1915 381.5 2072 c 128,-1,49
 392 2229 392 2229 400 2339 c 128,-1,50
 408 2449 408 2449 410 2491.5 c 0,51,52
 414 2576.5 414 2576.5 414 2617.25 c 2,53,-1
 414 2666 l 2,0,1
EndSplineSet
EndChar

StartChar: k
Encoding: 107 107 78
Width: 1662
GlyphClass: 2
Flags: HW
LayerCount: 2
Fore
SplineSet
389 2744 m 1,0,-1
 123 2683 l 1,1,-1
 102 2777 l 1,2,3
 217 2809 217 2809 419.5 2848.5 c 128,-1,4
 622 2888 622 2888 671.5 2888 c 128,-1,5
 721 2888 721 2888 721 2845.5 c 0,6,7
 721 2769.96078431 721 2769.96078431 567 1236 c 2,8,-1
 516 729 l 1,9,10
 1016.93448276 1051.02931034 1016.93448276 1051.02931034 1165 1303.5 c 0,11,12
 1204 1370 1204 1370 1204 1421 c 0,13,14
 1204 1491 1204 1491 1102 1491 c 2,15,-1
 1020 1491 l 1,16,-1
 905 1487 l 1,17,-1
 913 1577 l 1,18,19
 1093 1593 1093 1593 1262 1593 c 128,-1,20
 1431 1593 1431 1593 1471 1587.5 c 0,21,22
 1532 1579.1125 1532 1579.1125 1532 1552 c 0,23,24
 1532 1457.21212121 1532 1457.21212121 1294 1212 c 0,25,26
 1143.45567867 1057.59556787 1143.45567867 1057.59556787 960 927 c 2,27,-1
 901 885 l 1,28,29
 1018.5128866 579.466494845 1018.5128866 579.466494845 1158.5 368.5 c 0,30,31
 1242.43925234 242 1242.43925234 242 1288.21962617 242 c 0,32,33
 1371.49367089 242 1371.49367089 242 1488 478 c 1,34,-1
 1528 557 l 1,35,-1
 1622 504 l 1,36,37
 1471.71532847 186.732360097 1471.71532847 186.732360097 1296.5 22 c 0,38,39
 1238 -33 1238 -33 1195.5 -33 c 128,-1,40
 1153 -33 1153 -33 1084.5 48 c 128,-1,41
 1016 129 1016 129 952.5 244.5 c 0,42,43
 814.512124949 495.485819975 814.512124949 495.485819975 740 673 c 1,44,-1
 705 754 l 1,45,-1
 508 618 l 1,46,47
 483 327 483 327 479 225 c 2,48,-1
 475 106 l 1,49,50
 475 41 475 41 450.5 16.5 c 128,-1,51
 426 -8 426 -8 325.5 -8 c 128,-1,52
 225 -8 225 -8 225 49 c 0,53,54
 225 60 225 60 256.5 391 c 0,55,56
 359.768620712 1476.14010971 359.768620712 1476.14010971 434 2691 c 1,57,-1
 434 2695 l 2,58,59
 434 2744 434 2744 389 2744 c 1,0,-1
EndSplineSet
Substitution2: "'swsh' Swash in Latin lookup 13 subtable" k.001
AlternateSubs2: "'aalt' Access All Alternates in Latin lookup 1 subtable" k.001
AlternateSubs2: "'aalt' Access All Alternates lookup 0 subtable" k.001
EndChar

StartChar: l
Encoding: 108 108 79
Width: 937
GlyphClass: 2
Flags: HW
LayerCount: 2
Fore
SplineSet
401 2679 m 1,0,1
 401 2736 401 2736 342.710526316 2736 c 128,-1,2
 284.421052632 2736 284.421052632 2736 86 2671 c 1,3,-1
 61 2781 l 1,4,5
 525 2916 525 2916 617 2916 c 128,-1,6
 709 2916 709 2916 709 2851 c 0,7,8
 709 2840 709 2840 699 2741.5 c 0,9,10
 635.152093421 2112.59812019 635.152093421 2112.59812019 577.57604671 1272.2990601 c 128,-1,11
 520 432 520 432 520 414 c 0,12,13
 520 324 520 324 553 324 c 0,14,15
 596.552380952 324 596.552380952 324 659.276190476 413 c 0,16,17
 760.041275797 555.977485929 760.041275797 555.977485929 810 644 c 1,18,-1
 831 680 l 1,19,-1
 922 614 l 1,20,21
 777.722036728 341.474958264 777.722036728 341.474958264 588.5 140.5 c 0,22,23
 508 55 508 55 441 7 c 128,-1,24
 374 -41 374 -41 319 -41 c 0,25,26
 254 -41 254 -41 254 82 c 1,27,-1
 401 2679 l 1,0,1
EndSplineSet
EndChar

StartChar: m
Encoding: 109 109 80
Width: 2490
GlyphClass: 2
Flags: HW
LayerCount: 2
Fore
SplineSet
336 644.5 m 128,-1,1
 389 1229 389 1229 389 1333.5 c 128,-1,2
 389 1438 389 1438 336 1438 c 0,3,4
 319 1438 319 1438 250 1413 c 1,5,-1
 78 1339 l 1,6,-1
 41 1450 l 1,7,8
 187 1517 187 1517 381 1586 c 128,-1,9
 575 1655 575 1655 633.5 1655 c 128,-1,10
 692 1655 692 1655 692 1596.5 c 128,-1,11
 692 1538 692 1538 671.5 1406.5 c 0,12,13
 608.813553114 1004.38937729 608.813553114 1004.38937729 606 799 c 1,14,15
 616 816 616 816 633 845.5 c 128,-1,16
 650 875 650 875 703 960.5 c 128,-1,17
 756 1046 756 1046 808.5 1124 c 128,-1,18
 861 1202 861 1202 933 1297 c 128,-1,19
 1005 1392 1005 1392 1069 1460 c 0,20,21
 1221.47058824 1622 1221.47058824 1622 1319 1622 c 0,22,23
 1405 1622 1405 1622 1405 1343 c 0,24,25
 1405 1170 1405 1170 1386 904 c 2,26,-1
 1380 819 l 1,27,28
 1403 856 1403 856 1441.5 918 c 0,29,30
 1597.58977035 1169.36534447 1597.58977035 1169.36534447 1734.79488518 1332.18267223 c 0,31,32
 1985.76363164 1630 1985.76363164 1630 2093 1630 c 0,33,34
 2139.4 1630 2139.4 1630 2154.2 1593 c 128,-1,35
 2169 1556 2169 1556 2175 1533 c 128,-1,36
 2181 1510 2181 1510 2183.5 1472.5 c 0,37,38
 2187 1420 2187 1420 2187 1317 c 128,-1,39
 2187 1214 2187 1214 2152.5 872 c 128,-1,40
 2118 530 2118 530 2118 431 c 128,-1,41
 2118 332 2118 332 2175 332 c 0,42,43
 2215.3220339 332 2215.3220339 332 2310 479 c 1,44,45
 2353.80952381 542.523809524 2353.80952381 542.523809524 2376 598 c 1,46,-1
 2449 561 l 1,47,48
 2384 419 2384 419 2277.5 280.5 c 128,-1,49
 2171 142 2171 142 2068.5 58.5 c 128,-1,50
 1966 -25 1966 -25 1905 -25 c 0,51,52
 1827 -25 1827 -25 1827 147 c 0,53,54
 1827 236 1827 236 1880 629.5 c 128,-1,55
 1933 1023 1933 1023 1933 1097.5 c 2,56,-1
 1933 1185.5 l 2,57,58
 1933 1286 1933 1286 1884 1286 c 0,59,60
 1813.56682028 1286 1813.56682028 1286 1634.5 1038.5 c 0,61,62
 1446.11835184 778.125365283 1446.11835184 778.125365283 1356 475 c 0,63,64
 1356 474 1356 474 1352.5 458.5 c 128,-1,65
 1349 443 1349 443 1346 422 c 128,-1,66
 1343 401 1343 401 1339.5 361 c 0,67,68
 1330.72265625 260.6875 1330.72265625 260.6875 1328.86132812 149.34375 c 128,-1,69
 1327 38 1327 38 1305.5 17 c 128,-1,70
 1284 -4 1284 -4 1221 -4 c 2,71,-1
 1155 -4 l 2,72,73
 1061 -4 1061 -4 1061 53 c 0,74,75
 1061 68 1061 68 1110 540 c 128,-1,76
 1159 1012 1159 1012 1159 1113 c 0,77,78
 1159 1278 1159 1278 1100.5 1278 c 128,-1,79
 1042 1278 1042 1278 921.5 1110.5 c 128,-1,80
 801 943 801 943 701.5 747.5 c 128,-1,81
 602 552 602 552 596.5 494 c 128,-1,82
 591 436 591 436 582 368 c 0,83,84
 564 232 564 232 557 78 c 1,85,86
 557 42 557 42 528.5 21 c 128,-1,87
 500 0 500 0 459 0 c 2,88,-1
 381 0 l 2,89,90
 283 0 283 0 283 57 c 0,91,0
 283 60 283 60 336 644.5 c 128,-1,1
EndSplineSet
EndChar

StartChar: n
Encoding: 110 110 81
Width: 1683
GlyphClass: 2
Flags: HW
LayerCount: 2
Fore
SplineSet
307.5 818 m 128,-1,1
 332 1230 332 1230 332 1334 c 128,-1,2
 332 1438 332 1438 287 1438 c 0,3,4
 256.6 1438 256.6 1438 137 1392 c 1,5,-1
 98 1376 l 1,6,-1
 61 1462 l 1,7,8
 79 1468 79 1468 195 1513.5 c 0,9,10
 502.208791209 1634 502.208791209 1634 569 1634 c 0,11,12
 623 1634 623 1634 623 1569 c 0,13,14
 623 1544 623 1544 607.5 1427 c 0,15,16
 560.413651316 1071.57401316 560.413651316 1071.57401316 557 778 c 1,17,18
 1036.90204082 1630 1036.90204082 1630 1311 1630 c 0,19,20
 1409 1630 1409 1630 1409 1360 c 0,21,22
 1409 1185 1409 1185 1368 843 c 128,-1,23
 1327 501 1327 501 1327 414.5 c 128,-1,24
 1327 328 1327 328 1360 328 c 0,25,26
 1393.65277778 328 1393.65277778 328 1519.5 549 c 0,27,28
 1540 585 1540 585 1552 606 c 1,29,-1
 1622 569 l 1,30,31
 1556 425 1556 425 1454.5 285 c 128,-1,32
 1353 145 1353 145 1253.5 58 c 128,-1,33
 1154 -29 1154 -29 1097 -29 c 128,-1,34
 1040 -29 1040 -29 1040 65.5 c 128,-1,35
 1040 160 1040 160 1093.5 560 c 128,-1,36
 1147 960 1147 960 1147 1143.5 c 128,-1,37
 1147 1327 1147 1327 1081 1327 c 0,38,39
 1037 1327 1037 1327 938.5 1211 c 128,-1,40
 840 1095 840 1095 735 922.5 c 128,-1,41
 630 750 630 750 589 644.5 c 128,-1,42
 548 539 548 539 535.5 481.5 c 128,-1,43
 523 424 523 424 520 383.5 c 128,-1,44
 517 343 517 343 512 249 c 128,-1,45
 507 155 507 155 502 97 c 0,46,47
 493.293103448 -4 493.293103448 -4 393 -4 c 2,48,-1
 328 -4 l 2,49,50
 290 -4 290 -4 268.5 9.5 c 128,-1,51
 247 23 247 23 250 57 c 0,52,0
 283 406 283 406 307.5 818 c 128,-1,1
EndSplineSet
EndChar

StartChar: o
Encoding: 111 111 82
Width: 1351
GlyphClass: 2
Flags: HW
LayerCount: 2
Fore
SplineSet
82 524 m 0,0,1
 82 1011 82 1011 400 1373 c 0,2,3
 635.375 1642 635.375 1642 856 1642 c 0,4,5
 1074.54954955 1642 1074.54954955 1642 1189 1443.5 c 0,6,7
 1270 1303.015625 1270 1303.015625 1270 1097.5078125 c 128,-1,8
 1270 892 1270 892 1202 687.5 c 128,-1,9
 1134 483 1134 483 1027.5 321.5 c 128,-1,10
 921 160 921 160 780.5 55.5 c 128,-1,11
 640 -49 640 -49 510 -49 c 128,-1,12
 380 -49 380 -49 282.5 29.5 c 0,13,14
 82 190.928205128 82 190.928205128 82 524 c 0,0,1
395.5 1005.5 m 128,-1,16
 356 852 356 852 356 695.5 c 128,-1,17
 356 539 356 539 387.5 405.5 c 128,-1,18
 419 272 419 272 480 189 c 128,-1,19
 541 106 541 106 626 106 c 128,-1,20
 711 106 711 106 802 243.5 c 128,-1,21
 893 381 893 381 948.5 583.5 c 128,-1,22
 1004 786 1004 786 1004 922.5 c 128,-1,23
 1004 1059 1004 1059 989.5 1148 c 128,-1,24
 975 1237 975 1237 947 1320.5 c 128,-1,25
 919 1404 919 1404 868.5 1457.5 c 128,-1,26
 818 1511 818 1511 756 1511 c 128,-1,27
 694 1511 694 1511 624 1443.5 c 128,-1,28
 554 1376 554 1376 494.5 1267.5 c 128,-1,15
 435 1159 435 1159 395.5 1005.5 c 128,-1,16
EndSplineSet
EndChar

StartChar: p
Encoding: 112 112 83
Width: 1511
GlyphClass: 2
Flags: HW
LayerCount: 2
Fore
SplineSet
545 -930 m 1,0,-1
 913 -905 l 1,1,-1
 909 -1016 l 1,2,-1
 -86 -1110 l 1,3,-1
 -86 -991 l 1,4,5
 -41 -987 -41 -987 21 -982 c 128,-1,6
 83 -977 83 -977 104 -975 c 128,-1,7
 125 -973 125 -973 151 -966.5 c 128,-1,8
 177 -960 177 -960 183 -956.5 c 128,-1,9
 189 -953 189 -953 197 -938 c 128,-1,10
 205 -923 205 -923 205.5 -911 c 128,-1,11
 206 -899 206 -899 207.5 -878.5 c 0,12,13
 309.256157635 512.167487685 309.256157635 512.167487685 339.628078818 834.583743842 c 128,-1,14
 370 1157 370 1157 377 1221.5 c 128,-1,15
 384 1286 384 1286 388.5 1323 c 128,-1,16
 393 1360 393 1360 393 1395 c 128,-1,17
 393 1430 393 1430 362.617647059 1430 c 128,-1,18
 332.235294118 1430 332.235294118 1430 102 1327 c 1,19,-1
 61 1421 l 1,20,21
 219.823529412 1500.41176471 219.823529412 1500.41176471 400.411764706 1575.70588235 c 128,-1,22
 581 1651 581 1651 630.5 1651 c 128,-1,23
 680 1651 680 1651 680 1602 c 0,24,25
 680 1588.02439024 680 1588.02439024 646 1386.51219512 c 128,-1,26
 612 1185 612 1185 602 1118 c 1,27,28
 952 1618 952 1618 1196 1618 c 0,29,30
 1311 1618 1311 1618 1380.5 1509.5 c 128,-1,31
 1450 1401 1450 1401 1450 1207 c 0,32,33
 1450 870.333333333 1450 870.333333333 1278 512 c 1,34,35
 1173 296 1173 296 1019.5 135.5 c 128,-1,36
 866 -25 866 -25 762 -25 c 0,37,38
 651 -25 651 -25 558 62 c 2,39,-1
 528 90 l 1,40,-1
 467 -827 l 1,41,42
 467 -914.6875 467 -914.6875 491.5 -922.34375 c 128,-1,43
 516 -930 516 -930 545 -930 c 1,0,-1
553 554 m 128,-1,45
 553 383 553 383 613.5 271.5 c 128,-1,46
 674 160 674 160 751.5 160 c 128,-1,47
 829 160 829 160 895.5 201.5 c 128,-1,48
 962 243 962 243 1021.5 318 c 128,-1,49
 1081 393 1081 393 1130 487 c 0,50,51
 1237 692.265306122 1237 692.265306122 1237 922 c 0,52,53
 1237 1054.97826087 1237 1054.97826087 1203.5 1163.48913043 c 0,54,55
 1140.36241611 1368 1140.36241611 1368 1016 1368 c 0,56,57
 918.095890411 1368 918.095890411 1368 789 1216 c 0,58,59
 647.148365465 1048.98113998 647.148365465 1048.98113998 600.074182733 886.990569992 c 128,-1,44
 553 725 553 725 553 554 c 128,-1,45
EndSplineSet
EndChar

StartChar: q
Encoding: 113 113 84
Width: 1404
GlyphClass: 2
Flags: HW
LayerCount: 2
Fore
SplineSet
1180 -930 m 1,0,-1
 1343 -926 l 1,1,-1
 1343 -1024 l 1,2,-1
 348 -1106 l 1,3,-1
 352 -971 l 1,4,5
 496.16 -960.12 496.16 -960.12 546.08 -958.56 c 128,-1,6
 596 -957 596 -957 636 -952.5 c 128,-1,7
 676 -948 676 -948 693 -944 c 128,-1,8
 710 -940 710 -940 732 -930 c 128,-1,9
 754 -920 754 -920 761.5 -908.5 c 128,-1,10
 769 -897 769 -897 778.5 -876 c 0,11,12
 790.379439252 -849.740186916 790.379439252 -849.740186916 799 -770 c 2,13,-1
 930 598 l 1,14,15
 687.515075377 147.670854271 687.515075377 147.670854271 453.5 22.5 c 0,16,17
 389 -12 389 -12 321.5 -12 c 128,-1,18
 254 -12 254 -12 195.5 56.5 c 0,19,20
 82 189.401709402 82 189.401709402 82 446 c 0,21,22
 82 561 82 561 115.5 740.5 c 128,-1,23
 149 920 149 920 205.5 1054.5 c 128,-1,24
 262 1189 262 1189 347.5 1305.5 c 128,-1,25
 433 1422 433 1422 516.5 1488 c 0,26,27
 686.03030303 1622 686.03030303 1622 799 1622 c 0,28,29
 963.260869565 1622 963.260869565 1622 1110 1397 c 1,30,31
 1147 1606 1147 1606 1167 1688 c 1,32,-1
 1270 1671 l 1,33,34
 1148.22187654 973.003438677 1148.22187654 973.003438677 1104.61093827 132.501719338 c 128,-1,35
 1061 -708 1061 -708 1061 -801.5 c 128,-1,36
 1061 -895 1061 -895 1083.5 -912.5 c 128,-1,37
 1106 -930 1106 -930 1180 -930 c 1,0,-1
344 938.5 m 128,-1,39
 311 804 311 804 311 701 c 128,-1,40
 311 598 311 598 325.5 516 c 128,-1,41
 340 434 340 434 362 384.5 c 128,-1,42
 384 335 384 335 413 301.5 c 0,43,44
 544.159917874 149.987681077 544.159917874 149.987681077 726.5 406.5 c 0,45,46
 756 448 756 448 809 532 c 128,-1,47
 862 616 862 616 904 764 c 128,-1,48
 946 912 946 912 946 1036 c 128,-1,49
 946 1160 946 1160 921 1242.5 c 128,-1,50
 896 1325 896 1325 857.5 1373.5 c 0,51,52
 776.927835052 1475 776.927835052 1475 701.463917526 1475 c 128,-1,53
 626 1475 626 1475 553.5 1393 c 128,-1,54
 481 1311 481 1311 429 1192 c 128,-1,38
 377 1073 377 1073 344 938.5 c 128,-1,39
EndSplineSet
EndChar

StartChar: r
Encoding: 114 114 85
Width: 1368
GlyphClass: 2
Flags: HW
LayerCount: 2
Fore
SplineSet
356 -4 m 2,0,1
 274 -4 274 -4 274 49 c 1,2,3
 368 1077 368 1077 377 1356 c 1,4,5
 377 1446 377 1446 319 1446 c 0,6,7
 285.6 1446 285.6 1446 226.8 1421.5 c 128,-1,8
 168 1397 168 1397 121 1377.5 c 128,-1,9
 74 1358 74 1358 70 1356 c 1,10,-1
 41 1450 l 1,11,12
 497.681818182 1647 497.681818182 1647 618 1647 c 0,13,14
 668 1647 668 1647 668 1593.5 c 0,15,16
 668 1495.80952381 668 1495.80952381 604 1060 c 1,17,-1
 582 918 l 1,18,19
 739.159651669 1254.77068215 739.159651669 1254.77068215 940.5 1490 c 0,20,21
 1060.33050847 1630 1060.33050847 1630 1147 1630 c 0,22,23
 1179 1630 1179 1630 1222 1573 c 0,24,25
 1327 1433.81395349 1327 1433.81395349 1327 1312.90697674 c 128,-1,26
 1327 1192 1327 1192 1274 1192 c 0,27,28
 1249 1192 1249 1192 1220 1217.5 c 0,29,30
 1133 1294 1133 1294 1073 1294 c 128,-1,31
 1013 1294 1013 1294 940.5 1238.5 c 128,-1,32
 868 1183 868 1183 810.5 1089.5 c 0,33,34
 582.161130851 718.20114321 582.161130851 718.20114321 546.5 197 c 0,35,36
 540 102 540 102 537 65.5 c 0,37,38
 531.287671233 -4 531.287671233 -4 451 -4 c 2,39,-1
 356 -4 l 2,0,1
EndSplineSet
EndChar

StartChar: s
Encoding: 115 115 86
Width: 1294
GlyphClass: 2
Flags: HW
LayerCount: 2
Fore
SplineSet
263.5 0.5 m 128,-1,1
 165 30 165 30 133.5 69 c 128,-1,2
 102 108 102 108 102 209 c 0,3,4
 102 414 102 414 201 414 c 0,5,6
 253.985074627 414 253.985074627 414 291 336.5 c 0,7,8
 366.368857558 178.696454489 366.368857558 178.696454489 454.5 137 c 0,9,10
 501 115 501 115 561 115 c 0,11,12
 696 115 696 115 788.5 201.5 c 128,-1,13
 881 288 881 288 881 414 c 0,14,15
 881 534.547368421 881 534.547368421 774.5 654.5 c 0,16,17
 727 708 727 708 669.5 762.5 c 128,-1,18
 612 817 612 817 555 874 c 128,-1,19
 498 931 498 931 450.5 990.5 c 0,20,21
 344 1123.90526316 344 1123.90526316 344 1257.95263158 c 128,-1,22
 344 1392 344 1392 417.5 1475.5 c 0,23,24
 557.017964072 1634 557.017964072 1634 848 1634 c 0,25,26
 1026 1634 1026 1634 1122 1538 c 0,27,28
 1171 1489 1171 1489 1171 1441 c 128,-1,29
 1171 1393 1171 1393 1150 1362 c 128,-1,30
 1129 1331 1129 1331 1091 1331 c 128,-1,31
 1053 1331 1053 1331 1012 1350 c 128,-1,32
 971 1369 971 1369 939.5 1396 c 128,-1,33
 908 1423 908 1423 876.5 1450.5 c 0,34,35
 801.472727273 1516 801.472727273 1516 725.236363636 1516 c 128,-1,36
 649 1516 649 1516 603 1476 c 128,-1,37
 557 1436 557 1436 557 1379.5 c 128,-1,38
 557 1323 557 1323 588.5 1265 c 128,-1,39
 620 1207 620 1207 670 1152 c 128,-1,40
 720 1097 720 1097 781 1038 c 128,-1,41
 842 979 842 979 902.5 915 c 128,-1,42
 963 851 963 851 1013 785 c 0,43,44
 1126 635.84 1126 635.84 1126 512.42 c 128,-1,45
 1126 389 1126 389 1077 296 c 128,-1,46
 1028 203 1028 203 946 131.5 c 0,47,48
 761.93006993 -29 761.93006993 -29 504 -29 c 0,49,0
 362 -29 362 -29 263.5 0.5 c 128,-1,1
EndSplineSet
Substitution2: "'hist' Historical Forms in Latin lookup 12 subtable" longs
AlternateSubs2: "'aalt' Access All Alternates in Latin lookup 1 subtable" longs
AlternateSubs2: "'aalt' Access All Alternates lookup 0 subtable" longs
EndChar

StartChar: t
Encoding: 116 116 87
Width: 1159
GlyphClass: 2
Flags: HW
LayerCount: 2
Fore
SplineSet
762 2007 m 1,0,-1
 688 1606 l 1,1,-1
 1049 1606 l 1,2,-1
 1032 1479 l 1,3,-1
 668 1479 l 1,4,5
 668 1476 668 1476 661.5 1421.5 c 128,-1,6
 655 1367 655 1367 648 1301 c 128,-1,7
 641 1235 641 1235 631.5 1135.5 c 128,-1,8
 622 1036 622 1036 615 940 c 0,9,10
 598 706.857142857 598 706.857142857 598 584.928571429 c 128,-1,11
 598 463 598 463 601 419 c 128,-1,12
 604 375 604 375 612.5 329.5 c 0,13,14
 629.593406593 238 629.593406593 238 688 238 c 0,15,16
 728 238 728 238 808 302.5 c 128,-1,17
 888 367 888 367 948 432 c 2,18,-1
 1008 496 l 1,19,-1
 1077 430 l 1,20,21
 896.347461016 160.330267893 896.347461016 160.330267893 620 34 c 0,22,23
 501.875 -20 501.875 -20 448.9375 -20 c 128,-1,24
 396 -20 396 -20 357.5 29.5 c 128,-1,25
 319 79 319 79 319 147 c 0,26,27
 319 711.76 319 711.76 393 1286 c 2,28,-1
 418 1479 l 1,29,-1
 102 1479 l 1,30,-1
 115 1606 l 1,31,-1
 438 1606 l 1,32,-1
 496 1950 l 1,33,34
 499 1974 499 1974 591.5 2017 c 128,-1,35
 684 2060 684 2060 723 2060 c 128,-1,36
 762 2060 762 2060 762 2007 c 1,0,-1
EndSplineSet
EndChar

StartChar: u
Encoding: 117 117 88
Width: 1937
GlyphClass: 2
Flags: HW
LayerCount: 2
Fore
SplineSet
438 -37 m 0,0,1
 340 -37 340 -37 340 197 c 0,2,3
 340 332 340 332 387 740 c 128,-1,4
 434 1148 434 1148 434 1335 c 0,5,6
 434 1430 434 1430 381 1430 c 0,7,8
 358 1430 358 1430 332 1417 c 1,9,-1
 147 1335 l 1,10,-1
 102 1446 l 1,11,12
 255.270198675 1515.1218543 255.270198675 1515.1218543 440.135099338 1581.06092715 c 128,-1,13
 625 1647 625 1647 680 1647 c 0,14,15
 750 1647 750 1647 750 1561 c 0,16,17
 750 1517 750 1517 719.5 1358 c 128,-1,18
 689 1199 689 1199 662 942 c 128,-1,19
 635 685 635 685 635 494 c 128,-1,20
 635 303 635 303 684 303 c 0,21,22
 720 303 720 303 795.5 381.5 c 128,-1,23
 871 460 871 460 957 588 c 128,-1,24
 1043 716 1043 716 1122.5 861.5 c 0,25,26
 1307 1199.16981132 1307 1199.16981132 1307 1421 c 2,27,-1
 1307 1511 l 2,28,29
 1307 1574 1307 1574 1332.5 1604 c 128,-1,30
 1358 1634 1358 1634 1425 1634 c 2,31,-1
 1524 1634 l 2,32,33
 1548 1634 1548 1634 1566 1618 c 128,-1,34
 1584 1602 1584 1602 1579 1551.5 c 128,-1,35
 1574 1501 1574 1501 1545 1235 c 0,36,37
 1483 666.310344828 1483 666.310344828 1483 397 c 0,38,39
 1483 319 1483 319 1528 319 c 0,40,41
 1557 319 1557 319 1620.5 394 c 128,-1,42
 1684 469 1684 469 1733 544 c 2,43,-1
 1782 618 l 1,44,-1
 1855 565 l 1,45,46
 1852 561 1852 561 1829.5 519.5 c 128,-1,47
 1807 478 1807 478 1780.5 437 c 128,-1,48
 1754 396 1754 396 1710 335 c 0,49,50
 1616.57929227 205.484927916 1616.57929227 205.484927916 1490.28964613 82.2424639581 c 128,-1,51
 1364 -41 1364 -41 1314 -41 c 0,52,53
 1208 -41 1208 -41 1208 156 c 0,54,55
 1208 247 1208 247 1234.5 514.5 c 128,-1,56
 1261 782 1261 782 1270 938 c 1,57,58
 1188 754 1188 754 1088.5 589 c 128,-1,59
 989 424 989 424 894.5 312 c 128,-1,60
 800 200 800 200 713.5 125.5 c 0,61,62
 524.825503356 -37 524.825503356 -37 438 -37 c 0,0,1
EndSplineSet
EndChar

StartChar: v
Encoding: 118 118 89
Width: 1568
GlyphClass: 2
Flags: HW
LayerCount: 2
Fore
SplineSet
1171 1520 m 0,0,1
 1171 1651 1171 1651 1294 1651 c 0,2,3
 1403.16981132 1651 1403.16981132 1651 1447.5 1524 c 0,4,5
 1466 1471 1466 1471 1466 1413 c 0,6,7
 1466 1230 1466 1230 1373 936.5 c 128,-1,8
 1280 643 1280 643 1169.5 473.5 c 128,-1,9
 1059 304 1059 304 964.5 202.5 c 128,-1,10
 870 101 870 101 788 46 c 0,11,12
 628.472727273 -61 628.472727273 -61 524 -61 c 0,13,14
 364.152173913 -61 364.152173913 -61 347 202 c 0,15,16
 344 248 344 248 344 428.5 c 128,-1,17
 344 609 344 609 414 1343 c 1,18,19
 420.525 1430 420.525 1430 360 1430 c 0,20,21
 337 1430 337 1430 311 1417 c 1,22,-1
 127 1339 l 1,23,-1
 102 1454 l 1,24,25
 206 1498 206 1498 365.5 1566 c 0,26,27
 593.022058824 1663 593.022058824 1663 635 1663 c 0,28,29
 709 1663 709 1663 709 1597 c 0,30,31
 709 1553 709 1553 686.5 1413.5 c 0,32,33
 618 988.8 618 988.8 618 782 c 2,34,-1
 618 602 l 2,35,36
 618 388 618 388 641.5 296.5 c 128,-1,37
 665 205 665 205 737 205 c 0,38,39
 791.651162791 205 791.651162791 205 887.325581395 307 c 128,-1,40
 983 409 983 409 1046 504 c 128,-1,41
 1109 599 1109 599 1160.5 704.5 c 0,42,43
 1278 945.203883495 1278 945.203883495 1278 1192 c 0,44,45
 1278 1284.25 1278 1284.25 1251 1328.125 c 128,-1,46
 1224 1372 1224 1372 1208.5 1395.5 c 0,47,48
 1171 1452.35483871 1171 1452.35483871 1171 1520 c 0,0,1
EndSplineSet
EndChar

StartChar: w
Encoding: 119 119 90
Width: 2506
GlyphClass: 2
Flags: HW
LayerCount: 2
Fore
SplineSet
400.5 871 m 128,-1,1
 441 1253 441 1253 441.5 1337 c 128,-1,2
 442 1421 442 1421 385 1421 c 0,3,4
 381 1421 381 1421 378 1420.5 c 128,-1,5
 375 1420 375 1420 371.5 1419.5 c 128,-1,6
 368 1419 368 1419 362.5 1417.5 c 128,-1,7
 357 1416 357 1416 351 1413.5 c 128,-1,8
 345 1411 345 1411 334.5 1406.5 c 128,-1,9
 324 1402 324 1402 313 1397.5 c 128,-1,10
 302 1393 302 1393 283.5 1384.5 c 128,-1,11
 265 1376 265 1376 245.5 1367.5 c 128,-1,12
 226 1359 226 1359 196 1345.5 c 128,-1,13
 166 1332 166 1332 135 1319 c 1,14,-1
 102 1397 l 1,15,16
 571.262295082 1647 571.262295082 1647 652.131147541 1647 c 128,-1,17
 733 1647 733 1647 733 1585 c 0,18,19
 733 1559 733 1559 682 1098.5 c 128,-1,20
 631 638 631 638 631 557 c 0,21,22
 631 217 631 217 754 217 c 0,23,24
 820 217 820 217 925.5 324.5 c 128,-1,25
 1031 432 1031 432 1151 651 c 0,26,27
 1318 954 1318 954 1376 1503 c 0,28,29
 1383 1565 1383 1565 1405 1593.5 c 128,-1,30
 1427 1622 1427 1622 1487 1622 c 2,31,-1
 1569 1622 l 2,32,33
 1638 1622 1638 1622 1635.5 1547 c 128,-1,34
 1633 1472 1633 1472 1608 1338 c 0,35,36
 1544 994.96 1544 994.96 1544 594 c 0,37,38
 1544 346 1544 346 1567 292 c 128,-1,39
 1590 238 1590 238 1607 225.5 c 128,-1,40
 1624 213 1624 213 1652.5 213 c 128,-1,41
 1681 213 1681 213 1736 253.5 c 128,-1,42
 1791 294 1791 294 1854.5 362 c 128,-1,43
 1918 430 1918 430 1982.5 526.5 c 128,-1,44
 2047 623 2047 623 2098.5 727 c 0,45,46
 2216 964.281553398 2216 964.281553398 2216 1180 c 0,47,48
 2216 1285.31707317 2216 1285.31707317 2179 1337.65853659 c 0,49,50
 2109 1436.68292683 2109 1436.68292683 2109 1494.84146341 c 128,-1,51
 2109 1553 2109 1553 2147 1587.5 c 128,-1,52
 2185 1622 2185 1622 2253 1622 c 0,53,54
 2404 1622 2404 1622 2404 1423 c 128,-1,55
 2404 1224 2404 1224 2302.5 930 c 128,-1,56
 2201 636 2201 636 2088.5 464 c 128,-1,57
 1976 292 1976 292 1886 193.5 c 128,-1,58
 1796 95 1796 95 1720 44 c 0,59,60
 1439.36729858 -144.319312796 1439.36729858 -144.319312796 1334 19 c 0,61,62
 1286 93.4 1286 93.4 1286 295 c 0,63,64
 1286 413.5 1286 413.5 1308 672 c 1,65,-1
 1315 766 l 1,66,67
 1169.9968652 430.680250784 1169.9968652 430.680250784 1004 221 c 1,68,69
 914 105 914 105 781.5 26 c 128,-1,70
 649 -53 649 -53 580 -53 c 128,-1,71
 511 -53 511 -53 469 -23.5 c 128,-1,72
 427 6 427 6 404 57 c 0,73,74
 360 154.565217391 360 154.565217391 360 321.782608696 c 128,-1,0
 360 489 360 489 400.5 871 c 128,-1,1
EndSplineSet
EndChar

StartChar: x
Encoding: 120 120 91
Width: 1687
GlyphClass: 2
Flags: HW
LayerCount: 2
Fore
SplineSet
41 90 m 0,0,1
 41 127 41 127 74.5 166 c 128,-1,2
 108 205 108 205 133 205 c 128,-1,3
 158 205 158 205 171.5 193.5 c 128,-1,4
 185 182 185 182 192 168 c 0,5,6
 210.5 131 210.5 131 253.25 131 c 128,-1,7
 296 131 296 131 345 158 c 128,-1,8
 394 185 394 185 436 226 c 0,9,10
 613.857752489 399.623044097 613.857752489 399.623044097 704 638.5 c 0,11,12
 754 771 754 771 754 930 c 0,13,14
 754 1405 754 1405 647 1405 c 0,15,16
 539.177777778 1405 539.177777778 1405 439 1209 c 0,17,18
 412.729357798 1157.60091743 412.729357798 1157.60091743 393 1102 c 1,19,-1
 311 1147 l 2,20,21
 311 1148 311 1148 318.5 1167 c 128,-1,22
 326 1186 326 1186 327 1189.5 c 128,-1,23
 328 1193 328 1193 336 1212 c 128,-1,24
 344 1231 344 1231 348 1238.5 c 128,-1,25
 352 1246 352 1246 362 1266 c 128,-1,26
 372 1286 372 1286 380 1298.5 c 128,-1,27
 388 1311 388 1311 401 1332 c 128,-1,28
 414 1353 414 1353 427.5 1371.5 c 0,29,30
 468 1427 468 1427 496 1462 c 0,31,32
 642 1638 642 1638 795 1638 c 0,33,34
 897.5 1638 897.5 1638 939.5 1482 c 0,35,36
 975.650519031 1347.7266436 975.650519031 1347.7266436 978 1242 c 2,37,-1
 979 1196 l 1,38,39
 1191 1514 1191 1514 1390.5 1609 c 0,40,41
 1443 1634 1443 1634 1502.5 1634 c 128,-1,42
 1562 1634 1562 1634 1594 1598.5 c 128,-1,43
 1626 1563 1626 1563 1626 1518 c 128,-1,44
 1626 1473 1626 1473 1589 1435 c 128,-1,45
 1552 1397 1552 1397 1526 1397 c 128,-1,46
 1500 1397 1500 1397 1487 1409 c 128,-1,47
 1474 1421 1474 1421 1467 1436 c 0,48,49
 1448.8 1475 1448.8 1475 1410.4 1475 c 128,-1,50
 1372 1475 1372 1475 1295 1408.5 c 128,-1,51
 1218 1342 1218 1342 1130 1229.5 c 0,52,53
 946 994.272727273 946 994.272727273 946 745 c 0,54,55
 946 454.487804878 946 454.487804878 1117 296 c 0,56,57
 1158 258 1158 258 1188 258 c 0,58,59
 1303.94594595 258 1303.94594595 258 1462 602 c 1,60,-1
 1561 573 l 1,61,62
 1482.72727273 394.090909091 1482.72727273 394.090909091 1460.36363636 360.545454545 c 128,-1,63
 1438 327 1438 327 1414 290.5 c 128,-1,64
 1390 254 1390 254 1364.5 223.5 c 0,65,66
 1287.53353659 131.442073171 1287.53353659 131.442073171 1210.26676829 49.2210365854 c 128,-1,67
 1133 -33 1133 -33 1077 -33 c 128,-1,68
 1021 -33 1021 -33 979 -3 c 128,-1,69
 937 27 937 27 907.5 75 c 128,-1,70
 878 123 878 123 853.5 181 c 128,-1,71
 829 239 829 239 814 297.5 c 0,72,73
 781.916666667 422.625 781.916666667 422.625 770 512 c 1,74,75
 692.6 341.72 692.6 341.72 599.8 230.36 c 128,-1,76
 507 119 507 119 454.5 74 c 0,77,78
 329.666666667 -33 329.666666667 -33 185.333333333 -33 c 128,-1,79
 41 -33 41 -33 41 90 c 0,0,1
EndSplineSet
EndChar

StartChar: y
Encoding: 121 121 92
Width: 1576
GlyphClass: 2
Flags: HW
LayerCount: 2
Fore
SplineSet
1221 1389 m 0,0,1
 1221 1520.7 1221 1520.7 1130 1548 c 1,2,-1
 1135 1618 l 1,3,4
 1201 1626 1201 1626 1278 1626 c 2,5,-1
 1303 1626 l 2,6,7
 1404 1626 1404 1626 1439.5 1607.5 c 128,-1,8
 1475 1589 1475 1589 1475 1504 c 128,-1,9
 1475 1419 1475 1419 1391.5 1115.5 c 128,-1,10
 1308 812 1308 812 1172.5 435 c 0,11,12
 883.009622137 -370.445553168 883.009622137 -370.445553168 438 -999 c 0,13,14
 435 -1002 435 -1002 429 -1010.5 c 128,-1,15
 423 -1019 423 -1019 420 -1022.5 c 128,-1,16
 417 -1026 417 -1026 411.5 -1032.5 c 128,-1,17
 406 -1039 406 -1039 402 -1042 c 128,-1,18
 398 -1045 398 -1045 391.5 -1049.5 c 128,-1,19
 385 -1054 385 -1054 379 -1056 c 128,-1,20
 373 -1058 373 -1058 365 -1060.5 c 0,21,22
 350.6 -1065 350.6 -1065 328 -1065 c 2,23,-1
 -8 -1065 l 1,24,-1
 -8 -971 l 1,25,26
 20 -964 20 -964 59 -956.5 c 128,-1,27
 98 -949 98 -949 114 -944.5 c 128,-1,28
 130 -940 130 -940 160 -926 c 128,-1,29
 190 -912 190 -912 218.5 -887.5 c 0,30,31
 483.716137546 -659.507180005 483.716137546 -659.507180005 653.358068773 -375.753590002 c 128,-1,32
 823 -92 823 -92 823 -4 c 128,-1,33
 823 84 823 84 727 445.5 c 128,-1,34
 631 807 631 807 529 1081.5 c 128,-1,35
 427 1356 427 1356 381 1356 c 0,36,37
 336.4 1356 336.4 1356 268 1251.5 c 0,38,39
 222.059701493 1181.31343284 222.059701493 1181.31343284 198.029850746 1142.65671642 c 128,-1,40
 174 1104 174 1104 156 1077 c 1,41,-1
 61 1135 l 1,42,43
 63 1137 63 1137 87.5 1177 c 128,-1,44
 112 1217 112 1217 142 1263.5 c 0,45,46
 223.202046036 1389.36317136 223.202046036 1389.36317136 300.601023018 1471.68158568 c 0,47,48
 460.741024964 1642 460.741024964 1642 533.870512482 1642 c 128,-1,49
 607 1642 607 1642 658 1550.5 c 128,-1,50
 709 1459 709 1459 753.5 1308 c 128,-1,51
 798 1157 798 1157 830 1033 c 128,-1,52
 862 909 862 909 920.5 679 c 128,-1,53
 979 449 979 449 1008 336 c 1,54,55
 1221 853 1221 853 1221 1389 c 0,0,1
EndSplineSet
EndChar

StartChar: z
Encoding: 122 122 93
Width: 1843
GlyphClass: 2
Flags: HW
LayerCount: 2
Fore
SplineSet
188 -33 m 1,0,-1
 205 -152 l 1,1,2
 205 -229 205 -229 135 -229 c 0,3,4
 94 -229 94 -229 67.5 -196 c 128,-1,5
 41 -163 41 -163 41 -106 c 128,-1,6
 41 -49 41 -49 62 10 c 128,-1,7
 83 69 83 69 113.5 116.5 c 128,-1,8
 144 164 144 164 196.5 223 c 128,-1,9
 249 282 249 282 292 323.5 c 128,-1,10
 335 365 335 365 403 430 c 128,-1,11
 471 495 471 495 512 537 c 2,12,-1
 1298 1335 l 1,13,14
 1119 1346 1119 1346 893.5 1381.5 c 128,-1,15
 668 1417 668 1417 616 1417 c 128,-1,16
 564 1417 564 1417 511 1408 c 128,-1,17
 458 1399 458 1399 429.5 1386 c 128,-1,18
 401 1373 401 1373 382 1357.5 c 0,19,20
 352 1333.02631579 352 1333.02631579 352 1315.51315789 c 128,-1,21
 352 1298 352 1298 369.5 1279.5 c 128,-1,22
 387 1261 387 1261 407.5 1247.5 c 0,23,24
 463 1210.95121951 463 1210.95121951 463 1167 c 0,25,26
 463 1081 463 1081 365 1081 c 0,27,28
 317 1081 317 1081 275 1130 c 128,-1,29
 233 1179 233 1179 233 1271 c 128,-1,30
 233 1363 233 1363 302.5 1453 c 128,-1,31
 372 1543 372 1543 489.5 1595 c 128,-1,32
 607 1647 607 1647 752 1647 c 128,-1,33
 897 1647 897 1647 1117.5 1610 c 128,-1,34
 1338 1573 1338 1573 1428.5 1573 c 128,-1,35
 1519 1573 1519 1573 1535.5 1585.5 c 128,-1,36
 1552 1598 1552 1598 1552 1634 c 1,37,-1
 1528 1724 l 1,38,39
 1528 1764 1528 1764 1556 1793.5 c 128,-1,40
 1584 1823 1584 1823 1627.5 1823 c 128,-1,41
 1671 1823 1671 1823 1716 1783.5 c 128,-1,42
 1761 1744 1761 1744 1761 1696.5 c 128,-1,43
 1761 1649 1761 1649 1732.5 1604.5 c 0,44,45
 1696.875 1548.875 1696.875 1548.875 1606 1458 c 2,46,-1
 430 291 l 1,47,48
 520.2 332 520.2 332 671.1 332 c 128,-1,49
 822 332 822 332 933.5 303 c 128,-1,50
 1045 274 1045 274 1146 245.5 c 128,-1,51
 1247 217 1247 217 1308.5 217 c 128,-1,52
 1370 217 1370 217 1411.5 238.5 c 128,-1,53
 1453 260 1453 260 1477.5 290 c 128,-1,54
 1502 320 1502 320 1519 354.5 c 0,55,56
 1548 413.352941176 1548 413.352941176 1548 473.176470588 c 128,-1,57
 1548 533 1548 533 1483 598 c 1,58,-1
 1544 655 l 1,59,60
 1632.2 625.6 1632.2 625.6 1672.5 506 c 0,61,62
 1688 460 1688 460 1688 397.5 c 128,-1,63
 1688 335 1688 335 1660.5 258.5 c 128,-1,64
 1633 182 1633 182 1582.5 112 c 0,65,66
 1466.35 -49 1466.35 -49 1257 -49 c 0,67,68
 1117.33870968 -49 1117.33870968 -49 966.169354839 8.5 c 0,69,70
 500.527608825 185.615265355 500.527608825 185.615265355 276.5 75.5 c 0,71,72
 188 32 188 32 188 -33 c 1,0,-1
EndSplineSet
Substitution2: "'swsh' Swash in Latin lookup 13 subtable" z.001
AlternateSubs2: "'aalt' Access All Alternates in Latin lookup 1 subtable" z.001
AlternateSubs2: "'aalt' Access All Alternates lookup 0 subtable" z.001
EndChar

StartChar: braceleft
Encoding: 123 123 94
Width: 1150
GlyphClass: 2
Flags: HW
LayerCount: 2
Fore
SplineSet
397 -98 m 1,0,-1
 414 401 l 1,1,2
 414 638.548387097 414 638.548387097 384.5 712.774193548 c 128,-1,3
 355 787 355 787 340.5 813 c 128,-1,4
 326 839 326 839 303 859 c 128,-1,5
 280 879 280 879 262.5 890 c 128,-1,6
 245 901 245 901 216.5 910 c 128,-1,7
 188 919 188 919 169.5 923 c 128,-1,8
 151 927 151 927 119.5 932.5 c 128,-1,9
 88 938 88 938 70 942 c 1,10,-1
 70 1020 l 1,11,12
 84 1023 84 1023 130.5 1031.5 c 128,-1,13
 177 1040 177 1040 208.5 1049 c 128,-1,14
 240 1058 240 1058 286.5 1090.5 c 128,-1,15
 333 1123 333 1123 354.5 1175 c 0,16,17
 410 1309.23255814 410 1309.23255814 410 1561 c 1,18,-1
 397 2060 l 1,19,20
 397 2690.05128205 397 2690.05128205 817 2848 c 0,21,22
 934 2892 934 2892 1081 2892 c 1,23,-1
 1081 2773 l 1,24,25
 786.376237624 2773 786.376237624 2773 705.5 2509.5 c 0,26,27
 659 2358 659 2358 659 2085 c 1,28,-1
 680 1495 l 1,29,30
 680 1285 680 1285 617.5 1162.5 c 128,-1,31
 555 1040 555 1040 406 983 c 1,32,33
 600.515248066 909.084205735 600.515248066 909.084205735 652 701 c 0,34,35
 676 604 676 604 676 467 c 1,36,-1
 659 -119 l 1,37,38
 659 -407.647058824 659 -407.647058824 688 -502.323529412 c 128,-1,39
 717 -597 717 -597 748.5 -654.5 c 128,-1,40
 780 -712 780 -712 823.5 -747 c 0,41,42
 922.928571429 -827 922.928571429 -827 1081 -827 c 1,43,-1
 1081 -946 l 1,44,45
 397 -946 397 -946 397 -98 c 1,0,-1
EndSplineSet
EndChar

StartChar: bar
Encoding: 124 124 95
Width: 901
GlyphClass: 2
Flags: HW
LayerCount: 2
Fore
SplineSet
360 -946 m 1,0,-1
 360 2892 l 1,1,-1
 541 2892 l 1,2,-1
 541 -946 l 1,3,-1
 360 -946 l 1,0,-1
EndSplineSet
EndChar

StartChar: braceright
Encoding: 125 125 96
Width: 1150
GlyphClass: 2
Flags: HW
LayerCount: 2
Fore
SplineSet
741 401 m 1,0,-1
 758 -98 l 1,1,2
 758 -754.816239316 758 -754.816239316 336 -904.5 c 0,3,4
 219 -946 219 -946 70 -946 c 1,5,-1
 70 -827 l 1,6,7
 427.153846154 -827 427.153846154 -827 481 -407 c 0,8,9
 496 -290 496 -290 496 -119 c 1,10,-1
 475 467 l 1,11,12
 475 672 475 672 538.5 799.5 c 128,-1,13
 602 927 602 927 750 983 c 1,14,15
 600 1040 600 1040 537.5 1163 c 128,-1,16
 475 1286 475 1286 475 1495 c 1,17,18
 492 2085 l 1,19,20
 492 2455.72727273 492 2455.72727273 408 2597 c 0,21,22
 354.889771599 2686.32174777 354.889771599 2686.32174777 298.444885799 2716.66087388 c 0,23,24
 193.627906977 2773 193.627906977 2773 70 2773 c 1,25,-1
 70 2892 l 1,26,27
 492.364485981 2892 492.364485981 2892 661 2545 c 0,28,29
 758 2345.40384615 758 2345.40384615 758 2060 c 1,30,-1
 741 1561 l 1,31,32
 741 1321.73333333 741 1321.73333333 769 1249.86666667 c 128,-1,33
 797 1178 797 1178 810.5 1151.5 c 128,-1,34
 824 1125 824 1125 847 1104.5 c 128,-1,35
 870 1084 870 1084 887.5 1073 c 128,-1,36
 905 1062 905 1062 935 1052.5 c 0,37,38
 980.104895105 1038.21678322 980.104895105 1038.21678322 1014.05244755 1032.10839161 c 128,-1,39
 1048 1026 1048 1026 1053 1025 c 0,40,41
 1070.5 1021.5 1070.5 1021.5 1081 1020 c 1,42,-1
 1081 942 l 1,43,44
 1064 938 1064 938 1032 932.5 c 128,-1,45
 1000 927 1000 927 982 923 c 128,-1,46
 964 919 964 919 935.5 910 c 128,-1,47
 907 901 907 901 890 890 c 128,-1,48
 873 879 873 879 850 859 c 128,-1,49
 827 839 827 839 813 813 c 128,-1,50
 799 787 799 787 783.5 748 c 128,-1,51
 768 709 768 709 760 660 c 0,52,53
 741 543.625 741 543.625 741 401 c 1,0,-1
EndSplineSet
EndChar

StartChar: exclamdown
Encoding: 161 161 99
Width: 1167
GlyphClass: 2
Flags: HW
LayerCount: 2
Fore
SplineSet
643.967632027 1649.33219761 m 128,-1,1
 657 1784 657 1784 659 1803 c 128,-1,2
 661 1822 661 1822 664 1843 c 128,-1,3
 667 1864 667 1864 670.5 1875.5 c 128,-1,4
 674 1887 674 1887 680.5 1897.5 c 0,5,6
 692.571428571 1917 692.571428571 1917 721 1917 c 0,7,8
 786 1917 786 1917 786 1802 c 0,9,10
 786 1782 786 1782 772 1490 c 0,11,12
 729 593.142857143 729 593.142857143 729 360.571428571 c 128,-1,13
 729 128 729 128 726.5 115.5 c 128,-1,14
 724 103 724 103 717.5 92.5 c 128,-1,15
 711 82 711 82 705 74 c 128,-1,16
 699 66 699 66 685 57 c 128,-1,17
 671 48 671 48 661.5 42 c 128,-1,18
 652 36 652 36 630.5 27 c 128,-1,19
 609 18 609 18 596 13 c 128,-1,20
 583 8 583 8 554 -2.5 c 128,-1,21
 525 -13 525 -13 495.5 -25 c 128,-1,22
 466 -37 466 -37 446 -37 c 0,23,24
 406 -37 406 -37 406 16.79 c 128,-1,25
 406 70.58 406 70.58 518.467632027 792.622197615 c 128,-1,0
 630.935264055 1514.66439523 630.935264055 1514.66439523 643.967632027 1649.33219761 c 128,-1,1
638.5 2289.5 m 128,-1,27
 582 2363 582 2363 582 2408.5 c 128,-1,28
 582 2454 582 2454 650 2529.5 c 128,-1,29
 718 2605 718 2605 765.5 2605 c 128,-1,30
 813 2605 813 2605 869.5 2527 c 128,-1,31
 926 2449 926 2449 926 2401 c 128,-1,32
 926 2353 926 2353 857 2284.5 c 128,-1,33
 788 2216 788 2216 741.5 2216 c 128,-1,26
 695 2216 695 2216 638.5 2289.5 c 128,-1,27
EndSplineSet
Position2: "'cpsp' Capital Spacing in Latin lookup 0 subtable" dx=33 dy=0 dh=66 dv=0
EndChar

StartChar: cent
Encoding: 162 162 100
Width: 1748
GlyphClass: 2
Flags: HW
LayerCount: 2
Fore
SplineSet
954 1786 m 1,0,-1
 1249 2970 l 1,1,-1
 1413 2949 l 1,2,-1
 1073 1774 l 1,3,4
 1289 1739 1289 1739 1437 1615 c 128,-1,5
 1585 1491 1585 1491 1585 1327 c 0,6,7
 1585 1225 1585 1225 1514.5 1151 c 128,-1,8
 1444 1077 1444 1077 1349 1077 c 128,-1,9
 1254 1077 1254 1077 1190 1135 c 128,-1,10
 1126 1193 1126 1193 1126 1255 c 128,-1,11
 1126 1317 1126 1317 1151 1358 c 128,-1,12
 1176 1399 1176 1399 1206 1422.5 c 0,13,14
 1286 1485.16666667 1286 1485.16666667 1286 1524.08333333 c 128,-1,15
 1286 1563 1286 1563 1212.5 1609.5 c 128,-1,16
 1139 1656 1139 1656 1044 1659 c 1,17,-1
 651 213 l 1,18,19
 785 90 785 90 983 90 c 0,20,21
 1231.31818182 90 1231.31818182 90 1442.5 292 c 0,22,23
 1523 369 1523 369 1561 426 c 1,24,-1
 1651 340 l 1,25,26
 1648 338 1648 338 1616.5 302 c 128,-1,27
 1585 266 1585 266 1547 226 c 128,-1,28
 1509 186 1509 186 1443 135 c 128,-1,29
 1377 84 1377 84 1306.5 45 c 0,30,31
 1136.57692308 -49 1136.57692308 -49 949.288461538 -49 c 128,-1,32
 762 -49 762 -49 602 25 c 1,33,-1
 389 -827 l 1,34,-1
 246 -791 l 1,35,-1
 500 82 l 1,36,37
 316 198 316 198 207 406 c 128,-1,38
 98 614 98 614 98 933.517241379 c 128,-1,39
 98 1253.03448276 98 1253.03448276 325.294117647 1519.51724138 c 128,-1,40
 552.588235294 1786 552.588235294 1786 954 1786 c 1,0,-1
561 319 m 1,41,-1
 918 1647 l 1,42,43
 766 1617 766 1617 653.5 1507 c 0,44,45
 426 1284.55555556 426 1284.55555556 426 901.277777778 c 128,-1,46
 426 518 426 518 561 319 c 1,41,-1
EndSplineSet
EndChar

StartChar: sterling
Encoding: 163 163 101
Width: 1781
GlyphClass: 2
Flags: HW
LayerCount: 2
Fore
SplineSet
848 2122 m 1,0,-1
 852 1470 l 2,1,2
 852 1328 852 1328 831 1163 c 1,3,-1
 1319 1163 l 1,4,-1
 1319 1004 l 1,5,-1
 807 1004 l 1,6,7
 749.667990469 727.224781573 749.667990469 727.224781573 658 550 c 1,8,-1
 627 492 l 1,9,10
 647 504 647 504 697 504 c 128,-1,11
 747 504 747 504 813 482 c 128,-1,12
 879 460 879 460 929.5 424.5 c 128,-1,13
 980 389 980 389 1027 346 c 128,-1,14
 1074 303 1074 303 1116 260 c 128,-1,15
 1158 217 1158 217 1197 181.5 c 0,16,17
 1284.33802817 102 1284.33802817 102 1357.16901408 102 c 128,-1,18
 1430 102 1430 102 1473 158.5 c 128,-1,19
 1516 215 1516 215 1516 267.5 c 128,-1,20
 1516 320 1516 320 1499 353 c 128,-1,21
 1482 386 1482 386 1458 411 c 128,-1,22
 1434 436 1434 436 1410 461.5 c 0,23,24
 1352 523.125 1352 523.125 1352 585.0625 c 128,-1,25
 1352 647 1352 647 1388 694 c 128,-1,26
 1424 741 1424 741 1483 741 c 128,-1,27
 1542 741 1542 741 1593.5 689 c 0,28,29
 1700 581.466019417 1700 581.466019417 1700 429.733009709 c 128,-1,30
 1700 278 1700 278 1639.5 173 c 128,-1,31
 1579 68 1579 68 1466 3.5 c 128,-1,32
 1353 -61 1353 -61 1251.5 -61 c 128,-1,33
 1150 -61 1150 -61 1097.5 -46.5 c 128,-1,34
 1045 -32 1045 -32 1010 -12.5 c 128,-1,35
 975 7 975 7 937 45 c 128,-1,36
 899 83 899 83 877.5 111 c 128,-1,37
 856 139 856 139 818.5 192 c 0,38,39
 670.622641509 401 670.622641509 401 594 401 c 0,40,41
 530.751879699 401 530.751879699 401 468 240.5 c 0,42,43
 394.918604651 53.5802772809 394.918604651 53.5802772809 335.959302326 0.290138640429 c 128,-1,44
 277 -53 277 -53 213 -53 c 128,-1,45
 149 -53 149 -53 109.5 -9.5 c 128,-1,46
 70 34 70 34 70 93.5 c 128,-1,47
 70 153 70 153 101.5 204 c 128,-1,48
 133 255 133 255 186.5 292.5 c 128,-1,49
 240 330 240 330 292.5 358.5 c 128,-1,50
 345 387 345 387 405 416 c 128,-1,51
 465 445 465 445 492 463 c 1,52,53
 533 508 533 508 555.5 641 c 128,-1,54
 578 774 578 774 578 885 c 1,55,-1
 565 1004 l 1,56,-1
 111 1004 l 1,57,-1
 111 1163 l 1,58,-1
 549 1163 l 1,59,60
 512 1552 512 1552 512 1692 c 128,-1,61
 512 1832 512 1832 550 2012 c 128,-1,62
 588 2192 588 2192 656 2319.5 c 128,-1,63
 724 2447 724 2447 818.5 2535 c 0,64,65
 1003.20454545 2707 1003.20454545 2707 1266 2707 c 0,66,67
 1513.79190751 2707 1513.79190751 2707 1648.5 2523.5 c 0,68,69
 1712 2437 1712 2437 1712 2344 c 128,-1,70
 1712 2251 1712 2251 1665.5 2196.5 c 128,-1,71
 1619 2142 1619 2142 1556 2142 c 0,72,73
 1422 2142 1422 2142 1384 2343 c 1,74,75
 1362 2445 1362 2445 1345 2479 c 0,76,77
 1301 2569 1301 2569 1181 2572 c 0,78,79
 1176 2572 1176 2572 1152.5 2572 c 128,-1,80
 1129 2572 1129 2572 1087 2558.5 c 128,-1,81
 1045 2545 1045 2545 1001 2512 c 128,-1,82
 957 2479 957 2479 923.5 2429.5 c 0,83,84
 848 2317.94029851 848 2317.94029851 848 2122 c 1,0,-1
EndSplineSet
EndChar

StartChar: currency
Encoding: 164 164 102
Width: 2134
GlyphClass: 2
Flags: HW
LayerCount: 2
Fore
SplineSet
1548 426 m 1,0,1
 1332.53333333 266 1332.53333333 266 1063.61801802 266 c 128,-1,2
 794.702702703 266 794.702702703 266 586 422 c 1,3,-1
 303 143 l 2,4,5
 234 74 234 74 181.5 74 c 128,-1,6
 129 74 129 74 99.5 106 c 128,-1,7
 70 138 70 138 70 170.5 c 128,-1,8
 70 203 70 203 82 226.5 c 0,9,10
 98.1739130435 258.173913043 98.1739130435 258.173913043 143 303 c 2,11,-1
 422 586 l 1,12,13
 262 798 262 798 262 1070.64864865 c 128,-1,14
 262 1343.2972973 262 1343.2972973 418 1552 c 1,15,-1
 143 1835 l 1,16,17
 70 1897.57142857 70 1897.57142857 70 1951.78571429 c 128,-1,18
 70 2006 70 2006 102 2037 c 128,-1,19
 134 2068 134 2068 182 2068 c 128,-1,20
 230 2068 230 2068 303 1995 c 2,21,-1
 586 1712 l 1,22,23
 799.333333333 1872 799.333333333 1872 1065.66666667 1872 c 128,-1,24
 1332 1872 1332 1872 1548 1712 c 1,25,-1
 1831 1995 l 2,26,27
 1900 2064 1900 2064 1951 2064 c 128,-1,28
 2002 2064 2002 2064 2033 2032 c 128,-1,29
 2064 2000 2064 2000 2064 1967.5 c 128,-1,30
 2064 1935 2064 1935 2052 1911.5 c 0,31,32
 2035.82608696 1879.82608696 2035.82608696 1879.82608696 1991 1835 c 2,33,-1
 1708 1548 l 1,34,35
 1876 1317 1876 1317 1876 1066 c 128,-1,36
 1876 815 1876 815 1708 590 c 1,37,-1
 1991 303 l 1,38,39
 2064 240.428571429 2064 240.428571429 2064 186.714285714 c 128,-1,40
 2064 133 2064 133 2030 101.5 c 128,-1,41
 1996 70 1996 70 1963.5 70 c 128,-1,42
 1931 70 1931 70 1907.5 82 c 0,43,44
 1875.82608696 98.1739130435 1875.82608696 98.1739130435 1831 143 c 2,45,-1
 1548 426 l 1,0,1
571 1358.5 m 128,-1,47
 496 1223 496 1223 496 1064.5 c 128,-1,48
 496 906 496 906 573 774 c 128,-1,49
 650 642 650 642 780.5 567 c 128,-1,50
 911 492 911 492 1064.5 492 c 128,-1,51
 1218 492 1218 492 1350 569 c 128,-1,52
 1482 646 1482 646 1560 779.5 c 128,-1,53
 1638 913 1638 913 1638 1068.5 c 128,-1,54
 1638 1224 1638 1224 1561 1359 c 128,-1,55
 1484 1494 1484 1494 1351.5 1574.5 c 128,-1,56
 1219 1655 1219 1655 1064 1655 c 128,-1,57
 909 1655 909 1655 777.5 1574.5 c 128,-1,46
 646 1494 646 1494 571 1358.5 c 128,-1,47
EndSplineSet
EndChar

StartChar: yen
Encoding: 165 165 103
Width: 2617
GlyphClass: 2
Flags: HW
LayerCount: 2
Fore
SplineSet
111 2568 m 1,0,-1
 115 2732 l 1,1,-1
 1032 2732 l 1,2,-1
 1032 2568 l 1,3,-1
 930 2568 l 2,4,5
 825 2568 825 2568 781 2558.5 c 128,-1,6
 737 2549 737 2549 737 2515 c 0,7,8
 737 2487.27956989 737 2487.27956989 877 2269 c 1,9,-1
 1397 1450 l 1,10,-1
 2114 2466 l 1,11,12
 2138 2506 2138 2506 2138 2515 c 0,13,14
 2138 2549 2138 2549 2075 2558.5 c 128,-1,15
 2012 2568 2012 2568 1872 2568 c 2,16,-1
 1806 2568 l 1,17,-1
 1802 2732 l 1,18,-1
 2548 2732 l 1,19,-1
 2548 2568 l 1,20,-1
 2527 2568 l 2,21,22
 2405.53846154 2568 2405.53846154 2568 2373.76923077 2538.5 c 0,23,24
 2316.66396761 2485.47368421 2316.66396761 2485.47368421 2253 2396 c 1,25,-1
 1704 1606 l 1,26,-1
 2142 1606 l 1,27,-1
 2093 1409 l 1,28,-1
 1540 1409 l 1,29,-1
 1454 1270 l 1,30,-1
 1454 1004 l 1,31,-1
 2142 1004 l 1,32,-1
 2093 807 l 1,33,-1
 1454 807 l 1,34,-1
 1454 348 l 2,35,36
 1454 215.153846154 1454 215.153846154 1477.5 197.076923077 c 128,-1,37
 1501 179 1501 179 1531 171 c 0,38,39
 1572.25 160 1572.25 160 1692 160 c 2,40,-1
 1880 160 l 1,41,-1
 1876 0 l 1,42,-1
 725 0 l 1,43,-1
 729 160 l 1,44,-1
 893 160 l 2,45,46
 1043.57894737 160 1043.57894737 160 1070.28947368 177.5 c 128,-1,47
 1097 195 1097 195 1103 207 c 128,-1,48
 1109 219 1109 219 1114.5 239.5 c 0,49,50
 1122 267.454545455 1122 267.454545455 1122 340 c 2,51,-1
 1122 807 l 1,52,-1
 475 807 l 1,53,-1
 524 1004 l 1,54,-1
 1122 1004 l 1,55,-1
 1122 1303 l 1,56,-1
 1061 1409 l 1,57,-1
 475 1409 l 1,58,-1
 524 1606 l 1,59,-1
 909 1606 l 1,60,-1
 451 2318 l 2,61,62
 438 2338 438 2338 415.5 2374 c 128,-1,63
 393 2410 393 2410 382.5 2426 c 128,-1,64
 372 2442 372 2442 354 2467.5 c 2,65,-1
 330 2501.5 l 2,66,67
 288.519855596 2560.26353791 288.519855596 2560.26353791 233.5 2563.5 c 0,68,69
 225 2564 225 2564 200 2566 c 128,-1,70
 175 2568 175 2568 160 2568 c 2,71,-1
 111 2568 l 1,0,-1
EndSplineSet
EndChar

StartChar: brokenbar
Encoding: 166 166 104
Width: 901
GlyphClass: 2
Flags: HW
LayerCount: 2
Fore
SplineSet
360 590 m 1,0,-1
 541 590 l 1,1,-1
 541 -946 l 1,2,-1
 360 -946 l 1,3,-1
 360 590 l 1,0,-1
360 1356 m 1,4,-1
 360 2892 l 1,5,-1
 541 2892 l 1,6,-1
 541 1356 l 1,7,-1
 360 1356 l 1,4,-1
EndSplineSet
EndChar

StartChar: section
Encoding: 167 167 105
Width: 1839
GlyphClass: 2
Flags: HW
LayerCount: 2
Fore
SplineSet
1126 381 m 1,0,1
 1528 12.5 1528 12.5 1528 -356 c 0,2,3
 1528 -603.704402516 1528 -603.704402516 1353.5 -736.5 c 0,4,5
 1191.21487603 -860 1191.21487603 -860 971 -860 c 0,6,7
 687.930434783 -860 687.930434783 -860 509 -679.5 c 0,8,9
 385 -554.412280702 385 -554.412280702 385 -393.206140351 c 128,-1,10
 385 -232 385 -232 454.5 -146.5 c 128,-1,11
 524 -61 524 -61 627 -61 c 0,12,13
 655 -61 655 -61 709 -91 c 128,-1,14
 763 -121 763 -121 809.5 -170 c 128,-1,15
 856 -219 856 -219 856 -257 c 128,-1,16
 856 -295 856 -295 831 -336 c 128,-1,17
 806 -377 806 -377 776 -409.5 c 0,18,19
 696 -496.166666667 696 -496.166666667 696 -538.083333333 c 128,-1,20
 696 -580 696 -580 702.5 -602.5 c 128,-1,21
 709 -625 709 -625 728.5 -649 c 128,-1,22
 748 -673 748 -673 778.5 -691 c 0,23,24
 849.666666667 -733 849.666666667 -733 953.333333333 -733 c 128,-1,25
 1057 -733 1057 -733 1135 -696.5 c 128,-1,26
 1213 -660 1213 -660 1268 -588.5 c 128,-1,27
 1323 -517 1323 -517 1323 -434 c 128,-1,28
 1323 -351 1323 -351 1289.5 -273 c 128,-1,29
 1256 -195 1256 -195 1204 -130 c 128,-1,30
 1152 -65 1152 -65 1072.5 11 c 128,-1,31
 993 87 993 87 918 149.5 c 0,32,33
 703.247191011 328.460674157 703.247191011 328.460674157 577.123595506 459.230337079 c 128,-1,34
 451 590 451 590 368.5 729.5 c 0,35,36
 221 978.909090909 221 978.909090909 221 1208 c 0,37,38
 221 1488.26923077 221 1488.26923077 398 1604 c 0,39,40
 494.352941176 1667 494.352941176 1667 614 1667 c 0,41,42
 625 1667 625 1667 644 1665 c 128,-1,43
 663 1663 663 1663 668 1663 c 1,44,45
 667 1666 667 1666 642 1694.5 c 128,-1,46
 617 1723 617 1723 582.5 1763.5 c 128,-1,47
 548 1804 548 1804 507 1868.5 c 128,-1,48
 466 1933 466 1933 432 2003 c 0,49,50
 352 2167.70588235 352 2167.70588235 352 2312.35294118 c 128,-1,51
 352 2457 352 2457 381.5 2546.5 c 128,-1,52
 411 2636 411 2636 461 2696 c 128,-1,53
 511 2756 511 2756 579 2797 c 0,54,55
 708.365853659 2875 708.365853659 2875 842.682926829 2875 c 128,-1,56
 977 2875 977 2875 1063 2851 c 128,-1,57
 1149 2827 1149 2827 1209 2787 c 128,-1,58
 1269 2747 1269 2747 1312.5 2695 c 0,59,60
 1397 2593.98850575 1397 2593.98850575 1397 2474 c 128,-1,61
 1397 2354 1397 2354 1339 2299.5 c 128,-1,62
 1281 2245 1281 2245 1189 2245 c 128,-1,63
 1097 2245 1097 2245 1013.5 2298.5 c 128,-1,64
 930 2352 930 2352 930 2408 c 128,-1,65
 930 2464 930 2464 977 2538 c 128,-1,66
 1024 2612 1024 2612 1024 2649 c 128,-1,67
 1024 2686 1024 2686 990.5 2713 c 128,-1,68
 957 2740 957 2740 905 2740 c 0,69,70
 557 2740 557 2740 557 2413 c 0,71,72
 557 2222.9375 557 2222.9375 832 1972 c 0,73,74
 912 1899 912 1899 1000 1823 c 128,-1,75
 1088 1747 1088 1747 1175.5 1666.5 c 128,-1,76
 1263 1586 1263 1586 1343 1493 c 128,-1,77
 1423 1400 1423 1400 1484 1302 c 0,78,79
 1618 1086.72131148 1618 1086.72131148 1618 836 c 0,80,81
 1618 639.714285714 1618 639.714285714 1574 560.357142857 c 128,-1,82
 1530 481 1530 481 1496 446 c 128,-1,83
 1462 411 1462 411 1420.5 393 c 0,84,85
 1344.41666667 360 1344.41666667 360 1291.20833333 360 c 128,-1,86
 1238 360 1238 360 1216 363 c 128,-1,87
 1194 366 1194 366 1162.5 373 c 128,-1,88
 1131 380 1131 380 1126 381 c 1,0,1
483.5 1528.5 m 128,-1,90
 406 1464 406 1464 406 1375 c 128,-1,91
 406 1286 406 1286 452.5 1183 c 128,-1,92
 499 1080 499 1080 572.5 979.5 c 128,-1,93
 646 879 646 879 739 780 c 128,-1,94
 832 681 832 681 923.5 606 c 0,95,96
 1128.46 438 1128.46 438 1230.73 438 c 128,-1,97
 1333 438 1333 438 1395.5 488 c 128,-1,98
 1458 538 1458 538 1458 627.5 c 128,-1,99
 1458 717 1458 717 1389.5 848.5 c 128,-1,100
 1321 980 1321 980 1219.5 1106 c 128,-1,101
 1118 1232 1118 1232 1009.5 1344 c 128,-1,102
 901 1456 901 1456 811.5 1524.5 c 128,-1,103
 722 1593 722 1593 688 1593 c 0,104,89
 561 1593 561 1593 483.5 1528.5 c 128,-1,90
EndSplineSet
EndChar

StartChar: copyright
Encoding: 169 169 107
Width: 3309
GlyphClass: 2
Flags: HW
LayerCount: 2
Fore
SplineSet
230 566 m 0,0,1
 180 761 180 761 180 966 c 128,-1,2
 180 1171 180 1171 232 1362 c 128,-1,3
 284 1553 284 1553 378.5 1716 c 128,-1,4
 473 1879 473 1879 610 2016.5 c 128,-1,5
 747 2154 747 2154 910.5 2250 c 0,6,7
 1257.9375 2454 1257.9375 2454 1675 2454 c 0,8,9
 2292.98540146 2454 2292.98540146 2454 2715 2016 c 0,10,11
 2979.71887594 1741.25389391 2979.71887594 1741.25389391 3079 1362 c 0,12,13
 3129 1171 3129 1171 3129 971.5 c 128,-1,14
 3129 772 3129 772 3080 581.5 c 128,-1,15
 3031 391 3031 391 2941.5 226 c 128,-1,16
 2852 61 2852 61 2720.5 -77.5 c 128,-1,17
 2589 -216 2589 -216 2430 -315 c 0,18,19
 2094.33333333 -524 2094.33333333 -524 1671 -524 c 0,20,21
 1020.67647059 -524 1020.67647059 -524 597 -94 c 0,22,23
 329.658561821 177.331608898 329.658561821 177.331608898 230 566 c 0,0,1
425 1383 m 0,24,25
 360 1183 360 1183 360 967 c 128,-1,26
 360 751 360 751 423.5 548 c 128,-1,27
 487 345 487 345 605.5 180 c 128,-1,28
 724 15 724 15 884 -108 c 0,29,30
 1218.30894309 -365 1218.30894309 -365 1675 -365 c 0,31,32
 1934 -365 1934 -365 2169 -260.5 c 128,-1,33
 2404 -156 2404 -156 2575 22 c 128,-1,34
 2746 200 2746 200 2847.5 450 c 128,-1,35
 2949 700 2949 700 2949 943.5 c 128,-1,36
 2949 1187 2949 1187 2889 1383.5 c 128,-1,37
 2829 1580 2829 1580 2715.5 1743.5 c 128,-1,38
 2602 1907 2602 1907 2447.5 2030 c 0,39,40
 2120.91463415 2290 2120.91463415 2290 1671 2290 c 0,41,42
 1227.15853659 2290 1227.15853659 2290 890.5 2032 c 0,43,44
 551.489110143 1772.19726198 551.489110143 1772.19726198 425 1383 c 0,24,25
710.5 632 m 128,-1,46
 668 773 668 773 668 920 c 128,-1,47
 668 1067 668 1067 700 1192.5 c 128,-1,48
 732 1318 732 1318 788.5 1415 c 128,-1,49
 845 1512 845 1512 922 1593 c 128,-1,50
 999 1674 999 1674 1088 1730.5 c 128,-1,51
 1177 1787 1177 1787 1275.5 1826 c 0,52,53
 1464.92307692 1901 1464.92307692 1901 1644.96153846 1901 c 128,-1,54
 1825 1901 1825 1901 1962 1876.5 c 128,-1,55
 2099 1852 2099 1852 2168.5 1824 c 128,-1,56
 2238 1796 2238 1796 2296 1767 c 128,-1,57
 2354 1738 2354 1738 2359 1737 c 1,58,-1
 2359 1450 l 2,59,60
 2359 1384 2359 1384 2349 1384 c 128,-1,61
 2339 1384 2339 1384 2322 1403 c 128,-1,62
 2305 1422 2305 1422 2278.5 1452.5 c 128,-1,63
 2252 1483 2252 1483 2215.5 1519.5 c 128,-1,64
 2179 1556 2179 1556 2125.5 1593 c 128,-1,65
 2072 1630 2072 1630 2009 1660.5 c 0,66,67
 1867.50819672 1729 1867.50819672 1729 1690.75409836 1729 c 128,-1,68
 1514 1729 1514 1729 1375 1665.5 c 128,-1,69
 1236 1602 1236 1602 1142 1496.5 c 0,70,71
 942 1272.03191489 942 1272.03191489 942 967 c 0,72,73
 942 571.554404145 942 571.554404145 1257.5 310 c 0,74,75
 1463.76875 139 1463.76875 139 1741 139 c 0,76,77
 2012.75609756 139 2012.75609756 139 2203 289 c 0,78,79
 2289.43243243 357.148648649 2289.43243243 357.148648649 2343.71621622 438.574324324 c 128,-1,80
 2398 520 2398 520 2405.5 520 c 128,-1,81
 2413 520 2413 520 2413 451 c 2,82,-1
 2413 225 l 1,83,84
 2238.82208589 66.6564417178 2238.82208589 66.6564417178 1933.5 2 c 0,85,86
 1806 -25 1806 -25 1645 -25 c 128,-1,87
 1484 -25 1484 -25 1322 25 c 128,-1,88
 1160 75 1160 75 1041.5 163.5 c 128,-1,89
 923 252 923 252 838 371.5 c 128,-1,45
 753 491 753 491 710.5 632 c 128,-1,46
EndSplineSet
EndChar

StartChar: ordfeminine
Encoding: 170 170 108
Width: 1466
GlyphClass: 2
Flags: HW
LayerCount: 2
Fore
SplineSet
778 2982 m 0,0,1
 884.571428571 2982 884.571428571 2982 942 2781 c 1,2,-1
 975 2966 l 1,3,4
 983 3023 983 3023 1053 3023 c 2,5,-1
 1085 3023 l 2,6,7
 1123 3023 1123 3023 1133 3016 c 128,-1,8
 1143 3009 1143 3009 1143 2992 c 128,-1,9
 1143 2975 1143 2975 1114.5 2791.5 c 0,10,11
 1028 2234.56140351 1028 2234.56140351 1028 2071.78070175 c 128,-1,12
 1028 1909 1028 1909 1069 1909 c 0,13,14
 1091.08888889 1909 1091.08888889 1909 1132.04444444 1957.5 c 128,-1,15
 1173 2006 1173 2006 1188 2023 c 1,16,-1
 1249 1974 l 1,17,18
 1119.58698373 1772.69086358 1119.58698373 1772.69086358 974 1670.5 c 0,19,20
 922 1634 922 1634 885 1634 c 0,21,22
 811 1634 811 1634 811 1872 c 0,23,24
 811 1913 811 1913 827 2159 c 1,25,26
 697 1924 697 1924 624 1834 c 128,-1,27
 551 1744 551 1744 466.5 1689 c 128,-1,28
 382 1634 382 1634 350 1634 c 128,-1,29
 318 1634 318 1634 298 1642 c 128,-1,30
 278 1650 278 1650 255.5 1674 c 128,-1,31
 233 1698 233 1698 217 1736.5 c 0,32,33
 180 1825.53125 180 1825.53125 180 1962.765625 c 128,-1,34
 180 2100 180 2100 190.5 2178.5 c 128,-1,35
 201 2257 201 2257 230 2333.5 c 0,36,37
 333.531914894 2606.61005136 333.531914894 2606.61005136 561 2838 c 0,38,39
 702.559322034 2982 702.559322034 2982 778 2982 c 0,0,1
387 2358 m 128,-1,41
 348 2222 348 2222 348 2110.5 c 128,-1,42
 348 1999 348 1999 387 1931.5 c 128,-1,43
 426 1864 426 1864 476.5 1864 c 128,-1,44
 527 1864 527 1864 632.5 2011.5 c 128,-1,45
 738 2159 738 2159 819.5 2342.5 c 128,-1,46
 901 2526 901 2526 901 2609.5 c 128,-1,47
 901 2693 901 2693 827.5 2763.5 c 128,-1,48
 754 2834 754 2834 705.5 2834 c 128,-1,49
 657 2834 657 2834 596.5 2766 c 128,-1,50
 536 2698 536 2698 481 2596 c 128,-1,40
 426 2494 426 2494 387 2358 c 128,-1,41
EndSplineSet
EndChar

StartChar: logicalnot
Encoding: 172 172 110
Width: 2949
GlyphClass: 2
Flags: HW
LayerCount: 2
Fore
SplineSet
328 844 m 1,0,-1
 328 1081 l 1,1,-1
 2621 1081 l 1,2,-1
 2621 -135 l 1,3,-1
 2380 -135 l 1,4,-1
 2380 844 l 1,5,-1
 328 844 l 1,0,-1
EndSplineSet
EndChar

StartChar: registered
Encoding: 174 174 112
Width: 2052
GlyphClass: 2
Flags: HW
LayerCount: 2
Fore
SplineSet
246 1906 m 128,-1,1
 180 2064 180 2064 180 2238.5 c 128,-1,2
 180 2413 180 2413 246 2573 c 128,-1,3
 312 2733 312 2733 424.5 2848.5 c 128,-1,4
 537 2964 537 2964 694 3032.5 c 128,-1,5
 851 3101 851 3101 1008 3101 c 128,-1,6
 1165 3101 1165 3101 1295.5 3057.5 c 128,-1,7
 1426 3014 1426 3014 1530 2934 c 128,-1,8
 1634 2854 1634 2854 1711 2747.5 c 0,9,10
 1872 2524.81818182 1872 2524.81818182 1872 2236 c 0,11,12
 1872 1879.02803738 1872 1879.02803738 1647 1633 c 0,13,14
 1415.62393162 1380 1415.62393162 1380 1024 1380 c 0,15,16
 851 1380 851 1380 694 1448.5 c 128,-1,17
 537 1517 537 1517 424.5 1632.5 c 128,-1,0
 312 1748 312 1748 246 1906 c 128,-1,1
403.5 2605.5 m 128,-1,19
 307 2432 307 2432 307 2233.5 c 128,-1,20
 307 2035 307 2035 404 1868 c 128,-1,21
 501 1701 501 1701 668.5 1604 c 128,-1,22
 836 1507 836 1507 1042 1507 c 128,-1,23
 1248 1507 1248 1507 1411 1605 c 128,-1,24
 1574 1703 1574 1703 1659.5 1867 c 128,-1,25
 1745 2031 1745 2031 1745 2206.5 c 128,-1,26
 1745 2382 1745 2382 1689 2521 c 128,-1,27
 1633 2660 1633 2660 1538.5 2762 c 0,28,29
 1330.97058824 2986 1330.97058824 2986 1036 2986 c 0,30,31
 837 2986 837 2986 668.5 2882.5 c 128,-1,18
 500 2779 500 2779 403.5 2605.5 c 128,-1,19
647 1868 m 2,32,33
 705 1868 705 1868 705 1880 c 2,34,-1
 705 2662 l 2,35,36
 705 2683 705 2683 694 2689 c 128,-1,37
 683 2695 683 2695 651 2695 c 2,38,-1
 594 2695 l 1,39,-1
 598 2793 l 1,40,-1
 934 2793 l 2,41,42
 1159.02325581 2793 1159.02325581 2793 1259.51162791 2713 c 128,-1,43
 1360 2633 1360 2633 1360 2494 c 0,44,45
 1360 2318.02912621 1360 2318.02912621 1163 2253 c 1,46,-1
 1430 1901 l 1,47,48
 1453 1868 1453 1868 1479 1868 c 2,49,-1
 1520 1868 l 1,50,-1
 1524 1769 l 1,51,-1
 1319 1769 l 1,52,-1
 1004 2220 l 1,53,-1
 979 2220 l 1,54,-1
 864 2224 l 1,55,-1
 864 1884 l 2,56,57
 864 1872 864 1872 867 1870 c 128,-1,58
 870 1868 870 1868 884 1868 c 2,59,-1
 983 1868 l 1,60,-1
 979 1769 l 1,61,-1
 606 1769 l 1,62,-1
 606 1868 l 1,63,-1
 647 1868 l 2,32,33
864 2310 m 1,64,65
 880 2306 880 2306 975.5 2306 c 0,66,67
 1176 2306 1176 2306 1176 2474 c 0,68,69
 1176 2573 1176 2573 1101 2634 c 128,-1,70
 1026 2695 1026 2695 889 2695 c 0,71,72
 873 2695 873 2695 868.5 2688 c 128,-1,73
 864 2681 864 2681 864 2646 c 2,74,-1
 864 2310 l 1,64,65
EndSplineSet
EndChar

StartChar: degree
Encoding: 176 176 114
Width: 1351
GlyphClass: 2
Flags: HW
LayerCount: 2
Fore
SplineSet
180 2490 m 128,-1,1
 180 2625 180 2625 246.5 2739 c 128,-1,2
 313 2853 313 2853 427 2919.5 c 128,-1,3
 541 2986 541 2986 676 2986 c 128,-1,4
 811 2986 811 2986 925 2919.5 c 128,-1,5
 1039 2853 1039 2853 1105 2739 c 128,-1,6
 1171 2625 1171 2625 1171 2507 c 128,-1,7
 1171 2389 1171 2389 1132 2297.5 c 128,-1,8
 1093 2206 1093 2206 1026.5 2139.5 c 0,9,10
 882 1995 882 1995 676 1995 c 0,11,12
 541 1995 541 1995 427 2061 c 128,-1,13
 313 2127 313 2127 246.5 2241 c 128,-1,0
 180 2355 180 2355 180 2490 c 128,-1,1
328 2490 m 128,-1,15
 328 2345 328 2345 430 2241.5 c 128,-1,16
 532 2138 532 2138 676.5 2138 c 128,-1,17
 821 2138 821 2138 924.5 2241.5 c 128,-1,18
 1028 2345 1028 2345 1028 2489.5 c 128,-1,19
 1028 2634 1028 2634 924.5 2736.5 c 128,-1,20
 821 2839 821 2839 676 2839 c 128,-1,21
 531 2839 531 2839 429.5 2737 c 128,-1,14
 328 2635 328 2635 328 2490 c 128,-1,15
EndSplineSet
EndChar

StartChar: plusminus
Encoding: 177 177 115
Width: 2969
GlyphClass: 2
Flags: HW
LayerCount: 2
Fore
SplineSet
328 -94 m 1,0,-1
 328 147 l 1,1,-1
 2642 147 l 1,2,-1
 2642 -94 l 1,3,-1
 328 -94 l 1,0,-1
328 1184 m 1,4,-1
 328 1421 l 1,5,6
 1123 1421 1123 1421 1318 1409 c 2,7,-1
 1384 1405 l 1,8,9
 1364 1570 1364 1570 1364 2298 c 1,10,-1
 1606 2298 l 1,11,12
 1606 1660.66666667 1606 1660.66666667 1590 1474 c 1,13,-1
 1585 1405 l 1,14,15
 1792 1421 1792 1421 2642 1421 c 1,16,-1
 2642 1184 l 1,17,18
 1845 1184 1845 1184 1650 1196 c 2,19,-1
 1585 1200 l 1,20,21
 1606 1039 1606 1039 1606 307 c 1,22,-1
 1364 307 l 1,23,24
 1364 952 1364 952 1379 1138 c 2,25,-1
 1384 1200 l 1,26,27
 1219 1184 1219 1184 328 1184 c 1,4,-1
EndSplineSet
EndChar

StartChar: uni00B5
Encoding: 181 181 119
Width: 2121
GlyphClass: 2
Flags: HW
LayerCount: 2
Fore
SplineSet
1421 -86 m 0,0,1
 1257 -86 1257 -86 1257 184 c 0,2,3
 1257 284 1257 284 1298 510 c 128,-1,4
 1339 736 1339 736 1339 747 c 128,-1,5
 1339 758 1339 758 1330.5 758 c 128,-1,6
 1322 758 1322 758 1306 733 c 128,-1,7
 1290 708 1290 708 1261.5 657.5 c 128,-1,8
 1233 607 1233 607 1194.5 544.5 c 0,9,10
 1099.82588161 390.80824937 1099.82588161 390.80824937 963.912940806 241.404124685 c 0,11,12
 676.989790467 -74 676.989790467 -74 463 -74 c 0,13,14
 420 -74 420 -74 388 -46.5 c 128,-1,15
 356 -19 356 -19 343 14 c 128,-1,16
 330 47 330 47 320.5 74.5 c 128,-1,17
 311 102 311 102 305 102 c 128,-1,18
 299 102 299 102 281 21.5 c 0,19,20
 233 -193.166666667 233 -193.166666667 233 -300.083333333 c 128,-1,21
 233 -407 233 -407 256.5 -482 c 128,-1,22
 280 -557 280 -557 304 -614.5 c 128,-1,23
 328 -672 328 -672 328 -684 c 128,-1,24
 328 -696 328 -696 324.5 -709 c 128,-1,25
 321 -722 321 -722 311.5 -741 c 128,-1,26
 302 -760 302 -760 287.5 -776 c 0,27,28
 252.15625 -815 252.15625 -815 188 -815 c 128,-1,29
 124 -815 124 -815 97 -767.5 c 128,-1,30
 70 -720 70 -720 70 -581.5 c 128,-1,31
 70 -443 70 -443 107 -264 c 128,-1,32
 144 -85 144 -85 217 170.5 c 0,33,34
 334 580 334 580 422 1018.5 c 128,-1,35
 510 1457 510 1457 525 1502.5 c 128,-1,36
 540 1548 540 1548 569 1548 c 0,37,38
 592.263157895 1548 592.263157895 1548 641.631578947 1534 c 0,39,40
 741 1505.82089552 741 1505.82089552 741 1454 c 0,41,42
 741 1417 741 1417 649 899.5 c 128,-1,43
 557 382 557 382 557 331.5 c 128,-1,44
 557 281 557 281 563 253 c 0,45,46
 578.642857143 180 578.642857143 180 644.821428571 180 c 128,-1,47
 711 180 711 180 810.5 258 c 128,-1,48
 910 336 910 336 1004 456.5 c 128,-1,49
 1098 577 1098 577 1193.5 731 c 0,50,51
 1365.62874251 1008.56886228 1365.62874251 1008.56886228 1495 1303 c 1,52,53
 1553.45859873 1424.41401274 1553.45859873 1424.41401274 1571.22929936 1479.20700637 c 128,-1,54
 1589 1534 1589 1534 1596 1539 c 0,55,56
 1608.6 1548 1608.6 1548 1650.8 1548 c 128,-1,57
 1693 1548 1693 1548 1754 1526 c 128,-1,58
 1815 1504 1815 1504 1815 1481 c 128,-1,59
 1815 1458 1815 1458 1750.5 1198 c 0,60,61
 1556 413.968992248 1556 413.968992248 1556 295 c 0,62,63
 1556 254 1556 254 1586 227.5 c 128,-1,64
 1616 201 1616 201 1661 201 c 128,-1,65
 1706 201 1706 201 1749 242 c 128,-1,66
 1792 283 1792 283 1816 332 c 0,67,68
 1880.16326531 463 1880.16326531 463 1921 463 c 0,69,70
 1970 463 1970 463 1970 406.5 c 128,-1,71
 1970 350 1970 350 1943 287 c 128,-1,72
 1916 224 1916 224 1864.5 159 c 128,-1,73
 1813 94 1813 94 1747.5 39 c 0,74,75
 1598.63636364 -86 1598.63636364 -86 1421 -86 c 0,0,1
EndSplineSet
EndChar

StartChar: paragraph
Encoding: 182 182 120
Width: 2871
GlyphClass: 2
Flags: HW
LayerCount: 2
Fore
SplineSet
2437 -676 m 1,0,-1
 2466 -573 l 1,1,2
 2466 -438.512676056 2466 -438.512676056 2071.5 -348.5 c 0,3,4
 1894 -308 1894 -308 1704.5 -272.5 c 0,5,6
 1190.42339008 -176.195410807 1190.42339008 -176.195410807 988.711695041 -83.5977054034 c 128,-1,7
 787 9 787 9 630 159.5 c 128,-1,8
 473 310 473 310 375 502.5 c 0,9,10
 180 885.535714286 180 885.535714286 180 1397 c 0,11,12
 180 2035.60215054 180 2035.60215054 631.5 2451.5 c 0,13,14
 904.116238656 2702.61961769 904.116238656 2702.61961769 1296 2797 c 0,15,16
 1487 2843 1487 2843 1654.5 2843 c 128,-1,17
 1822 2843 1822 2843 1926.5 2822 c 128,-1,18
 2031 2801 2031 2801 2086 2769 c 0,19,20
 2195 2705.58181818 2195 2705.58181818 2195 2658.29090909 c 128,-1,21
 2195 2611 2195 2611 2172 2589.5 c 128,-1,22
 2149 2568 2149 2568 2122.5 2568 c 128,-1,23
 2096 2568 2096 2568 2053.5 2590.5 c 128,-1,24
 2011 2613 2011 2613 1967 2640 c 0,25,26
 1849.66666667 2712 1849.66666667 2712 1651 2712 c 1,27,-1
 1421 2691 l 1,28,-1
 1421 -57 l 1,29,30
 1561.74558304 -90.6996466431 1561.74558304 -90.6996466431 1732.37279152 -104.349823322 c 128,-1,31
 1903 -118 1903 -118 2017 -131.5 c 128,-1,32
 2131 -145 2131 -145 2229 -160.5 c 128,-1,33
 2327 -176 2327 -176 2419.5 -207 c 128,-1,34
 2512 -238 2512 -238 2577 -278.5 c 0,35,36
 2720 -367.6 2720 -367.6 2720 -532 c 0,37,38
 2720 -629 2720 -629 2673 -705.5 c 128,-1,39
 2626 -782 2626 -782 2548 -782 c 0,40,41
 2437 -782 2437 -782 2437 -676 c 1,0,-1
860 176 m 1,42,43
 1016.82646547 42.8798607081 1016.82646547 42.8798607081 1270 -25 c 1,44,-1
 1270 2650 l 1,45,46
 1021 2589 1021 2589 860 2449 c 1,47,-1
 860 176 l 1,42,43
EndSplineSet
EndChar

StartChar: periodcentered
Encoding: 183 183 121
Width: 823
GlyphClass: 2
Flags: HW
LayerCount: 2
Fore
SplineSet
307.5 1260 m 128,-1,1
 262 1324 262 1324 262 1372 c 128,-1,2
 262 1420 262 1420 316.5 1480 c 128,-1,3
 371 1540 371 1540 425 1540 c 128,-1,4
 479 1540 479 1540 522 1481.5 c 128,-1,5
 565 1423 565 1423 565 1374.5 c 128,-1,6
 565 1326 565 1326 530.5 1285 c 0,7,8
 455.609756098 1196 455.609756098 1196 404.304878049 1196 c 128,-1,0
 353 1196 353 1196 307.5 1260 c 128,-1,1
EndSplineSet
EndChar

StartChar: ordmasculine
Encoding: 186 186 124
Width: 1310
GlyphClass: 2
Flags: HW
LayerCount: 2
Fore
SplineSet
180 2093 m 0,0,1
 180 2491 180 2491 442 2781 c 1,2,3
 624.26744186 2990 624.26744186 2990 799 2990 c 0,4,5
 1010.96 2990 1010.96 2990 1091 2772.5 c 0,6,7
 1130 2666.52173913 1130 2666.52173913 1130 2542.26086957 c 128,-1,8
 1130 2418 1130 2418 1095.5 2287 c 128,-1,9
 1061 2156 1061 2156 999.5 2041.5 c 128,-1,10
 938 1927 938 1927 861.5 1834.5 c 0,11,12
 695.681081081 1634 695.681081081 1634 516 1634 c 0,13,14
 416 1634 416 1634 338.5 1697 c 0,15,16
 180 1825.84516129 180 1825.84516129 180 2093 c 0,0,1
426.5 1999.5 m 0,17,18
 483.605633803 1761 483.605633803 1761 610 1761 c 0,19,20
 685 1761 685 1761 758 1871 c 128,-1,21
 831 1981 831 1981 874.5 2142.5 c 128,-1,22
 918 2304 918 2304 918 2412.5 c 128,-1,23
 918 2521 918 2521 906 2592.5 c 128,-1,24
 894 2664 894 2664 871.5 2731 c 0,25,26
 820.119402985 2884 820.119402985 2884 717 2884 c 0,27,28
 592.113207547 2884 592.113207547 2884 476 2612.5 c 0,29,30
 401 2437.13235294 401 2437.13235294 401 2271.56617647 c 128,-1,31
 401 2106 401 2106 426.5 1999.5 c 0,17,18
EndSplineSet
EndChar

StartChar: questiondown
Encoding: 191 191 129
Width: 1490
GlyphClass: 2
Flags: HW
LayerCount: 2
Fore
SplineSet
813 237.5 m 128,-1,1
 944 258 944 258 1002.5 258 c 128,-1,2
 1061 258 1061 258 1061 209 c 0,3,4
 1061 149.915492958 1061 149.915492958 1004.5 85.4577464789 c 0,5,6
 897.160493827 -37 897.160493827 -37 770 -37 c 0,7,8
 635.34057971 -37 635.34057971 -37 463.5 105 c 0,9,10
 147 366.538922156 147 366.538922156 147 700 c 0,11,12
 147 799.970149254 147 799.970149254 298 969 c 0,13,14
 365 1044 365 1044 446.5 1126.5 c 128,-1,15
 528 1209 528 1209 609.5 1295 c 128,-1,16
 691 1381 691 1381 758 1463.5 c 0,17,18
 909 1649.43283582 909 1649.43283582 909 1790 c 0,19,20
 909 1900.64705882 909 1900.64705882 878 1945.32352941 c 0,21,22
 819 2030.35294118 819 2030.35294118 819 2048 c 0,23,24
 819 2097 819 2097 868 2097 c 0,25,26
 954.339805825 2097 954.339805825 2097 1049 1934.5 c 0,27,28
 1118 1816.05 1118 1816.05 1118 1686.025 c 128,-1,29
 1118 1556 1118 1556 1079 1466.5 c 128,-1,30
 1040 1377 1040 1377 978 1295.5 c 128,-1,31
 916 1214 916 1214 841 1129.5 c 128,-1,32
 766 1045 766 1045 691 960.5 c 128,-1,33
 616 876 616 876 554 793.5 c 0,34,35
 414 607.209677419 414 607.209677419 414 474.10483871 c 128,-1,36
 414 341 414 341 485.5 279 c 128,-1,37
 557 217 557 217 655 217 c 0,38,0
 682 217 682 217 813 237.5 c 128,-1,1
763.5 2417 m 128,-1,40
 705 2491 705 2491 705 2536 c 128,-1,41
 705 2581 705 2581 775 2656.5 c 128,-1,42
 845 2732 845 2732 892.5 2732 c 128,-1,43
 940 2732 940 2732 996.5 2654 c 128,-1,44
 1053 2576 1053 2576 1053 2528 c 128,-1,45
 1053 2480 1053 2480 984 2411.5 c 128,-1,46
 915 2343 915 2343 868.5 2343 c 128,-1,39
 822 2343 822 2343 763.5 2417 c 128,-1,40
EndSplineSet
Position2: "'cpsp' Capital Spacing in Latin lookup 0 subtable" dx=33 dy=0 dh=66 dv=0
EndChar

StartChar: AE
Encoding: 198 198 136
Width: 3940
GlyphClass: 2
Flags: HW
LayerCount: 2
Fore
SplineSet
2778 2599 m 2,0,-1
 2642 2601 l 2,1,2
 2574 2601 2574 2601 2554 2591.5 c 128,-1,3
 2534 2582 2534 2582 2531 2544 c 2,4,-1
 2449 1630 l 1,5,-1
 3187 1630 l 2,6,7
 3273 1630 3273 1630 3295 1647 c 128,-1,8
 3317 1664 3317 1664 3326 1737 c 1,9,-1
 3346 1937 l 1,10,-1
 3437 1933 l 1,11,-1
 3371 1094 l 1,12,-1
 3273 1098 l 1,13,14
 3293 1374 3293 1374 3293 1402.5 c 0,15,16
 3293 1470 3293 1470 3166 1470 c 2,17,-1
 2433 1470 l 1,18,-1
 2339 381 l 1,19,20
 2331 275 2331 275 2331 242.5 c 128,-1,21
 2331 210 2331 210 2349.5 199 c 128,-1,22
 2368 188 2368 188 2429 188 c 2,23,-1
 2490 188 l 2,24,25
 3239.83333333 188 3239.83333333 188 3335.41666667 203.5 c 128,-1,26
 3431 219 3431 219 3456.5 225.5 c 128,-1,27
 3482 232 3482 232 3502 247.5 c 0,28,29
 3528.74157303 268.224719101 3528.74157303 268.224719101 3542.37078652 306.112359551 c 128,-1,30
 3556 344 3556 344 3569 390 c 128,-1,31
 3582 436 3582 436 3589.5 467.5 c 0,32,33
 3617 583 3617 583 3625 623 c 1,34,-1
 3727 602 l 1,35,-1
 3588 0 l 1,36,-1
 1765 0 l 1,37,-1
 1774 131 l 1,38,-1
 1868 131 l 2,39,40
 1972.85185185 131 1972.85185185 131 1998.92592593 147 c 0,41,42
 2034.53929539 168.853658537 2034.53929539 168.853658537 2044 254 c 1,43,-1
 2118 1053 l 1,44,-1
 1180 1053 l 1,45,-1
 639 360 l 1,46,47
 541 231.454545455 541 231.454545455 541 201 c 0,48,49
 541 157 541 157 592 144 c 128,-1,50
 643 131 643 131 799 131 c 2,51,-1
 877 131 l 1,52,-1
 868 0 l 1,53,-1
 41 0 l 1,54,-1
 41 131 l 1,55,-1
 106 131 l 2,56,57
 182 131 182 131 240 179 c 128,-1,58
 298 227 298 227 397 348 c 2,59,-1
 2183 2507 l 2,60,61
 2216 2548 2216 2548 2216 2568 c 0,62,63
 2216 2601 2216 2601 2126 2601 c 2,64,-1
 1901 2601 l 1,65,-1
 1901 2732 l 1,66,-1
 3736 2732 l 1,67,-1
 3736 2236 l 1,68,-1
 3645 2232 l 1,69,-1
 3641 2445 l 2,70,71
 3639.15675206 2516.88666956 3639.15675206 2516.88666956 3602.57837603 2539.44333478 c 128,-1,72
 3566 2562 3566 2562 3514.5 2569.5 c 128,-1,73
 3463 2577 3463 2577 3362.5 2583.5 c 0,74,75
 3219.42870413 2592.75336739 3219.42870413 2592.75336739 2778 2599 c 2,0,-1
1319 1212 m 1,76,-1
 2130 1212 l 1,77,-1
 2236 2351 l 1,78,-1
 1319 1212 l 1,76,-1
EndSplineSet
Position2: "'cpsp' Capital Spacing in Latin lookup 0 subtable" dx=33 dy=0 dh=66 dv=0
EndChar

StartChar: Ccedilla
Encoding: 199 199 137
Width: 2805
GlyphClass: 2
Flags: HW
LayerCount: 2
Fore
SplineSet
1389 -270 m 1,0,-1
 1454 -266 l 1,1,2
 1761.18181818 -266 1761.18181818 -266 1844.5 -441.5 c 0,3,4
 1868 -491 1868 -491 1868 -556.5 c 128,-1,5
 1868 -622 1868 -622 1842 -680.5 c 128,-1,6
 1816 -739 1816 -739 1773 -779 c 128,-1,7
 1730 -819 1730 -819 1673.5 -847 c 0,8,9
 1564.53571429 -901 1564.53571429 -901 1458.26785714 -901 c 0,10,11
 1273.53846154 -901 1273.53846154 -901 1192 -848 c 1,12,-1
 1278 -750 l 1,13,14
 1388 -791 1388 -791 1469 -791 c 128,-1,15
 1550 -791 1550 -791 1604.5 -731.5 c 128,-1,16
 1659 -672 1659 -672 1659 -595.5 c 128,-1,17
 1659 -519 1659 -519 1636 -482.5 c 128,-1,18
 1613 -446 1613 -446 1573 -426.5 c 0,19,20
 1496.07692308 -389 1496.07692308 -389 1420.03846154 -389 c 128,-1,21
 1344 -389 1344 -389 1315 -393 c 1,22,-1
 1274 -324 l 1,23,-1
 1376 -45 l 1,24,25
 661.221627423 -22.0352330096 661.221627423 -22.0352330096 359 485.5 c 0,26,27
 184 779.385869565 184 779.385869565 184 1176 c 0,28,29
 184 1795.95505618 184 1795.95505618 545 2268.5 c 0,30,31
 832.824512535 2645.25905292 832.824512535 2645.25905292 1301 2754.5 c 0,32,33
 1466 2793 1466 2793 1672 2793 c 128,-1,34
 1878 2793 1878 2793 2080 2733.5 c 128,-1,35
 2282 2674 2282 2674 2400.5 2575 c 128,-1,36
 2519 2476 2519 2476 2519 2363 c 0,37,38
 2519 2318.76470588 2519 2318.76470588 2492.5 2242.38235294 c 0,39,40
 2440.67346939 2093 2440.67346939 2093 2367 2093 c 0,41,42
 2301.69230769 2093 2301.69230769 2093 2271 2226 c 0,43,44
 2249.71428571 2318.23809524 2249.71428571 2318.23809524 2236.35714286 2365.11904762 c 128,-1,45
 2223 2412 2223 2412 2179.5 2460.5 c 128,-1,46
 2136 2509 2136 2509 2065 2555.5 c 0,47,48
 1902.38709677 2662 1902.38709677 2662 1642 2662 c 0,49,50
 1367.56774194 2662 1367.56774194 2662 1105 2500.5 c 0,51,52
 850.27628681 2343.82470022 850.27628681 2343.82470022 683 2037.5 c 0,53,54
 512 1724.35625 512 1724.35625 512 1307 c 0,55,56
 512 1038 512 1038 587.5 809.5 c 128,-1,57
 663 581 663 581 792.5 426.5 c 0,58,59
 1067.84466019 98 1067.84466019 98 1466 98 c 0,60,61
 1753.34146341 98 1753.34146341 98 2007 258 c 0,62,63
 2145 346 2145 346 2184.5 395 c 128,-1,64
 2224 444 2224 444 2263.5 532.5 c 128,-1,65
 2303 621 2303 621 2306 627 c 1,66,-1
 2396 627 l 1,67,68
 2372 495 2372 495 2322 262 c 0,69,70
 2313 224 2313 224 2286.5 199.5 c 128,-1,71
 2260 175 2260 175 2155 116 c 0,72,73
 1878.16868023 -39.5528368252 1878.16868023 -39.5528368252 1466 -45 c 1,74,-1
 1389 -270 l 1,0,-1
EndSplineSet
Position2: "'cpsp' Capital Spacing in Latin lookup 0 subtable" dx=33 dy=0 dh=66 dv=0
EndChar

StartChar: Eth
Encoding: 208 208 146
Width: 2985
GlyphClass: 2
Flags: HW
LayerCount: 2
Fore
SplineSet
426 1466 m 1,0,-1
 512 2531 l 1,1,2
 512 2581 512 2581 482 2591 c 128,-1,3
 452 2601 452 2601 328 2601 c 2,4,-1
 156 2601 l 1,5,-1
 164 2732 l 1,6,-1
 1253 2732 l 2,7,8
 1826 2732 1826 2732 2105 2623.5 c 0,9,10
 2258 2564 2258 2564 2362.5 2477 c 128,-1,11
 2467 2390 2467 2390 2564 2253 c 0,12,13
 2781 1944 2781 1944 2781 1528 c 0,14,15
 2781 1238 2781 1238 2668.5 954 c 0,16,17
 2497.55734457 522.464763176 2497.55734457 522.464763176 2121.5 261 c 0,18,19
 1746.11111111 -7.1054273576e-15 1746.11111111 -7.1054273576e-15 1151 0 c 2,20,-1
 90 0 l 1,21,-1
 98 131 l 1,22,-1
 172 131 l 2,23,24
 277 131 277 131 301.5 149.5 c 128,-1,25
 326 168 326 168 332 254 c 2,26,-1
 414 1307 l 1,27,-1
 152 1307 l 1,28,-1
 164 1466 l 1,29,-1
 426 1466 l 1,0,-1
651 573 m 1,30,31
 635 370 635 370 635 307 c 128,-1,32
 635 244 635 244 637 225.5 c 128,-1,33
 639 207 639 207 647 191.5 c 128,-1,34
 655 176 655 176 663 166.5 c 128,-1,35
 671 157 671 157 691 150 c 128,-1,36
 711 143 711 143 728 139.5 c 128,-1,37
 745 136 745 136 780.5 134 c 0,38,39
 833.75 131 833.75 131 930 131 c 2,40,-1
 1196 131 l 2,41,42
 1781.49107143 131 1781.49107143 131 2113.5 501 c 0,43,44
 2454 880.462686567 2454 880.462686567 2454 1470 c 0,45,46
 2454 1995.39664804 2454 1995.39664804 2149.5 2305 c 0,47,48
 1858.37912088 2601 1858.37912088 2601 1331 2601 c 2,49,-1
 922 2601 l 2,50,51
 844 2601 844 2601 828.5 2587 c 0,52,53
 807 2567.58064516 807 2567.58064516 807 2494 c 1,54,-1
 725 1466 l 1,55,-1
 1569 1466 l 1,56,-1
 1556 1307 l 1,57,-1
 713 1307 l 1,58,-1
 651 573 l 1,30,31
EndSplineSet
Substitution2: "'swsh' Swash in Latin lookup 13 subtable" Eth.001
AlternateSubs2: "'aalt' Access All Alternates in Latin lookup 1 subtable" Eth.001
AlternateSubs2: "'aalt' Access All Alternates lookup 0 subtable" Eth.001
Position2: "'cpsp' Capital Spacing in Latin lookup 0 subtable" dx=33 dy=0 dh=66 dv=0
EndChar

StartChar: multiply
Encoding: 215 215 153
Width: 2412
GlyphClass: 2
Flags: HW
LayerCount: 2
Fore
SplineSet
246 172 m 1,0,1
 886 812 886 812 1018 926 c 2,2,-1
 1061 963 l 1,3,4
 1010 989 1010 989 246 1753 c 1,5,-1
 418 1921 l 1,6,7
 1117 1222 1117 1222 1204 1106 c 1,8,9
 1268 1194 1268 1194 1995 1921 c 1,10,-1
 2167 1753 l 1,11,12
 1518.14285714 1104.14285714 1518.14285714 1104.14285714 1396 1001 c 1,13,-1
 1352 963 l 1,14,15
 1440 899 1440 899 2167 172 c 1,16,-1
 1995 4 l 1,17,18
 1374.6 624.4 1374.6 624.4 1242 774 c 1,19,-1
 1204 819 l 1,20,21
 1117 703 1117 703 418 4 c 1,22,-1
 246 172 l 1,0,1
EndSplineSet
EndChar

StartChar: Oslash
Encoding: 216 216 154
Width: 2981
GlyphClass: 2
Flags: HW
LayerCount: 2
Fore
SplineSet
184 1217 m 0,0,1
 184 1894.35433071 184 1894.35433071 576 2345 c 0,2,3
 980.48630137 2810 980.48630137 2810 1606 2810 c 0,4,5
 1906 2810 1906 2810 2142 2695 c 1,6,-1
 2294 2957 l 1,7,-1
 2425 2884 l 1,8,-1
 2273 2621 l 1,9,10
 2605.86550395 2396.41604553 2605.86550395 2396.41604553 2723 1961.5 c 0,11,12
 2777 1761 2777 1761 2777 1567.5 c 128,-1,13
 2777 1374 2777 1374 2746.5 1208.5 c 128,-1,14
 2716 1043 2716 1043 2653 885 c 128,-1,15
 2590 727 2590 727 2501 585 c 128,-1,16
 2412 443 2412 443 2289 323.5 c 128,-1,17
 2166 204 2166 204 2021 117.5 c 0,18,19
 1713.39884393 -66 1713.39884393 -66 1315 -66 c 0,20,21
 1023 -66 1023 -66 791 53 c 1,22,-1
 545 -369 l 1,23,-1
 414 -295 l 1,24,-1
 659 131 l 1,25,26
 437 289 437 289 310.5 562.5 c 128,-1,27
 184 836 184 836 184 1217 c 0,0,1
520 1303 m 0,28,29
 520 707 520 707 799 373 c 1,30,-1
 2040 2515 l 1,31,32
 1829 2679 1829 2679 1561 2679 c 0,33,34
 1304.63157895 2679 1304.63157895 2679 1065.5 2523 c 0,35,36
 830.221526269 2369.5136137 830.221526269 2369.5136137 677 2061 c 0,37,38
 520 1744.87837838 520 1744.87837838 520 1303 c 0,28,29
909 262 m 1,39,40
 1124 82 1124 82 1405 82 c 0,41,42
 1659.87898089 82 1659.87898089 82 1897.5 243.5 c 0,43,44
 2132.28440367 403.072083879 2132.28440367 403.072083879 2284.5 722 c 0,45,46
 2441 1049.9047619 2441 1049.9047619 2441 1507 c 0,47,48
 2441 2094.38686131 2441 2094.38686131 2150 2413 c 1,49,-1
 909 262 l 1,39,40
EndSplineSet
Position2: "'cpsp' Capital Spacing in Latin lookup 0 subtable" dx=33 dy=0 dh=66 dv=0
EndChar

StartChar: Thorn
Encoding: 222 222 160
Width: 2273
GlyphClass: 2
Flags: HW
LayerCount: 2
Fore
SplineSet
373 319 m 1,0,-1
 532 2494 l 1,1,2
 532 2567.17647059 532 2567.17647059 512.5 2582.08823529 c 0,3,4
 487.769230769 2601 487.769230769 2601 385 2601 c 2,5,-1
 197 2601 l 1,6,-1
 201 2732 l 1,7,-1
 1135 2732 l 1,8,-1
 1130 2601 l 1,9,10
 1056.25 2601 1056.25 2601 1010.625 2601 c 128,-1,11
 965 2601 965 2601 938 2599.5 c 128,-1,12
 911 2598 911 2598 901.5 2597 c 128,-1,13
 892 2596 892 2596 874.5 2591 c 128,-1,14
 857 2586 857 2586 853 2582.5 c 128,-1,15
 849 2579 849 2579 839.5 2568 c 128,-1,16
 830 2557 830 2557 829 2549 c 128,-1,17
 828 2541 828 2541 823.5 2523 c 128,-1,18
 819 2505 819 2505 818 2490.5 c 128,-1,19
 817 2476 817 2476 815 2449 c 2,20,-1
 795 2179 l 1,21,-1
 1171 2179 l 2,22,23
 1652 2179 1652 2179 1901 2000 c 128,-1,24
 2150 1821 2150 1821 2150 1479 c 0,25,26
 2150 1002.64338235 2150 1002.64338235 1693 735.5 c 0,27,28
 1415.01257862 573 1415.01257862 573 1065 573 c 0,29,30
 860 573 860 573 684 610 c 1,31,-1
 668 373 l 2,32,33
 666 337 666 337 662.5 301 c 128,-1,34
 659 265 659 265 659 243.5 c 128,-1,35
 659 222 659 222 662 204.5 c 128,-1,36
 665 187 665 187 670 174.5 c 128,-1,37
 675 162 675 162 687.5 154 c 128,-1,38
 700 146 700 146 711.5 141 c 128,-1,39
 723 136 723 136 746.5 134 c 0,40,41
 781.75 131 781.75 131 848 131 c 2,42,-1
 1024 131 l 1,43,-1
 1024 0 l 1,44,-1
 82 0 l 1,45,-1
 90 131 l 1,46,-1
 225 131 l 2,47,48
 321.352941176 131 321.352941176 131 336.176470588 149 c 128,-1,49
 351 167 351 167 358 193 c 0,50,51
 367.709677419 229.064516129 367.709677419 229.064516129 373 319 c 1,0,-1
692 721 m 1,52,53
 824 705 824 705 957.5 705 c 128,-1,54
 1091 705 1091 705 1216 734.5 c 128,-1,55
 1341 764 1341 764 1427.5 812.5 c 128,-1,56
 1514 861 1514 861 1581.5 926.5 c 128,-1,57
 1649 992 1649 992 1688.5 1058.5 c 128,-1,58
 1728 1125 1728 1125 1754 1197 c 0,59,60
 1798 1318.84615385 1798 1318.84615385 1798 1420.92307692 c 128,-1,61
 1798 1523 1798 1523 1778 1602 c 128,-1,62
 1758 1681 1758 1681 1725 1739 c 128,-1,63
 1692 1797 1692 1797 1642 1844.5 c 128,-1,64
 1592 1892 1592 1892 1539.5 1923.5 c 128,-1,65
 1487 1955 1487 1955 1419.5 1978.5 c 128,-1,66
 1352 2002 1352 2002 1292 2015 c 128,-1,67
 1232 2028 1232 2028 1160.5 2036 c 0,68,69
 1053.25 2048 1053.25 2048 943.125 2048 c 128,-1,70
 833 2048 833 2048 809 2033 c 128,-1,71
 785 2018 785 2018 782 1958 c 1,72,-1
 692 721 l 1,52,53
EndSplineSet
Position2: "'cpsp' Capital Spacing in Latin lookup 0 subtable" dx=33 dy=0 dh=66 dv=0
EndChar

StartChar: germandbls
Encoding: 223 223 161
Width: 2138
GlyphClass: 2
Flags: HW
LayerCount: 2
Fore
SplineSet
83.5 -1000.5 m 128,-1,1
 0 -944 0 -944 0 -857 c 128,-1,2
 0 -770 0 -770 34.5 -714.5 c 128,-1,3
 69 -659 69 -659 109 -659 c 128,-1,4
 149 -659 149 -659 167 -666.5 c 128,-1,5
 185 -674 185 -674 200 -692 c 128,-1,6
 215 -710 215 -710 223 -722.5 c 128,-1,7
 231 -735 231 -735 245.5 -764 c 0,8,9
 320 -913 320 -913 422 -913 c 0,10,11
 535.414772727 -913 535.414772727 -913 580.5 -568 c 0,12,13
 606.335148515 -370.304950495 606.335148515 -370.304950495 637.167574257 104.347524752 c 128,-1,14
 668 579 668 579 681.5 760 c 128,-1,15
 695 941 695 941 712 1175.5 c 0,16,17
 769.833694642 1973.26478786 769.833694642 1973.26478786 811.416847321 2176.63239393 c 128,-1,18
 853 2380 853 2380 899 2473.5 c 128,-1,19
 945 2567 945 2567 1041 2663 c 0,20,21
 1253 2875 1253 2875 1487 2875 c 0,22,23
 1603.25714286 2875 1603.25714286 2875 1683.62857143 2817 c 128,-1,24
 1764 2759 1764 2759 1820 2685 c 128,-1,25
 1876 2611 1876 2611 1876 2544 c 128,-1,26
 1876 2477 1876 2477 1868.5 2442.5 c 128,-1,27
 1861 2408 1861 2408 1842.5 2367 c 128,-1,28
 1824 2326 1824 2326 1809.5 2298 c 128,-1,29
 1795 2270 1795 2270 1765 2216.5 c 0,30,31
 1495 1735 1495 1735 1495 1565 c 0,32,33
 1495 1435.35869565 1495 1435.35869565 1569.5 1321.17934783 c 128,-1,34
 1644 1207 1644 1207 1699.5 1133 c 128,-1,35
 1755 1059 1755 1059 1810.5 981.5 c 128,-1,36
 1866 904 1866 904 1912 826 c 0,37,38
 2015 651.347826087 2015 651.347826087 2015 519.673913043 c 128,-1,39
 2015 388 2015 388 1971 296 c 128,-1,40
 1927 204 1927 204 1851 132 c 0,41,42
 1681.05555556 -29 1681.05555556 -29 1425 -29 c 0,43,44
 1165.42857143 -29 1165.42857143 -29 1090 70 c 1,45,46
 1053 113 1053 113 1053 211.5 c 0,47,48
 1053 414 1053 414 1151 414 c 0,49,50
 1202.92537313 414 1202.92537313 414 1233 336.5 c 0,51,52
 1294.2556547 178.648889811 1294.2556547 178.648889811 1378.5 137 c 0,53,54
 1423 115 1423 115 1483 115 c 0,55,56
 1615 115 1615 115 1692 199.5 c 128,-1,57
 1769 284 1769 284 1769 380.5 c 128,-1,58
 1769 477 1769 477 1743 545.5 c 128,-1,59
 1717 614 1717 614 1675 678 c 128,-1,60
 1633 742 1633 742 1582.5 809 c 128,-1,61
 1532 876 1532 876 1481 946 c 128,-1,62
 1430 1016 1430 1016 1388 1086 c 0,63,64
 1294 1242.66666667 1294 1242.66666667 1294 1357.83333333 c 128,-1,65
 1294 1473 1294 1473 1332 1591 c 128,-1,66
 1370 1709 1370 1709 1424 1827 c 128,-1,67
 1478 1945 1478 1945 1532.5 2057.5 c 0,68,69
 1663 2326.88073394 1663 2326.88073394 1663 2377.44036697 c 128,-1,70
 1663 2428 1663 2428 1654 2465 c 128,-1,71
 1645 2502 1645 2502 1623 2545 c 128,-1,72
 1601 2588 1601 2588 1569.5 2623.5 c 0,73,74
 1495.4084507 2707 1495.4084507 2707 1401.20422535 2707 c 128,-1,75
 1307 2707 1307 2707 1256.5 2680 c 128,-1,76
 1206 2653 1206 2653 1165.5 2593.5 c 128,-1,77
 1125 2534 1125 2534 1096 2427.5 c 0,78,79
 1040.58565832 2223.99560727 1040.58565832 2223.99560727 1004.79282916 1795.49780363 c 128,-1,80
 969 1367 969 1367 928.5 722.5 c 128,-1,81
 888 78 888 78 857 -244 c 128,-1,82
 826 -566 826 -566 744.5 -759.5 c 128,-1,83
 663 -953 663 -953 511 -1018 c 1,84,85
 417 -1057 417 -1057 292 -1057 c 128,-1,0
 167 -1057 167 -1057 83.5 -1000.5 c 128,-1,1
EndSplineSet
EndChar

StartChar: ae
Encoding: 230 230 168
Width: 2002
GlyphClass: 2
Flags: HW
LayerCount: 2
Fore
SplineSet
115.5 215 m 128,-1,1
 102 298 102 298 102 417.5 c 128,-1,2
 102 537 102 537 115.5 635 c 128,-1,3
 129 733 129 733 165 828.5 c 0,4,5
 325.748730964 1254.93066131 325.748730964 1254.93066131 680 1548.5 c 0,6,7
 788 1638 788 1638 834.5 1638 c 128,-1,8
 881 1638 881 1638 914 1607 c 128,-1,9
 947 1576 947 1576 970.5 1532 c 0,10,11
 1019.72631579 1439.83157895 1019.72631579 1439.83157895 1049 1339 c 1,12,-1
 1098 1618 l 2,13,14
 1110 1688 1110 1688 1192 1688 c 2,15,-1
 1233 1688 l 2,16,17
 1280 1688 1280 1688 1293.5 1679.5 c 128,-1,18
 1307 1671 1307 1671 1307 1651 c 128,-1,19
 1307 1631 1307 1631 1289 1578 c 128,-1,20
 1271 1525 1271 1525 1245.5 1450.5 c 128,-1,21
 1220 1376 1220 1376 1208 1331 c 1,22,23
 1295 1446 1295 1446 1426.5 1538 c 128,-1,24
 1558 1630 1558 1630 1620 1630 c 128,-1,25
 1682 1630 1682 1630 1746.5 1598.5 c 128,-1,26
 1811 1567 1811 1567 1864 1522 c 128,-1,27
 1917 1477 1917 1477 1917 1453 c 128,-1,28
 1917 1429 1917 1429 1847 1344.5 c 128,-1,29
 1777 1260 1777 1260 1672.5 1150 c 0,30,31
 1413.552822 877.424023155 1413.552822 877.424023155 1167 692 c 1,32,33
 1167 359.734939759 1167 359.734939759 1332.5 272 c 0,34,35
 1374 250 1374 250 1425 250 c 0,36,37
 1610 250 1610 250 1872 496 c 0,38,39
 1877 502 1877 502 1880 504 c 1,40,-1
 1942 410 l 1,41,42
 1656.30463576 140.176600442 1656.30463576 140.176600442 1412 30 c 0,43,44
 1310 -16 1310 -16 1259 -16 c 128,-1,45
 1208 -16 1208 -16 1173.5 -4 c 128,-1,46
 1139 8 1139 8 1097.5 39.5 c 128,-1,47
 1056 71 1056 71 1023 117 c 0,48,49
 946 224.333333333 946 224.333333333 946 420.666666667 c 128,-1,50
 946 617 946 617 963 725 c 1,51,52
 836 427 836 427 639 180 c 1,53,54
 566 92 566 92 460.5 23.5 c 128,-1,55
 355 -45 355 -45 315.5 -45 c 128,-1,56
 276 -45 276 -45 250.5 -35 c 128,-1,57
 225 -25 225 -25 197 5.5 c 128,-1,58
 169 36 169 36 149 84 c 128,-1,0
 129 132 129 132 115.5 215 c 128,-1,1
343 795 m 128,-1,60
 311 659 311 659 311 534 c 128,-1,61
 311 409 311 409 361 325.5 c 128,-1,62
 411 242 411 242 465.5 242 c 128,-1,63
 520 242 520 242 614.5 356 c 128,-1,64
 709 470 709 470 794 622.5 c 128,-1,65
 879 775 879 775 941.5 937 c 128,-1,66
 1004 1099 1004 1099 1004 1173.5 c 128,-1,67
 1004 1248 1004 1248 958.5 1312 c 128,-1,68
 913 1376 913 1376 854.5 1415 c 128,-1,69
 796 1454 796 1454 754 1454 c 128,-1,70
 712 1454 712 1454 653.5 1400.5 c 128,-1,71
 595 1347 595 1347 536 1253 c 128,-1,72
 477 1159 477 1159 426 1045 c 128,-1,59
 375 931 375 931 343 795 c 128,-1,60
1163 782 m 1,73,74
 1164 783 1164 783 1220.5 836.5 c 128,-1,75
 1277 890 1277 890 1342 953.5 c 128,-1,76
 1407 1017 1407 1017 1476.5 1087.5 c 0,77,78
 1638 1251.32374101 1638 1251.32374101 1638 1289.6618705 c 128,-1,79
 1638 1328 1638 1328 1621 1363.5 c 128,-1,80
 1604 1399 1604 1399 1577.5 1417.5 c 0,81,82
 1525.21621622 1454 1525.21621622 1454 1476.10810811 1454 c 128,-1,83
 1427 1454 1427 1454 1374 1410 c 128,-1,84
 1321 1366 1321 1366 1273 1288 c 0,85,86
 1163 1109.25 1163 1109.25 1163 815 c 2,87,-1
 1163 782 l 1,73,74
EndSplineSet
EndChar

StartChar: ccedilla
Encoding: 231 231 169
Width: 1134
GlyphClass: 2
Flags: HW
LayerCount: 2
Fore
SplineSet
356 -270 m 1,0,-1
 422 -266 l 1,1,2
 729.181818182 -266 729.181818182 -266 812.5 -441.5 c 0,3,4
 836 -491 836 -491 836 -564.5 c 128,-1,5
 836 -638 836 -638 796.5 -707 c 128,-1,6
 757 -776 757 -776 693 -817 c 0,7,8
 561.87804878 -901 561.87804878 -901 440.43902439 -901 c 0,9,10
 241.538461538 -901 241.538461538 -901 160 -848 c 1,11,-1
 246 -750 l 1,12,13
 356 -791 356 -791 437 -791 c 128,-1,14
 518 -791 518 -791 572.5 -731.5 c 128,-1,15
 627 -672 627 -672 627 -595.5 c 128,-1,16
 627 -519 627 -519 603.5 -482.5 c 128,-1,17
 580 -446 580 -446 540.5 -426.5 c 0,18,19
 464.538461538 -389 464.538461538 -389 388.269230769 -389 c 128,-1,20
 312 -389 312 -389 283 -393 c 1,21,-1
 242 -324 l 1,22,-1
 352 -29 l 1,23,24
 297.357142857 -19.3571428571 297.357142857 -19.3571428571 262 16 c 1,25,26
 82 160.418604651 82 160.418604651 82 451 c 0,27,28
 82 766.215384615 82 766.215384615 209 1114 c 0,29,30
 343.8 1484.7 343.8 1484.7 630 1596 c 0,31,32
 738 1638 738 1638 855 1638 c 128,-1,33
 972 1638 972 1638 1022.5 1597 c 128,-1,34
 1073 1556 1073 1556 1073 1507 c 0,35,36
 1073 1352 1073 1352 979 1352 c 0,37,38
 935.714285714 1352 935.714285714 1352 862.357142857 1391 c 0,39,40
 721.285714286 1466 721.285714286 1466 606 1466 c 0,41,42
 535 1466 535 1466 461.5 1345 c 128,-1,43
 388 1224 388 1224 341.5 1043.5 c 128,-1,44
 295 863 295 863 295 734 c 128,-1,45
 295 605 295 605 310.5 527.5 c 128,-1,46
 326 450 326 450 351 398 c 128,-1,47
 376 346 376 346 408 309 c 128,-1,48
 440 272 440 272 471.5 255 c 128,-1,49
 503 238 503 238 532 238 c 128,-1,50
 561 238 561 238 592 245 c 128,-1,51
 623 252 623 252 651 262.5 c 128,-1,52
 679 273 679 273 710 290.5 c 128,-1,53
 741 308 741 308 765.5 324 c 128,-1,54
 790 340 790 340 818.5 362.5 c 128,-1,55
 847 385 847 385 866.5 401 c 128,-1,56
 886 417 886 417 909.5 439.5 c 128,-1,57
 933 462 933 462 944.5 473 c 128,-1,58
 956 484 956 484 973 501.5 c 128,-1,59
 990 519 990 519 991 520 c 1,60,-1
 1049 471 l 1,61,62
 1042 462 1042 462 1029.5 445.5 c 128,-1,63
 1017 429 1017 429 977.5 381 c 128,-1,64
 938 333 938 333 897.5 289 c 128,-1,65
 857 245 857 245 797.5 189 c 128,-1,66
 738 133 738 133 682.5 91 c 0,67,68
 549.282296651 -9.81339712919 549.282296651 -9.81339712919 438 -29 c 1,69,-1
 356 -270 l 1,0,-1
EndSplineSet
EndChar

StartChar: eth
Encoding: 240 240 178
Width: 1331
GlyphClass: 2
Flags: HW
LayerCount: 2
Fore
SplineSet
963 2257 m 1,0,1
 1241 1636.504 1241 1636.504 1241 1061 c 0,2,3
 1241 678.106382979 1241 678.106382979 1069 389 c 1,4,5
 955 192 955 192 804 71.5 c 128,-1,6
 653 -49 653 -49 516.5 -49 c 128,-1,7
 380 -49 380 -49 282.5 29.5 c 0,8,9
 82 190.928205128 82 190.928205128 82 524 c 0,10,11
 82 1011 82 1011 400 1373 c 0,12,13
 570.437849944 1567.78611422 570.437849944 1567.78611422 725 1607.5 c 0,14,15
 797 1626 797 1626 865 1626 c 128,-1,16
 933 1626 933 1626 958 1622 c 1,17,18
 906 1927 906 1927 799 2187 c 1,19,-1
 389 2015 l 1,20,-1
 336 2150 l 1,21,-1
 741 2318 l 1,22,23
 576 2676 576 2676 377 2875 c 1,24,-1
 578 2875 l 1,25,26
 730 2723 730 2723 901 2388 c 1,27,-1
 1270 2544 l 1,28,-1
 1323 2413 l 1,29,-1
 963 2257 l 1,0,1
395.5 1005.5 m 128,-1,31
 356 852 356 852 356 695.5 c 128,-1,32
 356 539 356 539 387.5 405.5 c 128,-1,33
 419 272 419 272 480 189 c 128,-1,34
 541 106 541 106 626 106 c 128,-1,35
 711 106 711 106 802 243.5 c 128,-1,36
 893 381 893 381 948.5 583.5 c 128,-1,37
 1004 786 1004 786 1004 922.5 c 128,-1,38
 1004 1059 1004 1059 989.5 1148 c 128,-1,39
 975 1237 975 1237 947 1320.5 c 128,-1,40
 919 1404 919 1404 868.5 1457.5 c 128,-1,41
 818 1511 818 1511 756 1511 c 128,-1,42
 694 1511 694 1511 624 1443.5 c 128,-1,43
 554 1376 554 1376 494.5 1267.5 c 128,-1,30
 435 1159 435 1159 395.5 1005.5 c 128,-1,31
EndSplineSet
EndChar

StartChar: oslash
Encoding: 248 248 186
Width: 1351
GlyphClass: 2
Flags: HW
LayerCount: 2
Fore
SplineSet
1135 1524 m 1,0,1
 1270 1372.125 1270 1372.125 1270 1081 c 0,2,3
 1270 892 1270 892 1202 687.5 c 128,-1,4
 1134 483 1134 483 1027.5 321.5 c 128,-1,5
 921 160 921 160 780.5 55.5 c 128,-1,6
 640 -49 640 -49 510.5 -49 c 128,-1,7
 381 -49 381 -49 279 33 c 1,8,-1
 143 -197 l 1,9,-1
 41 -143 l 1,10,-1
 197 123 l 1,11,12
 82 282 82 282 82 524 c 0,13,14
 82 1011 82 1011 400 1373 c 0,15,16
 635.375 1642 635.375 1642 856 1642 c 0,17,18
 962 1642 962 1642 1044 1597 c 1,19,-1
 1130 1745 l 1,20,-1
 1229 1688 l 1,21,-1
 1135 1524 l 1,0,1
395.5 1005.5 m 128,-1,23
 356 852 356 852 356 710 c 128,-1,24
 356 568 356 568 381 446 c 1,25,-1
 922 1380 l 1,26,27
 853 1511 853 1511 754 1511 c 0,28,29
 694 1511 694 1511 624 1443.5 c 128,-1,30
 554 1376 554 1376 494.5 1267.5 c 128,-1,22
 435 1159 435 1159 395.5 1005.5 c 128,-1,23
426 291 m 1,31,32
 501 106 501 106 618 106 c 0,33,34
 711 106 711 106 802 243.5 c 128,-1,35
 893 381 893 381 948.5 583.5 c 128,-1,36
 1004 786 1004 786 1004 939 c 128,-1,37
 1004 1092 1004 1092 971 1241 c 1,38,-1
 426 291 l 1,31,32
EndSplineSet
EndChar

StartChar: thorn
Encoding: 254 254 192
Width: 1511
GlyphClass: 2
Flags: HW
LayerCount: 2
Fore
SplineSet
545 -930 m 1,0,-1
 913 -905 l 1,1,-1
 909 -1016 l 1,2,-1
 -86 -1110 l 1,3,-1
 -86 -991 l 1,4,5
 -41 -987 -41 -987 21 -982 c 128,-1,6
 83 -977 83 -977 104 -975 c 128,-1,7
 125 -973 125 -973 151 -966.5 c 128,-1,8
 177 -960 177 -960 183 -956.5 c 128,-1,9
 189 -953 189 -953 197 -938 c 128,-1,10
 205 -923 205 -923 205.5 -911 c 128,-1,11
 206 -899 206 -899 207.5 -878.5 c 0,12,13
 309.256157635 512.167487685 309.256157635 512.167487685 337.128078818 804.083743842 c 128,-1,14
 365 1096 365 1096 398.5 1500.5 c 0,15,16
 483 2520.80597015 483 2520.80597015 483 2679 c 0,17,18
 483 2736 483 2736 424.710526316 2736 c 128,-1,19
 366.421052632 2736 366.421052632 2736 168 2671 c 1,20,-1
 143 2781 l 1,21,22
 607 2916 607 2916 699 2916 c 128,-1,23
 791 2916 791 2916 791 2858 c 128,-1,24
 791 2800 791 2800 721 2151.5 c 128,-1,25
 651 1503 651 1503 602 1118 c 1,26,27
 952 1618 952 1618 1196 1618 c 0,28,29
 1311 1618 1311 1618 1380.5 1509.5 c 128,-1,30
 1450 1401 1450 1401 1450 1207 c 0,31,32
 1450 870.333333333 1450 870.333333333 1278 512 c 1,33,34
 1173 296 1173 296 1019.5 135.5 c 128,-1,35
 866 -25 866 -25 762 -25 c 0,36,37
 651 -25 651 -25 558 62 c 2,38,-1
 528 90 l 1,39,-1
 467 -827 l 1,40,41
 467 -914.6875 467 -914.6875 491.5 -922.34375 c 128,-1,42
 516 -930 516 -930 545 -930 c 1,0,-1
553 554 m 128,-1,44
 553 383 553 383 613.5 271.5 c 128,-1,45
 674 160 674 160 751.5 160 c 128,-1,46
 829 160 829 160 895.5 201.5 c 128,-1,47
 962 243 962 243 1021.5 318 c 128,-1,48
 1081 393 1081 393 1130 487 c 0,49,50
 1237 692.265306122 1237 692.265306122 1237 922 c 0,51,52
 1237 1054.97826087 1237 1054.97826087 1203.5 1163.48913043 c 0,53,54
 1140.36241611 1368 1140.36241611 1368 1016 1368 c 0,55,56
 918.095890411 1368 918.095890411 1368 789 1216 c 0,57,58
 647.148365465 1048.98113998 647.148365465 1048.98113998 600.074182733 886.990569992 c 128,-1,43
 553 725 553 725 553 554 c 128,-1,44
EndSplineSet
EndChar

StartChar: Aogonek
Encoding: 260 260 198
Width: 2682
GlyphClass: 2
Flags: HW
LayerCount: 2
Fore
SplineSet
1630 -598 m 0,0,1
 1630 -881 1630 -881 1878.375 -881 c 0,2,3
 2012.75 -881 2012.75 -881 2146 -758 c 1,4,-1
 2183 -831 l 1,5,6
 2063.72727273 -980.090909091 2063.72727273 -980.090909091 1863 -1047 c 0,7,8
 1785 -1073 1785 -1073 1708 -1073 c 0,9,10
 1531 -1073 1531 -1073 1437 -971 c 128,-1,11
 1343 -869 1343 -869 1343 -748 c 128,-1,12
 1343 -627 1343 -627 1376.5 -539.5 c 128,-1,13
 1410 -452 1410 -452 1461.5 -383 c 128,-1,14
 1513 -314 1513 -314 1579 -242 c 128,-1,15
 1645 -170 1645 -170 1705 -114.5 c 0,16,17
 1852.35083532 21.799522673 1852.35083532 21.799522673 1888.67541766 83.8997613365 c 128,-1,18
 1925 146 1925 146 1925 206 c 128,-1,19
 1925 266 1925 266 1909 340 c 1,20,-1
 1741 1053 l 1,21,-1
 926 1053 l 1,22,-1
 606 360 l 1,23,24
 549 232 549 232 549 201 c 0,25,26
 549 157 549 157 600 144 c 128,-1,27
 651 131 651 131 807 131 c 2,28,-1
 885 131 l 1,29,-1
 877 0 l 1,30,-1
 82 0 l 1,31,-1
 82 131 l 1,32,-1
 147 131 l 2,33,34
 232.813953488 131 232.813953488 131 270.406976744 157.5 c 0,35,36
 329.269736842 198.993421053 329.269736842 198.993421053 397 348 c 1,37,-1
 1548 2798 l 1,38,-1
 1622 2798 l 1,39,-1
 2200 471 l 2,40,41
 2260.6 228.6 2260.6 228.6 2283.8 193.8 c 128,-1,42
 2307 159 2307 159 2332 146 c 0,43,44
 2360.84615385 131 2360.84615385 131 2441 131 c 2,45,-1
 2560 131 l 1,46,-1
 2560 0 l 1,47,-1
 2167 0 l 2,48,49
 1923.43312102 0 1923.43312102 0 1736 -288.5 c 0,50,51
 1630 -451.656862745 1630 -451.656862745 1630 -598 c 0,0,1
991 1212 m 1,52,-1
 1704 1212 l 1,53,-1
 1446 2245 l 1,54,-1
 991 1212 l 1,52,-1
EndSplineSet
Substitution2: "'swsh' Swash in Latin lookup 13 subtable" Aogonek.001
AlternateSubs2: "'aalt' Access All Alternates in Latin lookup 1 subtable" Aogonek.001
AlternateSubs2: "'aalt' Access All Alternates lookup 0 subtable" Aogonek.001
Position2: "'cpsp' Capital Spacing in Latin lookup 0 subtable" dx=33 dy=0 dh=66 dv=0
EndChar

StartChar: aogonek
Encoding: 261 261 199
Width: 1519
GlyphClass: 2
Flags: HW
LayerCount: 2
Fore
SplineSet
905 61 m 1,0,-1
 893 250 l 1,1,2
 893 350 893 350 913 610 c 1,3,4
 779 353 779 353 672.5 222.5 c 128,-1,5
 566 92 566 92 460.5 23.5 c 128,-1,6
 355 -45 355 -45 315.5 -45 c 128,-1,7
 276 -45 276 -45 250.5 -35 c 128,-1,8
 225 -25 225 -25 197 5.5 c 128,-1,9
 169 36 169 36 149 84 c 0,10,11
 102 196.8 102 196.8 102 366.9 c 128,-1,12
 102 537 102 537 115.5 635 c 128,-1,13
 129 733 129 733 165 828.5 c 0,14,15
 325.748730964 1254.93066131 325.748730964 1254.93066131 680 1548.5 c 0,16,17
 788 1638 788 1638 838.5 1638 c 128,-1,18
 889 1638 889 1638 925.5 1612.5 c 128,-1,19
 962 1587 962 1587 985 1550.5 c 0,20,21
 1033.19561815 1474.01564945 1033.19561815 1474.01564945 1057 1389 c 1,22,-1
 1098 1618 l 2,23,24
 1110 1688 1110 1688 1192 1688 c 2,25,-1
 1233 1688 l 2,26,27
 1280 1688 1280 1688 1293.5 1679.5 c 128,-1,28
 1307 1671 1307 1671 1307 1650 c 128,-1,29
 1307 1629 1307 1629 1271 1400 c 0,30,31
 1163 713 1163 713 1163 504 c 128,-1,32
 1163 295 1163 295 1212 295 c 0,33,34
 1240.55172414 295 1240.55172414 295 1267.27586207 326 c 128,-1,35
 1294 357 1294 357 1304 368.5 c 128,-1,36
 1314 380 1314 380 1332 401 c 128,-1,37
 1350 422 1350 422 1364 438 c 1,38,-1
 1438 381 l 1,39,40
 1428 369 1428 369 1378 301 c 0,41,42
 1276.9 163.504 1276.9 163.504 1207.95 97.252 c 128,-1,43
 1139 31 1139 31 1031.5 -57.5 c 128,-1,44
 924 -146 924 -146 913 -156 c 0,45,46
 672 -367.123966942 672 -367.123966942 672 -586 c 0,47,48
 672 -783.409638554 672 -783.409638554 792.5 -856 c 0,49,50
 834 -881 834 -881 889 -881 c 0,51,52
 1054.75 -881 1054.75 -881 1188 -758 c 1,53,-1
 1225 -831 l 1,54,55
 1105.72727273 -980.090909091 1105.72727273 -980.090909091 905 -1047 c 0,56,57
 827 -1073 827 -1073 744.5 -1073 c 128,-1,58
 662 -1073 662 -1073 594.5 -1046.5 c 128,-1,59
 527 -1020 527 -1020 488.5 -981 c 128,-1,60
 450 -942 450 -942 425.5 -889 c 0,61,62
 385 -801.387755102 385 -801.387755102 385 -703.193877551 c 128,-1,63
 385 -605 385 -605 452 -488 c 0,64,65
 575.571334907 -272.211250983 575.571334907 -272.211250983 827 -82 c 0,66,67
 905 -24 905 -24 905 61 c 1,0,-1
343 795 m 128,-1,69
 311 659 311 659 311 534 c 128,-1,70
 311 409 311 409 361 325.5 c 128,-1,71
 411 242 411 242 465.5 242 c 128,-1,72
 520 242 520 242 614.5 356 c 128,-1,73
 709 470 709 470 794 622.5 c 128,-1,74
 879 775 879 775 941.5 937 c 128,-1,75
 1004 1099 1004 1099 1004 1173.5 c 128,-1,76
 1004 1248 1004 1248 958.5 1312 c 128,-1,77
 913 1376 913 1376 854.5 1415 c 128,-1,78
 796 1454 796 1454 754 1454 c 128,-1,79
 712 1454 712 1454 653.5 1400.5 c 128,-1,80
 595 1347 595 1347 536 1253 c 128,-1,81
 477 1159 477 1159 426 1045 c 128,-1,68
 375 931 375 931 343 795 c 128,-1,69
EndSplineSet
EndChar

StartChar: dcroat
Encoding: 273 273 211
Width: 1531
GlyphClass: 2
Flags: HW
LayerCount: 2
Fore
SplineSet
1171.5 595.5 m 128,-1,1
 1163 491 1163 491 1163 397 c 128,-1,2
 1163 303 1163 303 1200 303 c 0,3,4
 1269.57575758 303 1269.57575758 303 1383 500 c 1,5,-1
 1421 565 l 1,6,-1
 1491 528 l 1,7,8
 1491 491.014084507 1491 491.014084507 1421 386.507042254 c 0,9,10
 1298.71428571 203.939637827 1298.71428571 203.939637827 1162.35714286 81.4698189135 c 128,-1,11
 1026 -41 1026 -41 967 -41 c 0,12,13
 922 -41 922 -41 922 53 c 0,14,15
 922 279.5 922 279.5 968 613 c 1,16,-1
 983 729 l 1,17,18
 917.690787643 537.1541887 917.690787643 537.1541887 713.5 277 c 0,19,20
 467.046511628 -37 467.046511628 -37 311 -37 c 0,21,22
 202.803571429 -37 202.803571429 -37 136.5 121 c 0,23,24
 82 250.872340426 82 250.872340426 82 475.436170213 c 128,-1,25
 82 700 82 700 158 915 c 128,-1,26
 234 1130 234 1130 348 1278.5 c 0,27,28
 614.767676768 1626 614.767676768 1626 782 1626 c 0,29,30
 836 1626 836 1626 879 1587.5 c 128,-1,31
 922 1549 922 1549 942.5 1504.5 c 128,-1,32
 963 1460 963 1460 982.5 1406.5 c 128,-1,33
 1002 1353 1002 1353 1008 1343 c 1,34,-1
 1040 2036 l 1,35,-1
 471 2036 l 1,36,-1
 483 2195 l 1,37,-1
 1049 2195 l 1,38,-1
 1065 2556 l 1,39,-1
 1065 2634 l 2,40,41
 1065 2744 1065 2744 1026.5 2744 c 128,-1,42
 988 2744 988 2744 741 2699 c 1,43,-1
 725 2793 l 1,44,45
 824 2814 824 2814 1041.5 2853 c 128,-1,46
 1259 2892 1259 2892 1282 2892 c 0,47,48
 1360 2892 1360 2892 1360 2826 c 1,49,-1
 1311 2195 l 1,50,-1
 1503 2195 l 1,51,-1
 1491 2036 l 1,52,-1
 1298 2036 l 1,53,-1
 1229 1212 l 2,54,55
 1217 1074 1217 1074 1198.5 887 c 128,-1,0
 1180 700 1180 700 1171.5 595.5 c 128,-1,1
287 721 m 0,56,57
 287 266 287 266 492 266 c 0,58,59
 547 266 547 266 627 342 c 128,-1,60
 707 418 707 418 780.5 531.5 c 128,-1,61
 854 645 854 645 906 794 c 128,-1,62
 958 943 958 943 958 1073 c 2,63,-1
 958 1139 l 2,64,65
 958 1362.45 958 1362.45 786 1463.5 c 0,66,67
 746 1487 746 1487 709.5 1487 c 128,-1,68
 673 1487 673 1487 622.5 1450 c 128,-1,69
 572 1413 572 1413 530.5 1357 c 0,70,71
 448.815766924 1246.77549272 448.815766924 1246.77549272 401.907883462 1146.88774636 c 128,-1,72
 355 1047 355 1047 321 917.5 c 128,-1,73
 287 788 287 788 287 721 c 0,56,57
EndSplineSet
EndChar

